<svg width="638" height="590" viewBox="0 0 638 590" fill="none" xmlns="http://www.w3.org/2000/svg">
<g clip-path="url(#clip0_4_2954)">
<rect width="638" height="590" rx="16" fill="#F9DAF2"/>
<g clip-path="url(#clip1_4_2954)">
<rect width="645.298" height="1083.48" rx="22.5432" fill="white" fill-opacity="0.6"/>
<g clip-path="url(#clip2_4_2954)">
<rect x="108.649" y="33.8147" width="428" height="1015.85" rx="21.1342" fill="#FFE4F9"/>
<rect x="132.649" y="57.8147" width="380" height="266" rx="5.54745" fill="white"/>
<line x1="208.927" y1="264.11" x2="437.759" y2="264.11" stroke="black" stroke-opacity="0.12" stroke-width="0.693431"/>
<line x1="208.927" y1="211.41" x2="437.759" y2="211.41" stroke="black" stroke-opacity="0.12" stroke-width="0.693431"/>
<line x1="207.54" y1="238.453" x2="436.372" y2="238.453" stroke="black" stroke-opacity="0.12" stroke-width="0.693431"/>
<line x1="207.54" y1="184.366" x2="436.372" y2="184.366" stroke="black" stroke-opacity="0.12" stroke-width="0.693431"/>
<line x1="207.54" y1="157.322" x2="436.372" y2="157.322" stroke="black" stroke-opacity="0.12" stroke-width="0.693431"/>
<line x1="207.54" y1="130.278" x2="436.372" y2="130.278" stroke="black" stroke-opacity="0.12" stroke-width="0.693431"/>
<path d="M214.474 134.786C214.474 132.871 216.026 131.318 217.941 131.318C219.856 131.318 221.408 132.871 221.408 134.786V264.457H214.474V134.786Z" fill="#58C0F4"/>
<path d="M214.474 149.66C214.474 147.745 216.026 146.193 217.941 146.193C219.856 146.193 221.408 147.745 221.408 149.66V264.457H214.474V149.66Z" fill="#533CF5"/>
<path d="M249.146 186.793C249.146 184.878 250.698 183.326 252.613 183.326C254.528 183.326 256.08 184.878 256.08 186.793V264.457H249.146V186.793Z" fill="#58C0F4"/>
<path d="M249.146 201.355C249.146 199.44 250.698 197.888 252.613 197.888C254.528 197.888 256.08 199.44 256.08 201.355V264.457H249.146V201.355Z" fill="#533CF5"/>
<path d="M283.817 227.012C283.817 225.097 285.37 223.545 287.285 223.545C289.199 223.545 290.752 225.097 290.752 227.012V264.457H283.817V227.012Z" fill="#58C0F4"/>
<path d="M283.817 243.654C283.817 241.739 285.37 240.187 287.285 240.187C289.199 240.187 290.752 241.739 290.752 243.654V264.457H283.817V243.654Z" fill="#533CF5"/>
<path d="M318.489 137.559C318.489 135.644 320.041 134.092 321.956 134.092C323.871 134.092 325.423 135.644 325.423 137.559V264.457H318.489V137.559Z" fill="#58C0F4"/>
<path d="M318.489 161.136C318.489 159.221 320.041 157.669 321.956 157.669C323.871 157.669 325.423 159.221 325.423 161.136V264.457H318.489V161.136Z" fill="#533CF5"/>
<path d="M353.16 190.26C353.16 188.345 354.712 186.793 356.627 186.793C358.542 186.793 360.094 188.345 360.094 190.26V264.457H353.16V190.26Z" fill="#58C0F4"/>
<path d="M353.16 197.888C353.16 195.973 354.712 194.421 356.627 194.421C358.542 194.421 360.094 195.973 360.094 197.888V264.457H353.16V197.888Z" fill="#533CF5"/>
<path d="M387.832 201.355C387.832 199.44 389.384 197.888 391.299 197.888C393.214 197.888 394.766 199.44 394.766 201.355V264.457H387.832V201.355Z" fill="#58C0F4"/>
<path d="M387.832 220.078C387.832 218.163 389.384 216.61 391.299 216.61C393.214 216.61 394.766 218.163 394.766 220.078V264.457H387.832V220.078Z" fill="#533CF5"/>
<path d="M422.503 161.136C422.503 159.221 424.056 157.669 425.971 157.669C427.885 157.669 429.438 159.221 429.438 161.136V264.457H422.503V161.136Z" fill="#58C0F4"/>
<path d="M422.503 197.888C422.503 195.973 424.056 194.421 425.971 194.421C427.885 194.421 429.438 195.973 429.438 197.888V264.457H422.503V197.888Z" fill="#533CF5"/>
<path d="M185.586 133.094C185.154 133.094 184.766 133.011 184.421 132.846C184.079 132.678 183.805 132.448 183.601 132.156C183.396 131.864 183.287 131.531 183.273 131.156H184.307C184.333 131.46 184.467 131.709 184.711 131.904C184.954 132.1 185.246 132.197 185.586 132.197C185.857 132.197 186.098 132.135 186.307 132.011C186.518 131.885 186.684 131.711 186.803 131.491C186.925 131.27 186.986 131.018 186.986 130.736C186.986 130.448 186.924 130.192 186.8 129.967C186.676 129.742 186.504 129.565 186.286 129.436C186.07 129.307 185.822 129.242 185.541 129.239C185.328 129.239 185.113 129.276 184.897 129.35C184.681 129.423 184.506 129.52 184.373 129.639L183.397 129.495L183.794 125.937H187.675V126.85H184.68L184.456 128.826H184.497C184.635 128.692 184.818 128.581 185.045 128.491C185.275 128.402 185.521 128.357 185.783 128.357C186.213 128.357 186.595 128.459 186.931 128.664C187.269 128.868 187.534 129.148 187.727 129.501C187.923 129.853 188.019 130.258 188.017 130.715C188.019 131.172 187.916 131.58 187.706 131.939C187.5 132.297 187.212 132.58 186.845 132.787C186.479 132.991 186.06 133.094 185.586 133.094ZM191.734 133.114C191.189 133.112 190.724 132.968 190.338 132.683C189.952 132.398 189.656 131.984 189.452 131.439C189.247 130.894 189.145 130.238 189.145 129.47C189.145 128.705 189.247 128.051 189.452 127.509C189.659 126.966 189.955 126.553 190.341 126.268C190.73 125.983 191.194 125.84 191.734 125.84C192.274 125.84 192.737 125.984 193.123 126.271C193.509 126.556 193.805 126.97 194.009 127.512C194.216 128.052 194.32 128.705 194.32 129.47C194.32 130.24 194.217 130.898 194.013 131.442C193.808 131.985 193.513 132.4 193.127 132.687C192.741 132.972 192.276 133.114 191.734 133.114ZM191.734 132.194C192.212 132.194 192.585 131.961 192.854 131.494C193.126 131.028 193.261 130.353 193.261 129.47C193.261 128.884 193.199 128.389 193.075 127.985C192.953 127.578 192.777 127.27 192.548 127.061C192.32 126.849 192.049 126.744 191.734 126.744C191.258 126.744 190.885 126.978 190.614 127.447C190.342 127.916 190.206 128.59 190.203 129.47C190.203 130.059 190.264 130.556 190.386 130.963C190.51 131.368 190.686 131.675 190.913 131.884C191.141 132.091 191.414 132.194 191.734 132.194ZM198.001 133.114C197.456 133.112 196.99 132.968 196.604 132.683C196.218 132.398 195.923 131.984 195.718 131.439C195.514 130.894 195.412 130.238 195.412 129.47C195.412 128.705 195.514 128.051 195.718 127.509C195.925 126.966 196.222 126.553 196.608 126.268C196.996 125.983 197.46 125.84 198.001 125.84C198.541 125.84 199.004 125.984 199.39 126.271C199.776 126.556 200.071 126.97 200.276 127.512C200.483 128.052 200.586 128.705 200.586 129.47C200.586 130.24 200.484 130.898 200.279 131.442C200.075 131.985 199.779 132.4 199.393 132.687C199.007 132.972 198.543 133.114 198.001 133.114ZM198.001 132.194C198.479 132.194 198.852 131.961 199.121 131.494C199.392 131.028 199.528 130.353 199.528 129.47C199.528 128.884 199.466 128.389 199.342 127.985C199.22 127.578 199.044 127.27 198.814 127.061C198.587 126.849 198.315 126.744 198.001 126.744C197.525 126.744 197.151 126.978 196.88 127.447C196.609 127.916 196.472 128.59 196.47 129.47C196.47 130.059 196.531 130.556 196.653 130.963C196.777 131.368 196.953 131.675 197.18 131.884C197.408 132.091 197.681 132.194 198.001 132.194Z" fill="black" fill-opacity="0.21"/>
<path d="M183.801 158.662V157.8L186.852 152.981H187.531V154.249H187.1L184.918 157.704V157.759H189.1V158.662H183.801ZM187.148 160.041V158.4L187.155 158.007V152.981H188.165V160.041H187.148ZM192.759 160.158C192.214 160.156 191.749 160.012 191.363 159.727C190.977 159.442 190.681 159.027 190.477 158.483C190.272 157.938 190.17 157.282 190.17 156.514C190.17 155.749 190.272 155.095 190.477 154.553C190.684 154.01 190.98 153.597 191.366 153.312C191.755 153.027 192.219 152.884 192.759 152.884C193.299 152.884 193.762 153.028 194.148 153.315C194.535 153.6 194.83 154.014 195.034 154.556C195.241 155.096 195.345 155.749 195.345 156.514C195.345 157.284 195.242 157.942 195.038 158.486C194.833 159.029 194.538 159.443 194.152 159.731C193.766 160.016 193.302 160.158 192.759 160.158ZM192.759 159.238C193.237 159.238 193.611 159.004 193.88 158.538C194.151 158.071 194.286 157.397 194.286 156.514C194.286 155.928 194.224 155.433 194.1 155.028C193.978 154.622 193.803 154.314 193.573 154.105C193.345 153.893 193.074 153.787 192.759 153.787C192.283 153.787 191.91 154.022 191.639 154.491C191.368 154.959 191.231 155.634 191.228 156.514C191.228 157.103 191.289 157.6 191.411 158.007C191.535 158.412 191.711 158.718 191.939 158.927C192.166 159.134 192.44 159.238 192.759 159.238ZM199.026 160.158C198.481 160.156 198.016 160.012 197.63 159.727C197.243 159.442 196.948 159.027 196.744 158.483C196.539 157.938 196.437 157.282 196.437 156.514C196.437 155.749 196.539 155.095 196.744 154.553C196.95 154.01 197.247 153.597 197.633 153.312C198.021 153.027 198.486 152.884 199.026 152.884C199.566 152.884 200.029 153.028 200.415 153.315C200.801 153.6 201.097 154.014 201.301 154.556C201.508 155.096 201.611 155.749 201.611 156.514C201.611 157.284 201.509 157.942 201.305 158.486C201.1 159.029 200.805 159.443 200.419 159.731C200.032 160.016 199.568 160.158 199.026 160.158ZM199.026 159.238C199.504 159.238 199.877 159.004 200.146 158.538C200.417 158.071 200.553 157.397 200.553 156.514C200.553 155.928 200.491 155.433 200.367 155.028C200.245 154.622 200.069 154.314 199.839 154.105C199.612 153.893 199.341 153.787 199.026 153.787C198.55 153.787 198.177 154.022 197.905 154.491C197.634 154.959 197.497 155.634 197.495 156.514C197.495 157.103 197.556 157.6 197.678 158.007C197.802 158.412 197.978 158.718 198.205 158.927C198.433 159.134 198.706 159.238 199.026 159.238Z" fill="black" fill-opacity="0.21"/>
<path d="M186.407 187.181C185.934 187.181 185.511 187.1 185.139 186.936C184.769 186.773 184.475 186.547 184.259 186.257C184.046 185.965 183.931 185.628 183.915 185.244H184.997C185.011 185.453 185.081 185.634 185.207 185.788C185.336 185.94 185.504 186.057 185.711 186.14C185.918 186.223 186.147 186.264 186.4 186.264C186.678 186.264 186.924 186.216 187.138 186.119C187.354 186.023 187.523 185.888 187.645 185.716C187.767 185.541 187.828 185.34 187.828 185.113C187.828 184.876 187.767 184.668 187.645 184.489C187.525 184.307 187.35 184.165 187.117 184.061C186.888 183.958 186.609 183.906 186.283 183.906H185.687V183.037H186.283C186.545 183.037 186.775 182.99 186.973 182.896C187.173 182.802 187.329 182.671 187.441 182.503C187.554 182.333 187.61 182.134 187.61 181.907C187.61 181.688 187.561 181.499 187.462 181.338C187.366 181.175 187.228 181.047 187.048 180.955C186.871 180.863 186.662 180.817 186.421 180.817C186.191 180.817 185.976 180.86 185.776 180.945C185.579 181.028 185.418 181.147 185.294 181.303C185.17 181.457 185.103 181.642 185.094 181.858H184.063C184.074 181.477 184.187 181.141 184.401 180.852C184.617 180.562 184.902 180.336 185.256 180.173C185.61 180.009 186.003 179.928 186.435 179.928C186.888 179.928 187.278 180.016 187.607 180.193C187.938 180.368 188.193 180.601 188.372 180.893C188.554 181.185 188.643 181.504 188.641 181.851C188.643 182.247 188.533 182.582 188.31 182.858C188.09 183.134 187.795 183.319 187.428 183.413V183.468C187.897 183.54 188.26 183.726 188.517 184.027C188.777 184.328 188.905 184.701 188.903 185.147C188.905 185.536 188.797 185.884 188.579 186.192C188.363 186.5 188.068 186.742 187.693 186.919C187.318 187.094 186.89 187.181 186.407 187.181ZM192.664 187.202C192.12 187.2 191.654 187.056 191.268 186.771C190.882 186.486 190.587 186.071 190.382 185.526C190.178 184.982 190.075 184.326 190.075 183.558C190.075 182.793 190.178 182.139 190.382 181.596C190.589 181.054 190.885 180.64 191.272 180.355C191.66 180.07 192.124 179.928 192.664 179.928C193.204 179.928 193.668 180.071 194.054 180.359C194.44 180.644 194.735 181.057 194.94 181.6C195.146 182.14 195.25 182.793 195.25 183.558C195.25 184.328 195.148 184.985 194.943 185.53C194.739 186.072 194.443 186.487 194.057 186.774C193.671 187.059 193.207 187.202 192.664 187.202ZM192.664 186.281C193.142 186.281 193.516 186.048 193.785 185.582C194.056 185.115 194.192 184.441 194.192 183.558C194.192 182.972 194.129 182.477 194.005 182.072C193.884 181.665 193.708 181.357 193.478 181.148C193.25 180.937 192.979 180.831 192.664 180.831C192.189 180.831 191.815 181.065 191.544 181.534C191.273 182.003 191.136 182.678 191.134 183.558C191.134 184.146 191.195 184.644 191.316 185.051C191.44 185.455 191.616 185.762 191.844 185.971C192.071 186.178 192.345 186.281 192.664 186.281ZM198.931 187.202C198.386 187.2 197.921 187.056 197.535 186.771C197.149 186.486 196.853 186.071 196.649 185.526C196.444 184.982 196.342 184.326 196.342 183.558C196.342 182.793 196.444 182.139 196.649 181.596C196.856 181.054 197.152 180.64 197.538 180.355C197.927 180.07 198.391 179.928 198.931 179.928C199.471 179.928 199.934 180.071 200.32 180.359C200.706 180.644 201.002 181.057 201.206 181.6C201.413 182.14 201.517 182.793 201.517 183.558C201.517 184.328 201.414 184.985 201.21 185.53C201.005 186.072 200.71 186.487 200.324 186.774C199.938 187.059 199.473 187.202 198.931 187.202ZM198.931 186.281C199.409 186.281 199.782 186.048 200.051 185.582C200.323 185.115 200.458 184.441 200.458 183.558C200.458 182.972 200.396 182.477 200.272 182.072C200.15 181.665 199.974 181.357 199.745 181.148C199.517 180.937 199.246 180.831 198.931 180.831C198.455 180.831 198.082 181.065 197.811 181.534C197.539 182.003 197.403 182.678 197.4 183.558C197.4 184.146 197.461 184.644 197.583 185.051C197.707 185.455 197.883 185.762 198.11 185.971C198.338 186.178 198.611 186.281 198.931 186.281Z" fill="black" fill-opacity="0.21"/>
<path d="M183.949 214.129V213.356L186.338 210.881C186.593 210.612 186.804 210.377 186.969 210.174C187.137 209.97 187.262 209.776 187.345 209.592C187.428 209.408 187.469 209.212 187.469 209.006C187.469 208.771 187.414 208.569 187.304 208.399C187.193 208.226 187.043 208.094 186.852 208.002C186.661 207.908 186.446 207.861 186.207 207.861C185.954 207.861 185.734 207.913 185.545 208.016C185.357 208.12 185.212 208.266 185.111 208.454C185.01 208.642 184.959 208.863 184.959 209.116H183.942C183.942 208.686 184.041 208.31 184.239 207.989C184.436 207.667 184.708 207.417 185.052 207.241C185.397 207.061 185.789 206.972 186.228 206.972C186.672 206.972 187.062 207.06 187.4 207.237C187.74 207.412 188.006 207.651 188.196 207.954C188.387 208.255 188.483 208.595 188.483 208.975C188.483 209.237 188.433 209.493 188.334 209.743C188.238 209.994 188.069 210.273 187.828 210.581C187.586 210.887 187.251 211.258 186.821 211.695L185.418 213.163V213.215H188.596V214.129H183.949ZM192.361 214.246C191.816 214.243 191.351 214.1 190.965 213.815C190.579 213.53 190.283 213.115 190.079 212.57C189.874 212.026 189.772 211.369 189.772 210.602C189.772 209.836 189.874 209.183 190.079 208.64C190.286 208.098 190.582 207.684 190.968 207.399C191.357 207.114 191.821 206.972 192.361 206.972C192.901 206.972 193.364 207.115 193.75 207.403C194.136 207.688 194.432 208.101 194.636 208.644C194.843 209.184 194.947 209.836 194.947 210.602C194.947 211.372 194.844 212.029 194.64 212.574C194.435 213.116 194.14 213.531 193.754 213.818C193.368 214.103 192.903 214.246 192.361 214.246ZM192.361 213.325C192.839 213.325 193.212 213.092 193.481 212.625C193.753 212.159 193.888 211.484 193.888 210.602C193.888 210.016 193.826 209.52 193.702 209.116C193.58 208.709 193.404 208.401 193.175 208.192C192.947 207.981 192.676 207.875 192.361 207.875C191.885 207.875 191.512 208.109 191.241 208.578C190.969 209.047 190.833 209.722 190.83 210.602C190.83 211.19 190.891 211.688 191.013 212.095C191.137 212.499 191.313 212.806 191.54 213.015C191.768 213.222 192.041 213.325 192.361 213.325ZM198.628 214.246C198.083 214.243 197.617 214.1 197.231 213.815C196.845 213.53 196.55 213.115 196.345 212.57C196.141 212.026 196.039 211.369 196.039 210.602C196.039 209.836 196.141 209.183 196.345 208.64C196.552 208.098 196.849 207.684 197.235 207.399C197.623 207.114 198.087 206.972 198.628 206.972C199.168 206.972 199.631 207.115 200.017 207.403C200.403 207.688 200.698 208.101 200.903 208.644C201.11 209.184 201.213 209.836 201.213 210.602C201.213 211.372 201.111 212.029 200.906 212.574C200.702 213.116 200.406 213.531 200.02 213.818C199.634 214.103 199.17 214.246 198.628 214.246ZM198.628 213.325C199.106 213.325 199.479 213.092 199.748 212.625C200.019 212.159 200.155 211.484 200.155 210.602C200.155 210.016 200.093 209.52 199.969 209.116C199.847 208.709 199.671 208.401 199.441 208.192C199.214 207.981 198.942 207.875 198.628 207.875C198.152 207.875 197.778 208.109 197.507 208.578C197.236 209.047 197.099 209.722 197.097 210.602C197.097 211.19 197.158 211.688 197.28 212.095C197.404 212.499 197.58 212.806 197.807 213.015C198.035 213.222 198.308 213.325 198.628 213.325Z" fill="black" fill-opacity="0.21"/>
<path d="M188.015 234.112V241.172H186.946V235.181H186.904L185.215 236.284V235.263L186.977 234.112H188.015ZM192.382 241.29C191.838 241.287 191.372 241.144 190.986 240.859C190.6 240.574 190.305 240.159 190.1 239.614C189.896 239.069 189.793 238.413 189.793 237.646C189.793 236.88 189.896 236.226 190.1 235.684C190.307 235.142 190.604 234.728 190.99 234.443C191.378 234.158 191.842 234.015 192.382 234.015C192.923 234.015 193.386 234.159 193.772 234.446C194.158 234.731 194.453 235.145 194.658 235.687C194.865 236.228 194.968 236.88 194.968 237.646C194.968 238.416 194.866 239.073 194.661 239.618C194.457 240.16 194.161 240.575 193.775 240.862C193.389 241.147 192.925 241.29 192.382 241.29ZM192.382 240.369C192.861 240.369 193.234 240.136 193.503 239.669C193.774 239.203 193.91 238.528 193.91 237.646C193.91 237.06 193.848 236.564 193.724 236.16C193.602 235.753 193.426 235.445 193.196 235.236C192.969 235.024 192.697 234.919 192.382 234.919C191.907 234.919 191.533 235.153 191.262 235.622C190.991 236.091 190.854 236.765 190.852 237.646C190.852 238.234 190.913 238.732 191.035 239.138C191.159 239.543 191.334 239.85 191.562 240.059C191.79 240.266 192.063 240.369 192.382 240.369ZM198.649 241.29C198.104 241.287 197.639 241.144 197.253 240.859C196.867 240.574 196.571 240.159 196.367 239.614C196.162 239.069 196.06 238.413 196.06 237.646C196.06 236.88 196.162 236.226 196.367 235.684C196.574 235.142 196.87 234.728 197.256 234.443C197.645 234.158 198.109 234.015 198.649 234.015C199.189 234.015 199.652 234.159 200.038 234.446C200.425 234.731 200.72 235.145 200.924 235.687C201.131 236.228 201.235 236.88 201.235 237.646C201.235 238.416 201.132 239.073 200.928 239.618C200.723 240.16 200.428 240.575 200.042 240.862C199.656 241.147 199.191 241.29 198.649 241.29ZM198.649 240.369C199.127 240.369 199.501 240.136 199.77 239.669C200.041 239.203 200.176 238.528 200.176 237.646C200.176 237.06 200.114 236.564 199.99 236.16C199.868 235.753 199.693 235.445 199.463 235.236C199.235 235.024 198.964 234.919 198.649 234.919C198.173 234.919 197.8 235.153 197.529 235.622C197.257 236.091 197.121 236.765 197.118 237.646C197.118 238.234 197.179 238.732 197.301 239.138C197.425 239.543 197.601 239.85 197.829 240.059C198.056 240.266 198.33 240.369 198.649 240.369Z" fill="black" fill-opacity="0.21"/>
<path d="M198.889 266.947C198.344 266.944 197.879 266.801 197.492 266.516C197.106 266.231 196.811 265.816 196.606 265.271C196.402 264.726 196.3 264.07 196.3 263.303C196.3 262.537 196.402 261.883 196.606 261.341C196.813 260.799 197.11 260.385 197.496 260.1C197.884 259.815 198.349 259.672 198.889 259.672C199.429 259.672 199.892 259.816 200.278 260.103C200.664 260.388 200.959 260.802 201.164 261.344C201.371 261.885 201.474 262.537 201.474 263.303C201.474 264.073 201.372 264.73 201.167 265.275C200.963 265.817 200.668 266.232 200.281 266.519C199.895 266.804 199.431 266.947 198.889 266.947ZM198.889 266.026C199.367 266.026 199.74 265.793 200.009 265.326C200.28 264.86 200.416 264.185 200.416 263.303C200.416 262.717 200.354 262.221 200.23 261.817C200.108 261.41 199.932 261.102 199.702 260.893C199.475 260.681 199.204 260.576 198.889 260.576C198.413 260.576 198.039 260.81 197.768 261.279C197.497 261.748 197.36 262.422 197.358 263.303C197.358 263.891 197.419 264.389 197.541 264.795C197.665 265.2 197.841 265.507 198.068 265.716C198.296 265.923 198.569 266.026 198.889 266.026Z" fill="black" fill-opacity="0.21"/>
<path d="M215.25 271.557H216.543L218.79 277.046H218.873L221.121 271.557H222.414V278.618H221.4V273.509H221.335L219.252 278.607H218.411L216.329 273.505H216.263V278.618H215.25V271.557Z" fill="black" fill-opacity="0.5"/>
<path d="M249.573 272.474V271.557H255.037V272.474H252.834V278.618H251.772V272.474H249.573Z" fill="black" fill-opacity="0.5"/>
<path d="M285.975 278.618L284.017 271.557H285.138L286.513 277.025H286.579L288.009 271.557H289.12L290.55 277.028H290.616L291.988 271.557H293.112L291.15 278.618H290.078L288.592 273.329H288.537L287.051 278.618H285.975Z" fill="black" fill-opacity="0.5"/>
<path d="M318.916 272.474V271.557H324.38V272.474H322.178V278.618H321.116V272.474H318.916Z" fill="black" fill-opacity="0.5"/>
<path d="M353.936 278.618V271.557H358.314V272.474H355.001V274.626H358V275.539H355.001V278.618H353.936Z" fill="black" fill-opacity="0.5"/>
<path d="M392.459 273.412C392.422 273.086 392.27 272.833 392.003 272.654C391.737 272.472 391.401 272.381 390.997 272.381C390.707 272.381 390.457 272.427 390.245 272.519C390.034 272.609 389.869 272.733 389.752 272.891C389.637 273.048 389.58 273.226 389.58 273.426C389.58 273.594 389.619 273.738 389.697 273.86C389.778 273.982 389.882 274.084 390.011 274.167C390.142 274.247 390.282 274.315 390.431 274.37C390.581 274.423 390.724 274.467 390.862 274.501L391.552 274.681C391.777 274.736 392.008 274.811 392.245 274.905C392.481 274.999 392.701 275.123 392.903 275.277C393.105 275.431 393.269 275.622 393.393 275.849C393.519 276.077 393.582 276.349 393.582 276.666C393.582 277.066 393.479 277.421 393.272 277.732C393.068 278.042 392.77 278.287 392.379 278.466C391.991 278.645 391.521 278.735 390.969 278.735C390.441 278.735 389.983 278.651 389.597 278.483C389.211 278.315 388.909 278.078 388.69 277.77C388.472 277.459 388.351 277.092 388.328 276.666H389.397C389.418 276.922 389.501 277.134 389.645 277.304C389.792 277.472 389.98 277.597 390.207 277.68C390.437 277.76 390.689 277.801 390.962 277.801C391.263 277.801 391.531 277.754 391.766 277.659C392.002 277.563 392.188 277.429 392.324 277.259C392.46 277.087 392.527 276.886 392.527 276.656C392.527 276.447 392.468 276.276 392.348 276.142C392.231 276.009 392.071 275.899 391.869 275.811C391.669 275.724 391.443 275.647 391.19 275.58L390.356 275.353C389.79 275.199 389.342 274.973 389.011 274.674C388.682 274.375 388.518 273.98 388.518 273.488C388.518 273.081 388.628 272.726 388.849 272.423C389.07 272.119 389.368 271.884 389.745 271.716C390.122 271.546 390.547 271.461 391.021 271.461C391.499 271.461 391.921 271.545 392.286 271.712C392.654 271.88 392.943 272.111 393.155 272.405C393.366 272.697 393.477 273.033 393.486 273.412H392.459Z" fill="black" fill-opacity="0.5"/>
<path d="M427.13 273.412C427.093 273.086 426.941 272.833 426.675 272.654C426.408 272.472 426.073 272.381 425.668 272.381C425.379 272.381 425.128 272.427 424.917 272.519C424.705 272.609 424.541 272.733 424.424 272.891C424.309 273.048 424.251 273.226 424.251 273.426C424.251 273.594 424.29 273.738 424.368 273.86C424.449 273.982 424.554 274.084 424.682 274.167C424.813 274.247 424.953 274.315 425.103 274.37C425.252 274.423 425.396 274.467 425.534 274.501L426.223 274.681C426.448 274.736 426.679 274.811 426.916 274.905C427.153 274.999 427.372 275.123 427.575 275.277C427.777 275.431 427.94 275.622 428.064 275.849C428.191 276.077 428.254 276.349 428.254 276.666C428.254 277.066 428.15 277.421 427.943 277.732C427.739 278.042 427.441 278.287 427.051 278.466C426.662 278.645 426.192 278.735 425.641 278.735C425.112 278.735 424.655 278.651 424.269 278.483C423.882 278.315 423.58 278.078 423.362 277.77C423.143 277.459 423.023 277.092 423 276.666H424.069C424.089 276.922 424.172 277.134 424.317 277.304C424.464 277.472 424.651 277.597 424.879 277.68C425.109 277.76 425.36 277.801 425.634 277.801C425.935 277.801 426.203 277.754 426.437 277.659C426.674 277.563 426.86 277.429 426.995 277.259C427.131 277.087 427.199 276.886 427.199 276.656C427.199 276.447 427.139 276.276 427.02 276.142C426.902 276.009 426.743 275.899 426.54 275.811C426.34 275.724 426.114 275.647 425.861 275.58L425.027 275.353C424.462 275.199 424.013 274.973 423.682 274.674C423.354 274.375 423.189 273.98 423.189 273.488C423.189 273.081 423.3 272.726 423.52 272.423C423.741 272.119 424.04 271.884 424.417 271.716C424.794 271.546 425.219 271.461 425.692 271.461C426.17 271.461 426.592 271.545 426.958 271.712C427.325 271.88 427.615 272.111 427.826 272.405C428.038 272.697 428.148 273.033 428.157 273.412H427.13Z" fill="black" fill-opacity="0.5"/>
</g>
</g>
<rect x="21" y="400" width="590" height="150" rx="16.262" fill="#F4A1E2"/>
<path d="M83.4736 445.083C85.4611 445.083 87.2048 445.471 88.7045 446.248C90.2223 447.025 91.3877 448.136 92.2008 449.582C93.032 451.009 93.4476 452.672 93.4476 454.569C93.4476 456.466 93.032 458.128 92.2008 459.556C91.3877 460.965 90.2223 462.058 88.7045 462.835C87.2048 463.612 85.4611 464.001 83.4736 464.001H76.8604V445.083H83.4736ZM83.338 460.776C85.3256 460.776 86.8615 460.233 87.9456 459.149C89.0297 458.065 89.5718 456.538 89.5718 454.569C89.5718 452.599 89.0297 451.064 87.9456 449.961C86.8615 448.841 85.3256 448.281 83.338 448.281H80.6548V460.776H83.338ZM94.7701 456.439C94.7701 454.921 95.0683 453.575 95.6645 452.401C96.2789 451.226 97.101 450.323 98.1309 449.69C99.1789 449.058 100.344 448.742 101.627 448.742C102.748 448.742 103.723 448.968 104.554 449.419C105.404 449.871 106.081 450.44 106.587 451.127V448.986H110.409V464.001H106.587V461.805C106.099 462.51 105.422 463.097 104.554 463.567C103.705 464.019 102.72 464.245 101.6 464.245C100.335 464.245 99.1789 463.92 98.1309 463.269C97.101 462.619 96.2789 461.706 95.6645 460.532C95.0683 459.339 94.7701 457.975 94.7701 456.439ZM106.587 456.493C106.587 455.572 106.406 454.786 106.045 454.135C105.684 453.467 105.196 452.961 104.582 452.617C103.967 452.256 103.308 452.075 102.603 452.075C101.898 452.075 101.248 452.247 100.652 452.59C100.055 452.934 99.5674 453.44 99.188 454.108C98.8266 454.759 98.6459 455.536 98.6459 456.439C98.6459 457.342 98.8266 458.138 99.188 458.824C99.5674 459.493 100.055 460.008 100.652 460.369C101.266 460.73 101.916 460.911 102.603 460.911C103.308 460.911 103.967 460.739 104.582 460.396C105.196 460.035 105.684 459.529 106.045 458.878C106.406 458.21 106.587 457.415 106.587 456.493ZM117.99 452.103V459.366C117.99 459.872 118.108 460.243 118.343 460.477C118.596 460.694 119.011 460.803 119.59 460.803H121.351V464.001H118.966C115.768 464.001 114.169 462.447 114.169 459.339V452.103H112.38V448.986H114.169V445.272H117.99V448.986H121.351V452.103H117.99ZM122.563 456.439C122.563 454.921 122.861 453.575 123.457 452.401C124.071 451.226 124.894 450.323 125.923 449.69C126.971 449.058 128.137 448.742 129.42 448.742C130.54 448.742 131.516 448.968 132.347 449.419C133.196 449.871 133.874 450.44 134.38 451.127V448.986H138.201V464.001H134.38V461.805C133.892 462.51 133.214 463.097 132.347 463.567C131.498 464.019 130.513 464.245 129.393 464.245C128.128 464.245 126.971 463.92 125.923 463.269C124.894 462.619 124.071 461.706 123.457 460.532C122.861 459.339 122.563 457.975 122.563 456.439ZM134.38 456.493C134.38 455.572 134.199 454.786 133.838 454.135C133.476 453.467 132.988 452.961 132.374 452.617C131.76 452.256 131.1 452.075 130.395 452.075C129.691 452.075 129.04 452.247 128.444 452.59C127.848 452.934 127.36 453.44 126.98 454.108C126.619 454.759 126.438 455.536 126.438 456.439C126.438 457.342 126.619 458.138 126.98 458.824C127.36 459.493 127.848 460.008 128.444 460.369C129.058 460.73 129.709 460.911 130.395 460.911C131.1 460.911 131.76 460.739 132.374 460.396C132.988 460.035 133.476 459.529 133.838 458.878C134.199 458.21 134.38 457.415 134.38 456.493ZM152.911 452.726V455.924H141.419V452.726H152.911ZM163.238 445.083C165.225 445.083 166.969 445.471 168.469 446.248C169.986 447.025 171.152 448.136 171.965 449.582C172.796 451.009 173.212 452.672 173.212 454.569C173.212 456.466 172.796 458.128 171.965 459.556C171.152 460.965 169.986 462.058 168.469 462.835C166.969 463.612 165.225 464.001 163.238 464.001H156.624V445.083H163.238ZM163.102 460.776C165.09 460.776 166.626 460.233 167.71 459.149C168.794 458.065 169.336 456.538 169.336 454.569C169.336 452.599 168.794 451.064 167.71 449.961C166.626 448.841 165.09 448.281 163.102 448.281H160.419V460.776H163.102ZM179.304 451.317C179.792 450.521 180.425 449.898 181.202 449.446C181.997 448.995 182.9 448.769 183.912 448.769V452.753H182.909C181.717 452.753 180.813 453.033 180.199 453.593C179.603 454.153 179.304 455.129 179.304 456.52V464.001H175.51V448.986H179.304V451.317ZM187.85 447.197C187.181 447.197 186.621 446.989 186.17 446.573C185.736 446.14 185.519 445.607 185.519 444.974C185.519 444.342 185.736 443.818 186.17 443.402C186.621 442.969 187.181 442.752 187.85 442.752C188.519 442.752 189.07 442.969 189.503 443.402C189.955 443.818 190.181 444.342 190.181 444.974C190.181 445.607 189.955 446.14 189.503 446.573C189.07 446.989 188.519 447.197 187.85 447.197ZM189.72 448.986V464.001H185.926V448.986H189.72ZM199.188 460.505L202.982 448.986H207.021L201.465 464.001H196.857L191.328 448.986H195.393L199.188 460.505ZM222.568 456.168C222.568 456.71 222.532 457.198 222.46 457.632H211.483C211.573 458.716 211.953 459.565 212.621 460.179C213.29 460.794 214.112 461.101 215.088 461.101C216.497 461.101 217.5 460.495 218.096 459.285H222.189C221.755 460.73 220.924 461.923 219.695 462.863C218.466 463.784 216.958 464.245 215.169 464.245C213.723 464.245 212.422 463.929 211.266 463.296C210.128 462.646 209.233 461.733 208.583 460.559C207.95 459.384 207.634 458.029 207.634 456.493C207.634 454.939 207.95 453.575 208.583 452.401C209.215 451.226 210.101 450.323 211.239 449.69C212.377 449.058 213.687 448.742 215.169 448.742C216.596 448.742 217.87 449.049 218.99 449.663C220.129 450.278 221.005 451.154 221.619 452.292C222.252 453.413 222.568 454.704 222.568 456.168ZM218.638 455.084C218.62 454.108 218.268 453.331 217.581 452.753C216.894 452.157 216.054 451.859 215.06 451.859C214.121 451.859 213.326 452.148 212.675 452.726C212.043 453.286 211.654 454.072 211.51 455.084H218.638ZM233.116 448.769C234.905 448.769 236.351 449.338 237.453 450.476C238.555 451.597 239.106 453.169 239.106 455.192V464.001H235.312V455.707C235.312 454.515 235.014 453.602 234.417 452.97C233.821 452.319 233.008 451.994 231.978 451.994C230.93 451.994 230.099 452.319 229.484 452.97C228.888 453.602 228.59 454.515 228.59 455.707V464.001H224.796V448.986H228.59V450.856C229.096 450.205 229.737 449.699 230.514 449.338C231.309 448.959 232.177 448.769 233.116 448.769ZM251.883 445.083V464.001H248.089V445.083H251.883ZM263.411 448.769C265.199 448.769 266.645 449.338 267.747 450.476C268.849 451.597 269.4 453.169 269.4 455.192V464.001H265.606V455.707C265.606 454.515 265.308 453.602 264.712 452.97C264.115 452.319 263.302 451.994 262.272 451.994C261.224 451.994 260.393 452.319 259.779 452.97C259.182 453.602 258.884 454.515 258.884 455.707V464.001H255.09V448.986H258.884V450.856C259.39 450.205 260.032 449.699 260.809 449.338C261.604 448.959 262.471 448.769 263.411 448.769ZM278.213 464.245C276.984 464.245 275.882 464.028 274.906 463.594C273.93 463.143 273.153 462.537 272.575 461.778C272.015 461.019 271.708 460.179 271.654 459.258H275.475C275.547 459.836 275.827 460.315 276.315 460.694C276.821 461.074 277.445 461.263 278.185 461.263C278.908 461.263 279.468 461.119 279.866 460.83C280.281 460.541 280.489 460.17 280.489 459.719C280.489 459.231 280.236 458.869 279.73 458.634C279.242 458.381 278.456 458.11 277.372 457.821C276.252 457.55 275.331 457.27 274.608 456.981C273.903 456.692 273.289 456.249 272.765 455.653C272.259 455.057 272.006 454.253 272.006 453.241C272.006 452.41 272.241 451.651 272.711 450.964C273.198 450.278 273.885 449.735 274.77 449.338C275.674 448.94 276.731 448.742 277.942 448.742C279.73 448.742 281.158 449.193 282.224 450.097C283.29 450.982 283.877 452.184 283.986 453.702H280.354C280.3 453.105 280.047 452.636 279.595 452.292C279.161 451.931 278.574 451.75 277.833 451.75C277.146 451.75 276.613 451.877 276.234 452.13C275.873 452.383 275.692 452.735 275.692 453.187C275.692 453.693 275.945 454.081 276.451 454.352C276.957 454.605 277.743 454.867 278.809 455.138C279.893 455.409 280.787 455.689 281.492 455.978C282.197 456.267 282.802 456.719 283.308 457.333C283.832 457.93 284.103 458.725 284.121 459.719C284.121 460.586 283.877 461.363 283.389 462.049C282.919 462.736 282.233 463.278 281.329 463.676C280.444 464.055 279.405 464.245 278.213 464.245ZM288.618 447.197C287.95 447.197 287.389 446.989 286.938 446.573C286.504 446.14 286.287 445.607 286.287 444.974C286.287 444.342 286.504 443.818 286.938 443.402C287.389 442.969 287.95 442.752 288.618 442.752C289.287 442.752 289.838 442.969 290.271 443.402C290.723 443.818 290.949 444.342 290.949 444.974C290.949 445.607 290.723 446.14 290.271 446.573C289.838 446.989 289.287 447.197 288.618 447.197ZM290.488 448.986V464.001H286.694V448.986H290.488ZM299.576 448.742C300.697 448.742 301.682 448.968 302.531 449.419C303.38 449.853 304.049 450.422 304.536 451.127V448.986H308.358V464.109C308.358 465.501 308.078 466.738 307.518 467.822C306.958 468.925 306.117 469.792 304.997 470.424C303.877 471.075 302.522 471.4 300.932 471.4C298.8 471.4 297.047 470.903 295.674 469.909C294.318 468.916 293.551 467.56 293.37 465.844H297.137C297.336 466.53 297.761 467.073 298.411 467.47C299.08 467.886 299.884 468.093 300.823 468.093C301.925 468.093 302.82 467.759 303.506 467.091C304.193 466.44 304.536 465.446 304.536 464.109V461.778C304.049 462.483 303.371 463.07 302.504 463.54C301.654 464.01 300.679 464.245 299.576 464.245C298.312 464.245 297.155 463.92 296.107 463.269C295.059 462.619 294.228 461.706 293.614 460.532C293.017 459.339 292.719 457.975 292.719 456.439C292.719 454.921 293.017 453.575 293.614 452.401C294.228 451.226 295.05 450.323 296.08 449.69C297.128 449.058 298.294 448.742 299.576 448.742ZM304.536 456.493C304.536 455.572 304.356 454.786 303.994 454.135C303.633 453.467 303.145 452.961 302.531 452.617C301.916 452.256 301.257 452.075 300.552 452.075C299.848 452.075 299.197 452.247 298.601 452.59C298.004 452.934 297.517 453.44 297.137 454.108C296.776 454.759 296.595 455.536 296.595 456.439C296.595 457.342 296.776 458.138 297.137 458.824C297.517 459.493 298.004 460.008 298.601 460.369C299.215 460.73 299.866 460.911 300.552 460.911C301.257 460.911 301.916 460.739 302.531 460.396C303.145 460.035 303.633 459.529 303.994 458.878C304.356 458.21 304.536 457.415 304.536 456.493ZM319.978 448.769C321.116 448.769 322.128 449.022 323.014 449.528C323.899 450.016 324.586 450.747 325.073 451.723C325.579 452.681 325.832 453.837 325.832 455.192V464.001H322.038V455.707C322.038 454.515 321.74 453.602 321.144 452.97C320.547 452.319 319.734 451.994 318.704 451.994C317.656 451.994 316.825 452.319 316.211 452.97C315.614 453.602 315.316 454.515 315.316 455.707V464.001H311.522V443.944H315.316V450.856C315.804 450.205 316.455 449.699 317.268 449.338C318.081 448.959 318.984 448.769 319.978 448.769ZM333.316 452.103V459.366C333.316 459.872 333.434 460.243 333.669 460.477C333.922 460.694 334.337 460.803 334.916 460.803H336.677V464.001H334.292C331.094 464.001 329.495 462.447 329.495 459.339V452.103H327.706V448.986H329.495V445.272H333.316V448.986H336.677V452.103H333.316ZM344.61 464.245C343.382 464.245 342.279 464.028 341.304 463.594C340.328 463.143 339.551 462.537 338.973 461.778C338.413 461.019 338.105 460.179 338.051 459.258H341.873C341.945 459.836 342.225 460.315 342.713 460.694C343.219 461.074 343.842 461.263 344.583 461.263C345.306 461.263 345.866 461.119 346.264 460.83C346.679 460.541 346.887 460.17 346.887 459.719C346.887 459.231 346.634 458.869 346.128 458.634C345.64 458.381 344.854 458.11 343.77 457.821C342.65 457.55 341.728 457.27 341.006 456.981C340.301 456.692 339.687 456.249 339.163 455.653C338.657 455.057 338.404 454.253 338.404 453.241C338.404 452.41 338.639 451.651 339.108 450.964C339.596 450.278 340.283 449.735 341.168 449.338C342.072 448.94 343.129 448.742 344.339 448.742C346.128 448.742 347.556 449.193 348.622 450.097C349.688 450.982 350.275 452.184 350.383 453.702H346.751C346.697 453.105 346.444 452.636 345.993 452.292C345.559 451.931 344.972 451.75 344.231 451.75C343.544 451.75 343.011 451.877 342.632 452.13C342.27 452.383 342.09 452.735 342.09 453.187C342.09 453.693 342.343 454.081 342.849 454.352C343.354 454.605 344.14 454.867 345.207 455.138C346.291 455.409 347.185 455.689 347.89 455.978C348.594 456.267 349.2 456.719 349.706 457.333C350.23 457.93 350.501 458.725 350.519 459.719C350.519 460.586 350.275 461.363 349.787 462.049C349.317 462.736 348.631 463.278 347.727 463.676C346.842 464.055 345.803 464.245 344.61 464.245Z" fill="white"/>
<path d="M76.0168 502.378V489.287H80.683C81.6972 489.287 82.5388 489.462 83.2079 489.811C83.8812 490.161 84.384 490.645 84.7164 491.262C85.0488 491.876 85.215 492.586 85.215 493.391C85.215 494.192 85.0467 494.897 84.71 495.507C84.3776 496.112 83.8748 496.583 83.2015 496.919C82.5324 497.256 81.6908 497.424 80.6766 497.424H77.1418V495.724H80.4976C81.1369 495.724 81.6567 495.632 82.0573 495.449C82.4621 495.266 82.7583 495 82.9458 494.65C83.1333 494.301 83.2271 493.881 83.2271 493.391C83.2271 492.897 83.1312 492.468 82.9394 492.106C82.7519 491.744 82.4557 491.467 82.0509 491.275C81.6503 491.079 81.1241 490.981 80.4721 490.981H77.992V502.378H76.0168ZM82.4792 496.472L85.7136 502.378H83.4636L80.2931 496.472H82.4792ZM91.5735 502.576C90.6061 502.576 89.773 502.37 89.0742 501.956C88.3796 501.539 87.8426 500.953 87.4634 500.198C87.0884 499.44 86.9009 498.551 86.9009 497.533C86.9009 496.527 87.0884 495.641 87.4634 494.874C87.8426 494.107 88.371 493.508 89.0486 493.078C89.7304 492.647 90.5273 492.432 91.4392 492.432C91.9932 492.432 92.5301 492.524 93.05 492.707C93.5699 492.89 94.0365 493.178 94.4499 493.57C94.8632 493.962 95.1892 494.471 95.4279 495.098C95.6665 495.72 95.7858 496.476 95.7858 497.367V498.044H87.9811V496.613H93.913C93.913 496.11 93.8107 495.664 93.6061 495.277C93.4016 494.885 93.1139 494.576 92.7432 494.35C92.3767 494.124 91.9463 494.011 91.452 494.011C90.9151 494.011 90.4463 494.143 90.0458 494.407C89.6495 494.667 89.3426 495.008 89.1253 495.43C88.9122 495.848 88.8057 496.301 88.8057 496.792V497.91C88.8057 498.566 88.9208 499.125 89.1509 499.585C89.3853 500.045 89.7112 500.397 90.1289 500.64C90.5465 500.878 91.0344 500.997 91.5926 500.997C91.9549 500.997 92.2851 500.946 92.5834 500.844C92.8817 500.738 93.1395 500.58 93.3568 500.371C93.5742 500.162 93.7404 499.904 93.8554 499.598L95.6644 499.924C95.5195 500.456 95.2595 500.923 94.8845 501.323C94.5138 501.72 94.0472 502.029 93.4847 502.25C92.9264 502.468 92.2894 502.576 91.5735 502.576ZM102.579 492.56V494.094H97.0307V492.56H102.579ZM98.552 502.378V491.422C98.552 490.809 98.6862 490.299 98.9547 489.895C99.2231 489.485 99.579 489.181 100.022 488.98C100.465 488.776 100.947 488.674 101.467 488.674C101.85 488.674 102.178 488.706 102.451 488.77C102.724 488.829 102.926 488.885 103.058 488.936L102.611 490.483C102.521 490.457 102.406 490.427 102.266 490.393C102.125 490.355 101.955 490.336 101.754 490.336C101.29 490.336 100.958 490.451 100.757 490.681C100.561 490.911 100.463 491.243 100.463 491.678V502.378H98.552ZM104.551 502.378V492.56H106.462V502.378H104.551ZM105.516 491.045C105.184 491.045 104.898 490.934 104.66 490.713C104.425 490.487 104.308 490.218 104.308 489.907C104.308 489.592 104.425 489.323 104.66 489.102C104.898 488.876 105.184 488.763 105.516 488.763C105.848 488.763 106.132 488.876 106.366 489.102C106.605 489.323 106.724 489.592 106.724 489.907C106.724 490.218 106.605 490.487 106.366 490.713C106.132 490.934 105.848 491.045 105.516 491.045ZM110.945 496.549V502.378H109.033V492.56H110.868V494.158H110.989C111.215 493.638 111.569 493.221 112.05 492.905C112.536 492.59 113.148 492.432 113.885 492.432C114.554 492.432 115.14 492.573 115.643 492.854C116.146 493.131 116.535 493.544 116.812 494.094C117.089 494.644 117.228 495.323 117.228 496.133V502.378H115.317V496.363C115.317 495.652 115.131 495.096 114.761 494.695C114.39 494.29 113.881 494.088 113.233 494.088C112.79 494.088 112.396 494.184 112.05 494.375C111.709 494.567 111.439 494.848 111.239 495.219C111.043 495.586 110.945 496.029 110.945 496.549ZM124.023 502.576C123.055 502.576 122.222 502.37 121.523 501.956C120.829 501.539 120.292 500.953 119.913 500.198C119.538 499.44 119.35 498.551 119.35 497.533C119.35 496.527 119.538 495.641 119.913 494.874C120.292 494.107 120.82 493.508 121.498 493.078C122.18 492.647 122.977 492.432 123.888 492.432C124.442 492.432 124.979 492.524 125.499 492.707C126.019 492.89 126.486 493.178 126.899 493.57C127.312 493.962 127.638 494.471 127.877 495.098C128.116 495.72 128.235 496.476 128.235 497.367V498.044H120.43V496.613H126.362C126.362 496.11 126.26 495.664 126.055 495.277C125.851 494.885 125.563 494.576 125.192 494.35C124.826 494.124 124.396 494.011 123.901 494.011C123.364 494.011 122.896 494.143 122.495 494.407C122.099 494.667 121.792 495.008 121.575 495.43C121.361 495.848 121.255 496.301 121.255 496.792V497.91C121.255 498.566 121.37 499.125 121.6 499.585C121.834 500.045 122.16 500.397 122.578 500.64C122.996 500.878 123.484 500.997 124.042 500.997C124.404 500.997 124.734 500.946 125.033 500.844C125.331 500.738 125.589 500.58 125.806 500.371C126.023 500.162 126.19 499.904 126.305 499.598L128.114 499.924C127.969 500.456 127.709 500.923 127.334 501.323C126.963 501.72 126.496 502.029 125.934 502.25C125.376 502.468 124.739 502.576 124.023 502.576ZM136.327 506.06C136.042 506.06 135.782 506.037 135.548 505.99C135.313 505.947 135.138 505.9 135.023 505.849L135.484 504.283C135.833 504.377 136.144 504.417 136.417 504.404C136.69 504.392 136.93 504.289 137.139 504.098C137.352 503.906 137.54 503.593 137.702 503.158L137.938 502.506L134.346 492.56H136.391L138.878 500.179H138.98L141.467 492.56H143.518L139.472 503.689C139.285 504.2 139.046 504.632 138.756 504.986C138.467 505.344 138.121 505.613 137.721 505.792C137.32 505.971 136.856 506.06 136.327 506.06ZM149.116 502.576C148.196 502.576 147.393 502.365 146.706 501.944C146.02 501.522 145.488 500.931 145.108 500.173C144.729 499.414 144.54 498.528 144.54 497.514C144.54 496.495 144.729 495.605 145.108 494.842C145.488 494.079 146.02 493.487 146.706 493.065C147.393 492.643 148.196 492.432 149.116 492.432C150.037 492.432 150.84 492.643 151.526 493.065C152.212 493.487 152.745 494.079 153.124 494.842C153.503 495.605 153.693 496.495 153.693 497.514C153.693 498.528 153.503 499.414 153.124 500.173C152.745 500.931 152.212 501.522 151.526 501.944C150.84 502.365 150.037 502.576 149.116 502.576ZM149.123 500.972C149.719 500.972 150.214 500.814 150.606 500.499C150.998 500.184 151.287 499.764 151.475 499.24C151.667 498.716 151.763 498.138 151.763 497.507C151.763 496.881 151.667 496.306 151.475 495.782C151.287 495.253 150.998 494.829 150.606 494.51C150.214 494.19 149.719 494.03 149.123 494.03C148.522 494.03 148.023 494.19 147.627 494.51C147.235 494.829 146.943 495.253 146.751 495.782C146.564 496.306 146.47 496.881 146.47 497.507C146.47 498.138 146.564 498.716 146.751 499.24C146.943 499.764 147.235 500.184 147.627 500.499C148.023 500.814 148.522 500.972 149.123 500.972ZM162.046 498.306V492.56H163.963V502.378H162.084V500.678H161.982C161.756 501.202 161.394 501.639 160.895 501.988C160.401 502.333 159.785 502.506 159.048 502.506C158.417 502.506 157.859 502.368 157.373 502.091C156.892 501.809 156.512 501.394 156.235 500.844C155.963 500.294 155.826 499.615 155.826 498.805V492.56H157.738V498.575C157.738 499.244 157.923 499.777 158.294 500.173C158.664 500.569 159.146 500.767 159.738 500.767C160.096 500.767 160.452 500.678 160.806 500.499C161.164 500.32 161.46 500.049 161.694 499.687C161.933 499.325 162.05 498.865 162.046 498.306ZM166.531 502.378V492.56H168.379V494.12H168.481C168.66 493.591 168.975 493.176 169.427 492.873C169.883 492.566 170.399 492.413 170.974 492.413C171.093 492.413 171.234 492.417 171.396 492.426C171.562 492.434 171.692 492.445 171.786 492.458V494.286C171.709 494.265 171.573 494.241 171.377 494.216C171.181 494.186 170.985 494.171 170.788 494.171C170.337 494.171 169.934 494.267 169.58 494.458C169.231 494.646 168.954 494.908 168.749 495.245C168.545 495.577 168.443 495.956 168.443 496.382V502.378H166.531ZM185.561 494.957L183.828 495.264C183.756 495.042 183.641 494.831 183.483 494.631C183.33 494.431 183.121 494.267 182.857 494.139C182.592 494.011 182.262 493.947 181.866 493.947C181.325 493.947 180.873 494.069 180.511 494.311C180.149 494.55 179.967 494.859 179.967 495.238C179.967 495.566 180.089 495.831 180.332 496.031C180.575 496.231 180.967 496.395 181.508 496.523L183.068 496.881C183.971 497.09 184.644 497.412 185.087 497.846C185.531 498.281 185.752 498.846 185.752 499.54C185.752 500.128 185.582 500.652 185.241 501.113C184.904 501.569 184.433 501.926 183.828 502.186C183.227 502.446 182.531 502.576 181.738 502.576C180.639 502.576 179.742 502.342 179.047 501.873C178.352 501.4 177.926 500.729 177.769 499.86L179.616 499.578C179.731 500.06 179.967 500.424 180.325 500.671C180.683 500.914 181.15 501.036 181.725 501.036C182.352 501.036 182.852 500.906 183.227 500.646C183.602 500.382 183.79 500.06 183.79 499.681C183.79 499.374 183.675 499.116 183.445 498.907C183.219 498.698 182.872 498.541 182.403 498.434L180.741 498.07C179.825 497.861 179.147 497.529 178.708 497.073C178.274 496.617 178.056 496.039 178.056 495.341C178.056 494.761 178.218 494.254 178.542 493.819C178.866 493.385 179.313 493.046 179.884 492.803C180.455 492.556 181.11 492.432 181.847 492.432C182.908 492.432 183.743 492.662 184.352 493.122C184.962 493.578 185.364 494.19 185.561 494.957ZM192.437 492.56V494.094H187.074V492.56H192.437ZM188.512 490.208H190.423V499.495C190.423 499.866 190.479 500.145 190.589 500.333C190.7 500.516 190.843 500.642 191.018 500.71C191.197 500.774 191.391 500.806 191.599 500.806C191.753 500.806 191.887 500.795 192.002 500.774C192.117 500.752 192.207 500.735 192.271 500.723L192.616 502.301C192.505 502.344 192.347 502.387 192.143 502.429C191.938 502.476 191.682 502.502 191.376 502.506C190.873 502.515 190.404 502.425 189.969 502.238C189.535 502.05 189.183 501.76 188.915 501.368C188.646 500.976 188.512 500.484 188.512 499.892V490.208ZM194.551 502.378V492.56H196.398V494.12H196.5C196.679 493.591 196.995 493.176 197.447 492.873C197.902 492.566 198.418 492.413 198.993 492.413C199.113 492.413 199.253 492.417 199.415 492.426C199.581 492.434 199.711 492.445 199.805 492.458V494.286C199.728 494.265 199.592 494.241 199.396 494.216C199.2 494.186 199.004 494.171 198.808 494.171C198.356 494.171 197.954 494.267 197.6 494.458C197.25 494.646 196.973 494.908 196.769 495.245C196.564 495.577 196.462 495.956 196.462 496.382V502.378H194.551ZM204.228 502.596C203.606 502.596 203.044 502.48 202.541 502.25C202.038 502.016 201.64 501.677 201.346 501.234C201.056 500.791 200.911 500.247 200.911 499.604C200.911 499.05 201.018 498.594 201.231 498.236C201.444 497.878 201.731 497.595 202.094 497.386C202.456 497.177 202.861 497.02 203.308 496.913C203.755 496.806 204.211 496.725 204.676 496.67C205.264 496.602 205.741 496.546 206.108 496.504C206.474 496.457 206.741 496.382 206.907 496.28C207.073 496.178 207.156 496.012 207.156 495.782V495.737C207.156 495.179 206.998 494.746 206.683 494.439C206.372 494.132 205.907 493.979 205.29 493.979C204.646 493.979 204.139 494.122 203.768 494.407C203.402 494.689 203.148 495.002 203.008 495.347L201.211 494.938C201.424 494.341 201.736 493.86 202.145 493.493C202.558 493.122 203.033 492.854 203.57 492.688C204.107 492.517 204.672 492.432 205.264 492.432C205.656 492.432 206.072 492.479 206.51 492.573C206.954 492.662 207.367 492.828 207.75 493.071C208.138 493.314 208.456 493.662 208.703 494.113C208.95 494.561 209.074 495.142 209.074 495.858V502.378H207.207V501.036H207.13C207.007 501.283 206.822 501.526 206.574 501.765C206.327 502.003 206.01 502.201 205.622 502.359C205.234 502.517 204.77 502.596 204.228 502.596ZM204.644 501.061C205.172 501.061 205.624 500.957 205.999 500.748C206.378 500.539 206.666 500.267 206.862 499.93C207.062 499.589 207.162 499.225 207.162 498.837V497.571C207.094 497.64 206.962 497.703 206.766 497.763C206.574 497.819 206.355 497.868 206.108 497.91C205.861 497.948 205.62 497.985 205.385 498.019C205.151 498.049 204.955 498.074 204.797 498.096C204.427 498.142 204.088 498.221 203.781 498.332C203.478 498.443 203.236 498.603 203.052 498.811C202.873 499.016 202.784 499.289 202.784 499.63C202.784 500.103 202.959 500.461 203.308 500.703C203.657 500.942 204.103 501.061 204.644 501.061ZM216.202 492.56V494.094H210.839V492.56H216.202ZM212.278 490.208H214.189V499.495C214.189 499.866 214.244 500.145 214.355 500.333C214.466 500.516 214.609 500.642 214.783 500.71C214.962 500.774 215.156 500.806 215.365 500.806C215.518 500.806 215.653 500.795 215.768 500.774C215.883 500.752 215.972 500.735 216.036 500.723L216.381 502.301C216.271 502.344 216.113 502.387 215.908 502.429C215.704 502.476 215.448 502.502 215.141 502.506C214.638 502.515 214.17 502.425 213.735 502.238C213.3 502.05 212.949 501.76 212.68 501.368C212.412 500.976 212.278 500.484 212.278 499.892V490.208ZM222.443 502.576C221.475 502.576 220.642 502.37 219.943 501.956C219.249 501.539 218.712 500.953 218.333 500.198C217.958 499.44 217.77 498.551 217.77 497.533C217.77 496.527 217.958 495.641 218.333 494.874C218.712 494.107 219.24 493.508 219.918 493.078C220.6 492.647 221.396 492.432 222.308 492.432C222.862 492.432 223.399 492.524 223.919 492.707C224.439 492.89 224.906 493.178 225.319 493.57C225.732 493.962 226.058 494.471 226.297 495.098C226.536 495.72 226.655 496.476 226.655 497.367V498.044H218.85V496.613H224.782C224.782 496.11 224.68 495.664 224.475 495.277C224.271 494.885 223.983 494.576 223.612 494.35C223.246 494.124 222.815 494.011 222.321 494.011C221.784 494.011 221.315 494.143 220.915 494.407C220.519 494.667 220.212 495.008 219.994 495.43C219.781 495.848 219.675 496.301 219.675 496.792V497.91C219.675 498.566 219.79 499.125 220.02 499.585C220.254 500.045 220.58 500.397 220.998 500.64C221.416 500.878 221.904 500.997 222.462 500.997C222.824 500.997 223.154 500.946 223.453 500.844C223.751 500.738 224.009 500.58 224.226 500.371C224.443 500.162 224.61 499.904 224.725 499.598L226.534 499.924C226.389 500.456 226.129 500.923 225.754 501.323C225.383 501.72 224.916 502.029 224.354 502.25C223.796 502.468 223.159 502.576 222.443 502.576ZM232.892 506.265C232.112 506.265 231.441 506.162 230.879 505.958C230.32 505.753 229.864 505.483 229.511 505.146C229.157 504.809 228.893 504.441 228.718 504.04L230.361 503.363C230.476 503.55 230.629 503.748 230.821 503.957C231.017 504.17 231.281 504.351 231.614 504.5C231.95 504.649 232.383 504.724 232.911 504.724C233.636 504.724 234.234 504.547 234.707 504.194C235.18 503.844 235.417 503.286 235.417 502.519V500.588H235.295C235.18 500.797 235.014 501.029 234.797 501.285C234.584 501.541 234.29 501.762 233.915 501.95C233.54 502.137 233.052 502.231 232.451 502.231C231.675 502.231 230.977 502.05 230.354 501.688C229.736 501.321 229.246 500.782 228.884 500.071C228.526 499.355 228.347 498.475 228.347 497.431C228.347 496.387 228.524 495.492 228.878 494.746C229.236 494 229.726 493.429 230.348 493.033C230.97 492.632 231.675 492.432 232.464 492.432C233.073 492.432 233.565 492.534 233.94 492.739C234.315 492.939 234.607 493.174 234.816 493.442C235.029 493.711 235.193 493.947 235.308 494.152H235.449V492.56H237.322V502.596C237.322 503.439 237.126 504.132 236.734 504.673C236.342 505.214 235.811 505.615 235.142 505.875C234.477 506.135 233.727 506.265 232.892 506.265ZM232.873 500.646C233.423 500.646 233.887 500.518 234.266 500.262C234.65 500.002 234.94 499.632 235.136 499.15C235.336 498.664 235.436 498.083 235.436 497.405C235.436 496.745 235.338 496.163 235.142 495.66C234.946 495.157 234.658 494.765 234.279 494.484C233.9 494.198 233.431 494.056 232.873 494.056C232.298 494.056 231.818 494.205 231.435 494.503C231.051 494.797 230.761 495.198 230.565 495.705C230.374 496.212 230.278 496.779 230.278 497.405C230.278 498.049 230.376 498.613 230.572 499.099C230.768 499.585 231.057 499.964 231.441 500.237C231.829 500.51 232.306 500.646 232.873 500.646ZM239.885 502.378V492.56H241.796V502.378H239.885ZM240.85 491.045C240.518 491.045 240.232 490.934 239.994 490.713C239.759 490.487 239.642 490.218 239.642 489.907C239.642 489.592 239.759 489.323 239.994 489.102C240.232 488.876 240.518 488.763 240.85 488.763C241.182 488.763 241.466 488.876 241.7 489.102C241.939 489.323 242.058 489.592 242.058 489.907C242.058 490.218 241.939 490.487 241.7 490.713C241.466 490.934 241.182 491.045 240.85 491.045ZM248.599 502.576C247.632 502.576 246.798 502.37 246.1 501.956C245.405 501.539 244.868 500.953 244.489 500.198C244.114 499.44 243.926 498.551 243.926 497.533C243.926 496.527 244.114 495.641 244.489 494.874C244.868 494.107 245.396 493.508 246.074 493.078C246.756 492.647 247.553 492.432 248.465 492.432C249.019 492.432 249.556 492.524 250.075 492.707C250.595 492.89 251.062 493.178 251.475 493.57C251.889 493.962 252.215 494.471 252.453 495.098C252.692 495.72 252.811 496.476 252.811 497.367V498.044H245.007V496.613H250.938C250.938 496.11 250.836 495.664 250.632 495.277C250.427 494.885 250.139 494.576 249.769 494.35C249.402 494.124 248.972 494.011 248.477 494.011C247.94 494.011 247.472 494.143 247.071 494.407C246.675 494.667 246.368 495.008 246.151 495.43C245.938 495.848 245.831 496.301 245.831 496.792V497.91C245.831 498.566 245.946 499.125 246.176 499.585C246.411 500.045 246.737 500.397 247.154 500.64C247.572 500.878 248.06 500.997 248.618 500.997C248.98 500.997 249.311 500.946 249.609 500.844C249.907 500.738 250.165 500.58 250.382 500.371C250.6 500.162 250.766 499.904 250.881 499.598L252.69 499.924C252.545 500.456 252.285 500.923 251.91 501.323C251.539 501.72 251.073 502.029 250.51 502.25C249.952 502.468 249.315 502.576 248.599 502.576ZM262.289 494.957L260.557 495.264C260.484 495.042 260.369 494.831 260.212 494.631C260.058 494.431 259.849 494.267 259.585 494.139C259.321 494.011 258.991 493.947 258.594 493.947C258.053 493.947 257.602 494.069 257.239 494.311C256.877 494.55 256.696 494.859 256.696 495.238C256.696 495.566 256.817 495.831 257.06 496.031C257.303 496.231 257.695 496.395 258.236 496.523L259.796 496.881C260.7 497.09 261.373 497.412 261.816 497.846C262.259 498.281 262.481 498.846 262.481 499.54C262.481 500.128 262.31 500.652 261.969 501.113C261.633 501.569 261.162 501.926 260.557 502.186C259.956 502.446 259.259 502.576 258.467 502.576C257.367 502.576 256.47 502.342 255.776 501.873C255.081 501.4 254.655 500.729 254.497 499.86L256.344 499.578C256.459 500.06 256.696 500.424 257.054 500.671C257.412 500.914 257.879 501.036 258.454 501.036C259.08 501.036 259.581 500.906 259.956 500.646C260.331 500.382 260.518 500.06 260.518 499.681C260.518 499.374 260.403 499.116 260.173 498.907C259.947 498.698 259.6 498.541 259.131 498.434L257.469 498.07C256.553 497.861 255.876 497.529 255.437 497.073C255.002 496.617 254.785 496.039 254.785 495.341C254.785 494.761 254.947 494.254 255.271 493.819C255.594 493.385 256.042 493.046 256.613 492.803C257.184 492.556 257.838 492.432 258.575 492.432C259.636 492.432 260.472 492.662 261.081 493.122C261.69 493.578 262.093 494.19 262.289 494.957ZM273.577 502.576C272.61 502.576 271.777 502.37 271.078 501.956C270.383 501.539 269.847 500.953 269.467 500.198C269.092 499.44 268.905 498.551 268.905 497.533C268.905 496.527 269.092 495.641 269.467 494.874C269.847 494.107 270.375 493.508 271.053 493.078C271.734 492.647 272.531 492.432 273.443 492.432C273.997 492.432 274.534 492.524 275.054 492.707C275.574 492.89 276.04 493.178 276.454 493.57C276.867 493.962 277.193 494.471 277.432 495.098C277.67 495.72 277.79 496.476 277.79 497.367V498.044H269.985V496.613H275.917C275.917 496.11 275.815 495.664 275.61 495.277C275.405 494.885 275.118 494.576 274.747 494.35C274.381 494.124 273.95 494.011 273.456 494.011C272.919 494.011 272.45 494.143 272.05 494.407C271.653 494.667 271.347 495.008 271.129 495.43C270.916 495.848 270.81 496.301 270.81 496.792V497.91C270.81 498.566 270.925 499.125 271.155 499.585C271.389 500.045 271.715 500.397 272.133 500.64C272.55 500.878 273.038 500.997 273.597 500.997C273.959 500.997 274.289 500.946 274.587 500.844C274.886 500.738 275.143 500.58 275.361 500.371C275.578 500.162 275.744 499.904 275.859 499.598L277.668 499.924C277.523 500.456 277.263 500.923 276.888 501.323C276.518 501.72 276.051 502.029 275.489 502.25C274.93 502.468 274.293 502.576 273.577 502.576ZM282.768 502.596C282.145 502.596 281.583 502.48 281.08 502.25C280.577 502.016 280.179 501.677 279.885 501.234C279.595 500.791 279.45 500.247 279.45 499.604C279.45 499.05 279.557 498.594 279.77 498.236C279.983 497.878 280.27 497.595 280.633 497.386C280.995 497.177 281.4 497.02 281.847 496.913C282.295 496.806 282.75 496.725 283.215 496.67C283.803 496.602 284.28 496.546 284.647 496.504C285.013 496.457 285.28 496.382 285.446 496.28C285.612 496.178 285.695 496.012 285.695 495.782V495.737C285.695 495.179 285.537 494.746 285.222 494.439C284.911 494.132 284.447 493.979 283.829 493.979C283.185 493.979 282.678 494.122 282.307 494.407C281.941 494.689 281.687 495.002 281.547 495.347L279.75 494.938C279.964 494.341 280.275 493.86 280.684 493.493C281.097 493.122 281.572 492.854 282.109 492.688C282.646 492.517 283.211 492.432 283.803 492.432C284.195 492.432 284.611 492.479 285.049 492.573C285.493 492.662 285.906 492.828 286.29 493.071C286.677 493.314 286.995 493.662 287.242 494.113C287.489 494.561 287.613 495.142 287.613 495.858V502.378H285.746V501.036H285.67C285.546 501.283 285.361 501.526 285.113 501.765C284.866 502.003 284.549 502.201 284.161 502.359C283.773 502.517 283.309 502.596 282.768 502.596ZM283.183 501.061C283.711 501.061 284.163 500.957 284.538 500.748C284.917 500.539 285.205 500.267 285.401 499.93C285.601 499.589 285.701 499.225 285.701 498.837V497.571C285.633 497.64 285.501 497.703 285.305 497.763C285.113 497.819 284.894 497.868 284.647 497.91C284.4 497.948 284.159 497.985 283.924 498.019C283.69 498.049 283.494 498.074 283.336 498.096C282.966 498.142 282.627 498.221 282.32 498.332C282.018 498.443 281.775 498.603 281.591 498.811C281.412 499.016 281.323 499.289 281.323 499.63C281.323 500.103 281.498 500.461 281.847 500.703C282.197 500.942 282.642 501.061 283.183 501.061ZM297.516 494.957L295.783 495.264C295.711 495.042 295.596 494.831 295.438 494.631C295.285 494.431 295.076 494.267 294.812 494.139C294.548 494.011 294.217 493.947 293.821 493.947C293.28 493.947 292.828 494.069 292.466 494.311C292.104 494.55 291.923 494.859 291.923 495.238C291.923 495.566 292.044 495.831 292.287 496.031C292.53 496.231 292.922 496.395 293.463 496.523L295.023 496.881C295.926 497.09 296.599 497.412 297.043 497.846C297.486 498.281 297.707 498.846 297.707 499.54C297.707 500.128 297.537 500.652 297.196 501.113C296.859 501.569 296.388 501.926 295.783 502.186C295.182 502.446 294.486 502.576 293.693 502.576C292.594 502.576 291.697 502.342 291.002 501.873C290.307 501.4 289.881 500.729 289.724 499.86L291.571 499.578C291.686 500.06 291.923 500.424 292.28 500.671C292.638 500.914 293.105 501.036 293.68 501.036C294.307 501.036 294.807 500.906 295.182 500.646C295.557 500.382 295.745 500.06 295.745 499.681C295.745 499.374 295.63 499.116 295.4 498.907C295.174 498.698 294.827 498.541 294.358 498.434L292.696 498.07C291.78 497.861 291.102 497.529 290.663 497.073C290.229 496.617 290.011 496.039 290.011 495.341C290.011 494.761 290.173 494.254 290.497 493.819C290.821 493.385 291.268 493.046 291.839 492.803C292.41 492.556 293.065 492.432 293.802 492.432C294.863 492.432 295.698 492.662 296.307 493.122C296.917 493.578 297.32 494.19 297.516 494.957ZM299.809 502.378V492.56H301.72V502.378H299.809ZM300.774 491.045C300.442 491.045 300.156 490.934 299.917 490.713C299.683 490.487 299.566 490.218 299.566 489.907C299.566 489.592 299.683 489.323 299.917 489.102C300.156 488.876 300.442 488.763 300.774 488.763C301.106 488.763 301.39 488.876 301.624 489.102C301.863 489.323 301.982 489.592 301.982 489.907C301.982 490.218 301.863 490.487 301.624 490.713C301.39 490.934 301.106 491.045 300.774 491.045ZM306.202 489.287V502.378H304.291V489.287H306.202ZM309.982 506.06C309.696 506.06 309.436 506.037 309.202 505.99C308.967 505.947 308.793 505.9 308.678 505.849L309.138 504.283C309.487 504.377 309.798 504.417 310.071 504.404C310.344 504.392 310.585 504.289 310.793 504.098C311.007 503.906 311.194 503.593 311.356 503.158L311.592 502.506L308 492.56H310.046L312.532 500.179H312.634L315.121 492.56H317.173L313.127 503.689C312.939 504.2 312.7 504.632 312.411 504.986C312.121 505.344 311.776 505.613 311.375 505.792C310.975 505.971 310.51 506.06 309.982 506.06ZM325.861 502.378L322.972 492.56H324.947L326.871 499.77H326.967L328.897 492.56H330.872L332.79 499.738H332.886L334.797 492.56H336.772L333.89 502.378H331.94L329.946 495.289H329.799L327.804 502.378H325.861ZM338.586 502.378V492.56H340.497V502.378H338.586ZM339.551 491.045C339.219 491.045 338.933 490.934 338.695 490.713C338.46 490.487 338.343 490.218 338.343 489.907C338.343 489.592 338.46 489.323 338.695 489.102C338.933 488.876 339.219 488.763 339.551 488.763C339.884 488.763 340.167 488.876 340.401 489.102C340.64 489.323 340.759 489.592 340.759 489.907C340.759 490.218 340.64 490.487 340.401 490.713C340.167 490.934 339.884 491.045 339.551 491.045ZM347.652 492.56V494.094H342.289V492.56H347.652ZM343.727 490.208H345.638V499.495C345.638 499.866 345.693 500.145 345.804 500.333C345.915 500.516 346.058 500.642 346.233 500.71C346.412 500.774 346.605 500.806 346.814 500.806C346.968 500.806 347.102 500.795 347.217 500.774C347.332 500.752 347.421 500.735 347.485 500.723L347.831 502.301C347.72 502.344 347.562 502.387 347.358 502.429C347.153 502.476 346.897 502.502 346.591 502.506C346.088 502.515 345.619 502.425 345.184 502.238C344.75 502.05 344.398 501.76 344.13 501.368C343.861 500.976 343.727 500.484 343.727 499.892V490.208ZM351.888 496.549V502.378H349.977V489.287H351.862V494.158H351.984C352.214 493.63 352.565 493.21 353.038 492.899C353.511 492.588 354.129 492.432 354.892 492.432C355.565 492.432 356.154 492.571 356.656 492.848C357.163 493.125 357.556 493.538 357.833 494.088C358.114 494.633 358.254 495.315 358.254 496.133V502.378H356.343V496.363C356.343 495.643 356.158 495.085 355.787 494.689C355.416 494.288 354.901 494.088 354.24 494.088C353.788 494.088 353.384 494.184 353.026 494.375C352.672 494.567 352.393 494.848 352.188 495.219C351.988 495.586 351.888 496.029 351.888 496.549ZM369.704 502.576C368.784 502.576 367.98 502.365 367.294 501.944C366.608 501.522 366.076 500.931 365.696 500.173C365.317 499.414 365.127 498.528 365.127 497.514C365.127 496.495 365.317 495.605 365.696 494.842C366.076 494.079 366.608 493.487 367.294 493.065C367.98 492.643 368.784 492.432 369.704 492.432C370.625 492.432 371.428 492.643 372.114 493.065C372.8 493.487 373.333 494.079 373.712 494.842C374.091 495.605 374.281 496.495 374.281 497.514C374.281 498.528 374.091 499.414 373.712 500.173C373.333 500.931 372.8 501.522 372.114 501.944C371.428 502.365 370.625 502.576 369.704 502.576ZM369.711 500.972C370.307 500.972 370.801 500.814 371.193 500.499C371.586 500.184 371.875 499.764 372.063 499.24C372.255 498.716 372.35 498.138 372.35 497.507C372.35 496.881 372.255 496.306 372.063 495.782C371.875 495.253 371.586 494.829 371.193 494.51C370.801 494.19 370.307 494.03 369.711 494.03C369.11 494.03 368.611 494.19 368.215 494.51C367.823 494.829 367.531 495.253 367.339 495.782C367.152 496.306 367.058 496.881 367.058 497.507C367.058 498.138 367.152 498.716 367.339 499.24C367.531 499.764 367.823 500.184 368.215 500.499C368.611 500.814 369.11 500.972 369.711 500.972ZM382.634 498.306V492.56H384.551V502.378H382.672V500.678H382.57C382.344 501.202 381.982 501.639 381.483 501.988C380.989 502.333 380.373 502.506 379.636 502.506C379.005 502.506 378.447 502.368 377.961 502.091C377.48 501.809 377.1 501.394 376.823 500.844C376.551 500.294 376.414 499.615 376.414 498.805V492.56H378.325V498.575C378.325 499.244 378.511 499.777 378.882 500.173C379.252 500.569 379.734 500.767 380.326 500.767C380.684 500.767 381.04 500.678 381.394 500.499C381.752 500.32 382.048 500.049 382.282 499.687C382.521 499.325 382.638 498.865 382.634 498.306ZM387.119 502.378V492.56H388.967V494.12H389.069C389.248 493.591 389.563 493.176 390.015 492.873C390.471 492.566 390.986 492.413 391.562 492.413C391.681 492.413 391.822 492.417 391.984 492.426C392.15 492.434 392.28 492.445 392.374 492.458V494.286C392.297 494.265 392.16 494.241 391.964 494.216C391.768 494.186 391.572 494.171 391.376 494.171C390.925 494.171 390.522 494.267 390.168 494.458C389.819 494.646 389.542 494.908 389.337 495.245C389.133 495.577 389.03 495.956 389.03 496.382V502.378H387.119ZM398.945 502.378V489.287H403.611C404.625 489.287 405.467 489.462 406.136 489.811C406.809 490.161 407.312 490.645 407.644 491.262C407.977 491.876 408.143 492.586 408.143 493.391C408.143 494.192 407.974 494.897 407.638 495.507C407.305 496.112 406.803 496.583 406.129 496.919C405.46 497.256 404.619 497.424 403.604 497.424H400.07V495.724H403.425C404.065 495.724 404.584 495.632 404.985 495.449C405.39 495.266 405.686 495 405.874 494.65C406.061 494.301 406.155 493.881 406.155 493.391C406.155 492.897 406.059 492.468 405.867 492.106C405.68 491.744 405.383 491.467 404.979 491.275C404.578 491.079 404.052 490.981 403.4 490.981H400.92V502.378H398.945ZM405.407 496.472L408.641 502.378H406.391L403.221 496.472H405.407ZM414.501 502.576C413.534 502.576 412.701 502.37 412.002 501.956C411.307 501.539 410.77 500.953 410.391 500.198C410.016 499.44 409.829 498.551 409.829 497.533C409.829 496.527 410.016 495.641 410.391 494.874C410.77 494.107 411.299 493.508 411.976 493.078C412.658 492.647 413.455 492.432 414.367 492.432C414.921 492.432 415.458 492.524 415.978 492.707C416.498 492.89 416.964 493.178 417.378 493.57C417.791 493.962 418.117 494.471 418.356 495.098C418.594 495.72 418.714 496.476 418.714 497.367V498.044H410.909V496.613H416.841C416.841 496.11 416.738 495.664 416.534 495.277C416.329 494.885 416.042 494.576 415.671 494.35C415.304 494.124 414.874 494.011 414.38 494.011C413.843 494.011 413.374 494.143 412.973 494.407C412.577 494.667 412.27 495.008 412.053 495.43C411.84 495.848 411.733 496.301 411.733 496.792V497.91C411.733 498.566 411.848 499.125 412.079 499.585C412.313 500.045 412.639 500.397 413.057 500.64C413.474 500.878 413.962 500.997 414.52 500.997C414.883 500.997 415.213 500.946 415.511 500.844C415.809 500.738 416.067 500.58 416.285 500.371C416.502 500.162 416.668 499.904 416.783 499.598L418.592 499.924C418.447 500.456 418.187 500.923 417.812 501.323C417.442 501.72 416.975 502.029 416.412 502.25C415.854 502.468 415.217 502.576 414.501 502.576ZM420.834 506.06V492.56H422.701V494.152H422.86C422.971 493.947 423.131 493.711 423.34 493.442C423.549 493.174 423.838 492.939 424.209 492.739C424.58 492.534 425.07 492.432 425.679 492.432C426.472 492.432 427.179 492.632 427.801 493.033C428.424 493.434 428.912 494.011 429.265 494.765C429.623 495.52 429.802 496.427 429.802 497.488C429.802 498.549 429.625 499.459 429.272 500.218C428.918 500.972 428.432 501.554 427.814 501.963C427.196 502.368 426.491 502.57 425.698 502.57C425.102 502.57 424.614 502.47 424.235 502.27C423.86 502.069 423.566 501.835 423.353 501.566C423.14 501.298 422.975 501.059 422.86 500.85H422.745V506.06H420.834ZM422.707 497.469C422.707 498.159 422.807 498.765 423.007 499.284C423.208 499.804 423.497 500.211 423.877 500.505C424.256 500.795 424.72 500.94 425.27 500.94C425.841 500.94 426.318 500.789 426.702 500.486C427.086 500.179 427.375 499.764 427.571 499.24C427.772 498.716 427.872 498.125 427.872 497.469C427.872 496.821 427.774 496.24 427.578 495.724C427.386 495.208 427.096 494.801 426.708 494.503C426.325 494.205 425.845 494.056 425.27 494.056C424.716 494.056 424.247 494.198 423.864 494.484C423.485 494.77 423.197 495.168 423.001 495.679C422.805 496.191 422.707 496.787 422.707 497.469ZM436.079 502.576C435.159 502.576 434.355 502.365 433.669 501.944C432.983 501.522 432.451 500.931 432.071 500.173C431.692 499.414 431.502 498.528 431.502 497.514C431.502 496.495 431.692 495.605 432.071 494.842C432.451 494.079 432.983 493.487 433.669 493.065C434.355 492.643 435.159 492.432 436.079 492.432C437 492.432 437.803 492.643 438.489 493.065C439.175 493.487 439.708 494.079 440.087 494.842C440.466 495.605 440.656 496.495 440.656 497.514C440.656 498.528 440.466 499.414 440.087 500.173C439.708 500.931 439.175 501.522 438.489 501.944C437.803 502.365 437 502.576 436.079 502.576ZM436.086 500.972C436.682 500.972 437.176 500.814 437.568 500.499C437.961 500.184 438.25 499.764 438.438 499.24C438.63 498.716 438.725 498.138 438.725 497.507C438.725 496.881 438.63 496.306 438.438 495.782C438.25 495.253 437.961 494.829 437.568 494.51C437.176 494.19 436.682 494.03 436.086 494.03C435.485 494.03 434.986 494.19 434.59 494.51C434.198 494.829 433.906 495.253 433.714 495.782C433.527 496.306 433.433 496.881 433.433 497.507C433.433 498.138 433.527 498.716 433.714 499.24C433.906 499.764 434.198 500.184 434.59 500.499C434.986 500.814 435.485 500.972 436.086 500.972ZM442.789 502.378V492.56H444.636V494.12H444.739C444.918 493.591 445.233 493.176 445.685 492.873C446.141 492.566 446.656 492.413 447.232 492.413C447.351 492.413 447.492 492.417 447.654 492.426C447.82 492.434 447.95 492.445 448.043 492.458V494.286C447.967 494.265 447.83 494.241 447.634 494.216C447.438 494.186 447.242 494.171 447.046 494.171C446.595 494.171 446.192 494.267 445.838 494.458C445.489 494.646 445.212 494.908 445.007 495.245C444.803 495.577 444.7 495.956 444.7 496.382V502.378H442.789ZM454.861 492.56V494.094H449.498V492.56H454.861ZM450.936 490.208H452.847V499.495C452.847 499.866 452.902 500.145 453.013 500.333C453.124 500.516 453.267 500.642 453.442 500.71C453.621 500.774 453.814 500.806 454.023 500.806C454.177 500.806 454.311 500.795 454.426 500.774C454.541 500.752 454.63 500.735 454.694 500.723L455.04 502.301C454.929 502.344 454.771 502.387 454.567 502.429C454.362 502.476 454.106 502.502 453.799 502.506C453.297 502.515 452.828 502.425 452.393 502.238C451.959 502.05 451.607 501.76 451.339 501.368C451.07 500.976 450.936 500.484 450.936 499.892V490.208ZM464.174 494.957L462.442 495.264C462.369 495.042 462.254 494.831 462.096 494.631C461.943 494.431 461.734 494.267 461.47 494.139C461.206 494.011 460.875 493.947 460.479 493.947C459.938 493.947 459.486 494.069 459.124 494.311C458.762 494.55 458.581 494.859 458.581 495.238C458.581 495.566 458.702 495.831 458.945 496.031C459.188 496.231 459.58 496.395 460.121 496.523L461.681 496.881C462.584 497.09 463.258 497.412 463.701 497.846C464.144 498.281 464.366 498.846 464.366 499.54C464.366 500.128 464.195 500.652 463.854 501.113C463.518 501.569 463.047 501.926 462.442 502.186C461.841 502.446 461.144 502.576 460.351 502.576C459.252 502.576 458.355 502.342 457.66 501.873C456.966 501.4 456.54 500.729 456.382 499.86L458.229 499.578C458.344 500.06 458.581 500.424 458.939 500.671C459.297 500.914 459.763 501.036 460.339 501.036C460.965 501.036 461.466 500.906 461.841 500.646C462.216 500.382 462.403 500.06 462.403 499.681C462.403 499.374 462.288 499.116 462.058 498.907C461.832 498.698 461.485 498.541 461.016 498.434L459.354 498.07C458.438 497.861 457.76 497.529 457.322 497.073C456.887 496.617 456.67 496.039 456.67 495.341C456.67 494.761 456.831 494.254 457.155 493.819C457.479 493.385 457.927 493.046 458.498 492.803C459.069 492.556 459.723 492.432 460.46 492.432C461.521 492.432 462.356 492.662 462.966 493.122C463.575 493.578 463.978 494.19 464.174 494.957ZM475.814 492.56V494.094H470.451V492.56H475.814ZM471.889 490.208H473.8V499.495C473.8 499.866 473.856 500.145 473.966 500.333C474.077 500.516 474.22 500.642 474.395 500.71C474.574 500.774 474.768 500.806 474.976 500.806C475.13 500.806 475.264 500.795 475.379 500.774C475.494 500.752 475.584 500.735 475.648 500.723L475.993 502.301C475.882 502.344 475.724 502.387 475.52 502.429C475.315 502.476 475.059 502.502 474.753 502.506C474.25 502.515 473.781 502.425 473.346 502.238C472.912 502.05 472.56 501.76 472.292 501.368C472.023 500.976 471.889 500.484 471.889 499.892V490.208ZM481.958 502.576C481.038 502.576 480.234 502.365 479.548 501.944C478.862 501.522 478.33 500.931 477.95 500.173C477.571 499.414 477.381 498.528 477.381 497.514C477.381 496.495 477.571 495.605 477.95 494.842C478.33 494.079 478.862 493.487 479.548 493.065C480.234 492.643 481.038 492.432 481.958 492.432C482.879 492.432 483.682 492.643 484.368 493.065C485.054 493.487 485.587 494.079 485.966 494.842C486.345 495.605 486.535 496.495 486.535 497.514C486.535 498.528 486.345 499.414 485.966 500.173C485.587 500.931 485.054 501.522 484.368 501.944C483.682 502.365 482.879 502.576 481.958 502.576ZM481.964 500.972C482.561 500.972 483.055 500.814 483.447 500.499C483.839 500.184 484.129 499.764 484.317 499.24C484.508 498.716 484.604 498.138 484.604 497.507C484.604 496.881 484.508 496.306 484.317 495.782C484.129 495.253 483.839 494.829 483.447 494.51C483.055 494.19 482.561 494.03 481.964 494.03C481.364 494.03 480.865 494.19 480.469 494.51C480.077 494.829 479.785 495.253 479.593 495.782C479.405 496.306 479.312 496.881 479.312 497.507C479.312 498.138 479.405 498.716 479.593 499.24C479.785 499.764 480.077 500.184 480.469 500.499C480.865 500.814 481.364 500.972 481.964 500.972ZM492.804 502.576C491.883 502.576 491.08 502.365 490.394 501.944C489.708 501.522 489.175 500.931 488.796 500.173C488.417 499.414 488.227 498.528 488.227 497.514C488.227 496.495 488.417 495.605 488.796 494.842C489.175 494.079 489.708 493.487 490.394 493.065C491.08 492.643 491.883 492.432 492.804 492.432C493.724 492.432 494.527 492.643 495.214 493.065C495.9 493.487 496.432 494.079 496.812 494.842C497.191 495.605 497.38 496.495 497.38 497.514C497.38 498.528 497.191 499.414 496.812 500.173C496.432 500.931 495.9 501.522 495.214 501.944C494.527 502.365 493.724 502.576 492.804 502.576ZM492.81 500.972C493.407 500.972 493.901 500.814 494.293 500.499C494.685 500.184 494.975 499.764 495.162 499.24C495.354 498.716 495.45 498.138 495.45 497.507C495.45 496.881 495.354 496.306 495.162 495.782C494.975 495.253 494.685 494.829 494.293 494.51C493.901 494.19 493.407 494.03 492.81 494.03C492.209 494.03 491.711 494.19 491.314 494.51C490.922 494.829 490.63 495.253 490.439 495.782C490.251 496.306 490.157 496.881 490.157 497.507C490.157 498.138 490.251 498.716 490.439 499.24C490.63 499.764 490.922 500.184 491.314 500.499C491.711 500.814 492.209 500.972 492.81 500.972ZM501.425 489.287V502.378H499.514V489.287H501.425ZM505.255 502.5C504.906 502.5 504.606 502.376 504.354 502.129C504.103 501.877 503.977 501.575 503.977 501.221C503.977 500.872 504.103 500.573 504.354 500.326C504.606 500.075 504.906 499.949 505.255 499.949C505.605 499.949 505.905 500.075 506.157 500.326C506.408 500.573 506.534 500.872 506.534 501.221C506.534 501.456 506.474 501.671 506.355 501.867C506.24 502.059 506.086 502.212 505.895 502.327C505.703 502.442 505.49 502.5 505.255 502.5Z" fill="white" fill-opacity="0.65"/>
</g>
<defs>
<clipPath id="clip0_4_2954">
<rect width="638" height="590" rx="16" fill="white"/>
</clipPath>
<clipPath id="clip1_4_2954">
<rect width="645.298" height="718.563" fill="white"/>
</clipPath>
<clipPath id="clip2_4_2954">
<rect width="612.892" height="1015.85" fill="white" transform="translate(16.2031 33.8147)"/>
</clipPath>
</defs>
</svg>
