<svg width="284" height="94" viewBox="0 0 284 94" fill="none" xmlns="http://www.w3.org/2000/svg">
<g filter="url(#filter0_d_290_3765)">
<rect x="16" y="13" width="252" height="62" rx="8.1" fill="white"/>
<path d="M37.5043 38V27.8182H41.3224C42.1046 27.8182 42.7609 27.964 43.2912 28.2557C43.8248 28.5473 44.2275 28.9484 44.4993 29.4588C44.7744 29.9659 44.9119 30.5426 44.9119 31.1889C44.9119 31.8419 44.7744 32.4219 44.4993 32.929C44.2242 33.4361 43.8182 33.8355 43.2812 34.1271C42.7443 34.4155 42.0831 34.5597 41.2976 34.5597H38.767V33.0433H41.049C41.5064 33.0433 41.8809 32.9638 42.1726 32.8047C42.4643 32.6456 42.6797 32.4268 42.8189 32.1484C42.9614 31.87 43.0327 31.5502 43.0327 31.1889C43.0327 30.8277 42.9614 30.5095 42.8189 30.2344C42.6797 29.9593 42.4626 29.7455 42.1676 29.593C41.8759 29.4373 41.4998 29.3594 41.0391 29.3594H39.3487V38H37.5043ZM46.4345 38V30.3636H48.1795V31.6364H48.2591C48.3983 31.1955 48.6369 30.8558 48.975 30.6172C49.3163 30.3752 49.7058 30.2543 50.1433 30.2543C50.2427 30.2543 50.3538 30.2592 50.4764 30.2692C50.6023 30.2758 50.7067 30.2874 50.7896 30.304V31.9595C50.7134 31.933 50.5924 31.9098 50.4267 31.8899C50.2643 31.8667 50.1068 31.8551 49.9544 31.8551C49.6262 31.8551 49.3313 31.9264 49.0694 32.0689C48.8109 32.2081 48.6071 32.402 48.4579 32.6506C48.3088 32.8991 48.2342 33.1858 48.2342 33.5107V38H46.4345ZM55.0018 38.1491C54.256 38.1491 53.6097 37.9851 53.0629 37.657C52.516 37.3288 52.0917 36.8698 51.7901 36.2798C51.4918 35.6899 51.3427 35.0005 51.3427 34.2116C51.3427 33.4228 51.4918 32.7318 51.7901 32.1385C52.0917 31.5452 52.516 31.0845 53.0629 30.7564C53.6097 30.4283 54.256 30.2642 55.0018 30.2642C55.7475 30.2642 56.3938 30.4283 56.9407 30.7564C57.4876 31.0845 57.9102 31.5452 58.2085 32.1385C58.5101 32.7318 58.6609 33.4228 58.6609 34.2116C58.6609 35.0005 58.5101 35.6899 58.2085 36.2798C57.9102 36.8698 57.4876 37.3288 56.9407 37.657C56.3938 37.9851 55.7475 38.1491 55.0018 38.1491ZM55.0117 36.7074C55.4161 36.7074 55.7541 36.5964 56.0259 36.3743C56.2977 36.1489 56.4999 35.8473 56.6325 35.4695C56.7683 35.0916 56.8363 34.6707 56.8363 34.2067C56.8363 33.7393 56.7683 33.3168 56.6325 32.9389C56.4999 32.5578 56.2977 32.2545 56.0259 32.0291C55.7541 31.8037 55.4161 31.6911 55.0117 31.6911C54.5974 31.6911 54.2527 31.8037 53.9776 32.0291C53.7058 32.2545 53.502 32.5578 53.3661 32.9389C53.2335 33.3168 53.1673 33.7393 53.1673 34.2067C53.1673 34.6707 53.2335 35.0916 53.3661 35.4695C53.502 35.8473 53.7058 36.1489 53.9776 36.3743C54.2527 36.5964 54.5974 36.7074 55.0117 36.7074ZM63.0222 38.1342C62.4223 38.1342 61.8854 37.9801 61.4114 37.6719C60.9374 37.3636 60.5629 36.9162 60.2878 36.3295C60.0127 35.7429 59.8752 35.0303 59.8752 34.1918C59.8752 33.3433 60.0144 32.6274 60.2928 32.044C60.5745 31.4574 60.954 31.0149 61.4313 30.7166C61.9086 30.415 62.4405 30.2642 63.0272 30.2642C63.4746 30.2642 63.8425 30.3404 64.1309 30.4929C64.4192 30.642 64.6479 30.8227 64.8169 31.0348C64.986 31.2436 65.1169 31.4408 65.2097 31.6264H65.2843V27.8182H67.089V38H65.3191V36.7969H65.2097C65.1169 36.9825 64.9827 37.1797 64.807 37.3885C64.6313 37.594 64.3993 37.7696 64.111 37.9155C63.8226 38.0613 63.4597 38.1342 63.0222 38.1342ZM63.5243 36.6577C63.9055 36.6577 64.2303 36.5549 64.4988 36.3494C64.7672 36.1406 64.9711 35.8506 65.1103 35.4794C65.2495 35.1082 65.3191 34.6757 65.3191 34.1818C65.3191 33.688 65.2495 33.2588 65.1103 32.8942C64.9744 32.5296 64.7722 32.2462 64.5037 32.044C64.2386 31.8419 63.9121 31.7408 63.5243 31.7408C63.1233 31.7408 62.7885 31.8452 62.5201 32.054C62.2516 32.2628 62.0494 32.5511 61.9135 32.919C61.7776 33.2869 61.7097 33.7079 61.7097 34.1818C61.7097 34.6591 61.7776 35.085 61.9135 35.4595C62.0527 35.8307 62.2566 36.1241 62.525 36.3395C62.7968 36.5516 63.1299 36.6577 63.5243 36.6577ZM73.8739 34.7884V30.3636H75.6737V38H73.9286V36.6428H73.8491C73.6767 37.0703 73.3933 37.42 72.9989 37.6918C72.6078 37.9635 72.1256 38.0994 71.5522 38.0994C71.0517 38.0994 70.6093 37.9884 70.2248 37.7663C69.8436 37.541 69.5453 37.2145 69.3299 36.7869C69.1145 36.3561 69.0067 35.8357 69.0067 35.2259V30.3636H70.8065V34.9474C70.8065 35.4313 70.939 35.8158 71.2042 36.1009C71.4693 36.3859 71.8174 36.5284 72.2482 36.5284C72.5134 36.5284 72.7702 36.4638 73.0188 36.3345C73.2674 36.2053 73.4712 36.013 73.6303 35.7578C73.7927 35.4993 73.8739 35.1761 73.8739 34.7884ZM80.8553 38.1491C80.093 38.1491 79.4384 37.9818 78.8915 37.647C78.348 37.3123 77.9287 36.8499 77.6337 36.2599C77.342 35.6667 77.1962 34.9839 77.1962 34.2116C77.1962 33.4361 77.3453 32.7517 77.6436 32.1584C77.9419 31.5618 78.3629 31.0978 78.9064 30.7663C79.4533 30.4316 80.0996 30.2642 80.8453 30.2642C81.4651 30.2642 82.0137 30.3786 82.4909 30.6072C82.9715 30.8326 83.3543 31.1525 83.6394 31.5668C83.9244 31.9777 84.0868 32.4583 84.1266 33.0085H82.4064C82.3368 32.6406 82.1711 32.334 81.9093 32.0888C81.6507 31.8402 81.3044 31.7159 80.8702 31.7159C80.5023 31.7159 80.1792 31.8153 79.9007 32.0142C79.6223 32.2098 79.4052 32.4915 79.2495 32.8594C79.097 33.2273 79.0208 33.6681 79.0208 34.1818C79.0208 34.7022 79.097 35.1496 79.2495 35.5241C79.4019 35.8954 79.6157 36.1821 79.8908 36.3842C80.1692 36.5831 80.4957 36.6825 80.8702 36.6825C81.1354 36.6825 81.3723 36.6328 81.5811 36.5334C81.7933 36.4306 81.9706 36.2831 82.1131 36.0909C82.2556 35.8987 82.3534 35.665 82.4064 35.3899H84.1266C84.0835 35.9302 83.9244 36.4091 83.6493 36.8267C83.3742 37.241 82.9997 37.5658 82.5257 37.8011C82.0518 38.0331 81.495 38.1491 80.8553 38.1491ZM89.4176 30.3636V31.7557H85.0277V30.3636H89.4176ZM86.1115 28.5341H87.9112V35.7031C87.9112 35.9451 87.9477 36.1307 88.0206 36.2599C88.0968 36.3859 88.1963 36.4721 88.3189 36.5185C88.4415 36.5649 88.5774 36.5881 88.7266 36.5881C88.8393 36.5881 88.942 36.5798 89.0348 36.5632C89.1309 36.5466 89.2038 36.5317 89.2536 36.5185L89.5568 37.9254C89.4607 37.9586 89.3232 37.995 89.1442 38.0348C88.9685 38.0746 88.7531 38.0978 88.4979 38.1044C88.0471 38.1177 87.6411 38.0497 87.2798 37.9006C86.9186 37.7481 86.6319 37.5128 86.4197 37.1946C86.2109 36.8764 86.1082 36.4787 86.1115 36.0014V28.5341ZM97.9252 38H94.475V27.8182H97.9949C99.0057 27.8182 99.8741 28.022 100.6 28.4297C101.329 28.834 101.889 29.4157 102.28 30.1747C102.671 30.9337 102.867 31.8419 102.867 32.8991C102.867 33.9598 102.67 34.8712 102.275 35.6335C101.884 36.3958 101.319 36.9808 100.58 37.3885C99.8443 37.7962 98.9593 38 97.9252 38ZM96.3194 36.4041H97.8358C98.545 36.4041 99.1367 36.2749 99.6106 36.0163C100.085 35.7545 100.441 35.3651 100.68 34.848C100.918 34.3277 101.037 33.678 101.037 32.8991C101.037 32.1203 100.918 31.474 100.68 30.9602C100.441 30.4432 100.088 30.0571 99.6206 29.8018C99.1565 29.5433 98.5798 29.4141 97.8904 29.4141H96.3194V36.4041ZM107.921 38.1491C107.155 38.1491 106.494 37.9901 105.937 37.6719C105.383 37.3504 104.958 36.8963 104.659 36.3097C104.361 35.7197 104.212 35.0253 104.212 34.2266C104.212 33.4411 104.361 32.7517 104.659 32.1584C104.961 31.5618 105.382 31.0978 105.922 30.7663C106.462 30.4316 107.097 30.2642 107.826 30.2642C108.297 30.2642 108.741 30.3404 109.159 30.4929C109.579 30.642 109.951 30.8741 110.272 31.1889C110.597 31.5038 110.852 31.9048 111.038 32.392C111.223 32.8759 111.316 33.4527 111.316 34.1222V34.674H105.057V33.4609H109.591C109.588 33.1162 109.513 32.8097 109.367 32.5412C109.222 32.2694 109.018 32.0556 108.756 31.8999C108.497 31.7441 108.196 31.6662 107.851 31.6662C107.483 31.6662 107.16 31.7557 106.882 31.9347C106.603 32.1103 106.386 32.3423 106.23 32.6307C106.078 32.9157 106 33.2289 105.997 33.5703V34.6293C105.997 35.0734 106.078 35.4545 106.24 35.7727C106.403 36.0876 106.63 36.3295 106.921 36.4986C107.213 36.6643 107.554 36.7472 107.945 36.7472C108.207 36.7472 108.444 36.7107 108.656 36.6378C108.869 36.5616 109.052 36.4505 109.208 36.3047C109.364 36.1589 109.482 35.9782 109.561 35.7628L111.242 35.9517C111.136 36.3958 110.933 36.7836 110.635 37.1151C110.34 37.4432 109.962 37.6984 109.502 37.8807C109.041 38.0597 108.514 38.1491 107.921 38.1491ZM118.874 32.3821L117.234 32.5611C117.187 32.3954 117.106 32.2396 116.99 32.0938C116.877 31.9479 116.725 31.8303 116.533 31.7408C116.34 31.6513 116.105 31.6065 115.827 31.6065C115.452 31.6065 115.137 31.6877 114.882 31.8501C114.63 32.0125 114.506 32.223 114.509 32.4815C114.506 32.7036 114.587 32.8842 114.753 33.0234C114.922 33.1626 115.2 33.277 115.588 33.3665L116.891 33.6449C117.613 33.8007 118.15 34.0476 118.501 34.3857C118.856 34.7237 119.035 35.1662 119.038 35.7131C119.035 36.1937 118.894 36.6179 118.616 36.9858C118.341 37.3504 117.958 37.6354 117.467 37.8409C116.977 38.0464 116.413 38.1491 115.777 38.1491C114.842 38.1491 114.09 37.9536 113.52 37.5625C112.95 37.1681 112.61 36.6196 112.501 35.9169L114.256 35.7479C114.335 36.0926 114.504 36.3527 114.763 36.5284C115.021 36.7041 115.358 36.7919 115.772 36.7919C116.2 36.7919 116.543 36.7041 116.801 36.5284C117.063 36.3527 117.194 36.1357 117.194 35.8771C117.194 35.6584 117.109 35.4777 116.94 35.3352C116.775 35.1927 116.516 35.0833 116.165 35.0071L114.862 34.7337C114.13 34.5812 113.588 34.3243 113.237 33.9631C112.885 33.5985 112.711 33.1378 112.714 32.581C112.711 32.1103 112.839 31.7027 113.097 31.358C113.359 31.0099 113.722 30.7415 114.186 30.5526C114.653 30.3603 115.192 30.2642 115.802 30.2642C116.697 30.2642 117.401 30.4548 117.915 30.8359C118.432 31.2171 118.752 31.7325 118.874 32.3821ZM120.522 38V30.3636H122.322V38H120.522ZM121.427 29.2798C121.142 29.2798 120.897 29.1854 120.691 28.9964C120.486 28.8042 120.383 28.5739 120.383 28.3054C120.383 28.0336 120.486 27.8033 120.691 27.6143C120.897 27.4221 121.142 27.326 121.427 27.326C121.716 27.326 121.961 27.4221 122.163 27.6143C122.368 27.8033 122.471 28.0336 122.471 28.3054C122.471 28.5739 122.368 28.8042 122.163 28.9964C121.961 29.1854 121.716 29.2798 121.427 29.2798ZM127.494 41.0227C126.847 41.0227 126.292 40.9349 125.828 40.7592C125.364 40.5869 124.991 40.3549 124.71 40.0632C124.428 39.7715 124.232 39.4484 124.123 39.0938L125.744 38.701C125.817 38.8501 125.923 38.9976 126.062 39.1435C126.201 39.2926 126.388 39.4152 126.624 39.5114C126.862 39.6108 127.162 39.6605 127.524 39.6605C128.034 39.6605 128.457 39.5362 128.791 39.2876C129.126 39.0424 129.294 38.638 129.294 38.0746V36.6278H129.204C129.111 36.8134 128.975 37.004 128.796 37.1996C128.621 37.3951 128.387 37.5592 128.095 37.6918C127.807 37.8243 127.444 37.8906 127.007 37.8906C126.42 37.8906 125.888 37.7531 125.411 37.478C124.937 37.1996 124.559 36.7853 124.277 36.2351C123.999 35.6816 123.86 34.9889 123.86 34.157C123.86 33.3184 123.999 32.6108 124.277 32.0341C124.559 31.4541 124.938 31.0149 125.416 30.7166C125.893 30.415 126.425 30.2642 127.012 30.2642C127.459 30.2642 127.827 30.3404 128.115 30.4929C128.407 30.642 128.639 30.8227 128.811 31.0348C128.984 31.2436 129.115 31.4408 129.204 31.6264H129.303V30.3636H131.078V38.1243C131.078 38.7772 130.923 39.3175 130.611 39.745C130.299 40.1726 129.874 40.4924 129.333 40.7045C128.793 40.9167 128.18 41.0227 127.494 41.0227ZM127.509 36.4787C127.89 36.4787 128.215 36.3859 128.483 36.2003C128.752 36.0147 128.955 35.7479 129.095 35.3999C129.234 35.0518 129.303 34.6342 129.303 34.147C129.303 33.6664 129.234 33.2455 129.095 32.8842C128.959 32.523 128.757 32.2429 128.488 32.044C128.223 31.8419 127.896 31.7408 127.509 31.7408C127.108 31.7408 126.773 31.8452 126.504 32.054C126.236 32.2628 126.034 32.5495 125.898 32.9141C125.762 33.2753 125.694 33.6863 125.694 34.147C125.694 34.6143 125.762 35.0237 125.898 35.375C126.037 35.723 126.241 35.9948 126.509 36.1903C126.781 36.3826 127.114 36.4787 127.509 36.4787ZM134.722 33.5256V38H132.923V30.3636H134.643V31.6612H134.732C134.908 31.2337 135.188 30.8939 135.573 30.642C135.96 30.3902 136.439 30.2642 137.009 30.2642C137.536 30.2642 137.995 30.3769 138.387 30.6023C138.781 30.8277 139.086 31.1541 139.301 31.5817C139.52 32.0092 139.628 32.5279 139.624 33.1378V38H137.825V33.4162C137.825 32.9058 137.692 32.5064 137.427 32.218C137.165 31.9297 136.802 31.7855 136.338 31.7855C136.023 31.7855 135.743 31.8551 135.498 31.9943C135.256 32.1302 135.066 32.3274 134.926 32.5859C134.79 32.8445 134.722 33.1577 134.722 33.5256ZM144.835 38.1491C144.069 38.1491 143.408 37.9901 142.851 37.6719C142.298 37.3504 141.872 36.8963 141.573 36.3097C141.275 35.7197 141.126 35.0253 141.126 34.2266C141.126 33.4411 141.275 32.7517 141.573 32.1584C141.875 31.5618 142.296 31.0978 142.836 30.7663C143.376 30.4316 144.011 30.2642 144.74 30.2642C145.211 30.2642 145.655 30.3404 146.073 30.4929C146.494 30.642 146.865 30.8741 147.186 31.1889C147.511 31.5038 147.766 31.9048 147.952 32.392C148.137 32.8759 148.23 33.4527 148.23 34.1222V34.674H141.971V33.4609H146.505C146.502 33.1162 146.427 32.8097 146.281 32.5412C146.136 32.2694 145.932 32.0556 145.67 31.8999C145.411 31.7441 145.11 31.6662 144.765 31.6662C144.397 31.6662 144.074 31.7557 143.796 31.9347C143.517 32.1103 143.3 32.3423 143.144 32.6307C142.992 32.9157 142.914 33.2289 142.911 33.5703V34.6293C142.911 35.0734 142.992 35.4545 143.154 35.7727C143.317 36.0876 143.544 36.3295 143.835 36.4986C144.127 36.6643 144.468 36.7472 144.86 36.7472C145.121 36.7472 145.358 36.7107 145.57 36.6378C145.783 36.5616 145.967 36.4505 146.122 36.3047C146.278 36.1589 146.396 35.9782 146.475 35.7628L148.156 35.9517C148.05 36.3958 147.847 36.7836 147.549 37.1151C147.254 37.4432 146.876 37.6984 146.416 37.8807C145.955 38.0597 145.428 38.1491 144.835 38.1491ZM149.753 38V30.3636H151.498V31.6364H151.577C151.717 31.1955 151.955 30.8558 152.293 30.6172C152.635 30.3752 153.024 30.2543 153.462 30.2543C153.561 30.2543 153.672 30.2592 153.795 30.2692C153.921 30.2758 154.025 30.2874 154.108 30.304V31.9595C154.032 31.933 153.911 31.9098 153.745 31.8899C153.583 31.8667 153.425 31.8551 153.273 31.8551C152.945 31.8551 152.65 31.9264 152.388 32.0689C152.129 32.2081 151.925 32.402 151.776 32.6506C151.627 32.8991 151.553 33.1858 151.553 33.5107V38H149.753ZM159.224 32.9091C159.224 31.6662 159.388 30.5244 159.716 29.4837C160.047 28.4396 160.54 27.4751 161.192 26.5902H162.888C162.636 26.9183 162.401 27.321 162.182 27.7983C161.963 28.2723 161.772 28.7926 161.61 29.3594C161.451 29.9228 161.325 30.5078 161.232 31.1143C161.143 31.7209 161.098 32.3191 161.098 32.9091C161.098 33.6946 161.176 34.4901 161.332 35.2955C161.491 36.1009 161.705 36.8482 161.973 37.5376C162.245 38.2237 162.55 38.7855 162.888 39.223H161.192C160.54 38.3381 160.047 37.3752 159.716 36.3345C159.388 35.2905 159.224 34.1487 159.224 32.9091ZM164.366 38V27.8182H166.21V36.4538H170.694V38H164.366ZM175.547 38.1491C174.801 38.1491 174.155 37.9851 173.608 37.657C173.061 37.3288 172.637 36.8698 172.335 36.2798C172.037 35.6899 171.888 35.0005 171.888 34.2116C171.888 33.4228 172.037 32.7318 172.335 32.1385C172.637 31.5452 173.061 31.0845 173.608 30.7564C174.155 30.4283 174.801 30.2642 175.547 30.2642C176.292 30.2642 176.939 30.4283 177.486 30.7564C178.032 31.0845 178.455 31.5452 178.753 32.1385C179.055 32.7318 179.206 33.4228 179.206 34.2116C179.206 35.0005 179.055 35.6899 178.753 36.2798C178.455 36.8698 178.032 37.3288 177.486 37.657C176.939 37.9851 176.292 38.1491 175.547 38.1491ZM175.557 36.7074C175.961 36.7074 176.299 36.5964 176.571 36.3743C176.843 36.1489 177.045 35.8473 177.177 35.4695C177.313 35.0916 177.381 34.6707 177.381 34.2067C177.381 33.7393 177.313 33.3168 177.177 32.9389C177.045 32.5578 176.843 32.2545 176.571 32.0291C176.299 31.8037 175.961 31.6911 175.557 31.6911C175.142 31.6911 174.798 31.8037 174.523 32.0291C174.251 32.2545 174.047 32.5578 173.911 32.9389C173.778 33.3168 173.712 33.7393 173.712 34.2067C173.712 34.6707 173.778 35.0916 173.911 35.4695C174.047 35.8473 174.251 36.1489 174.523 36.3743C174.798 36.5964 175.142 36.7074 175.557 36.7074ZM182.533 33.5256V38H180.733V30.3636H182.453V31.6612H182.543C182.719 31.2337 182.999 30.8939 183.383 30.642C183.771 30.3902 184.25 30.2642 184.82 30.2642C185.347 30.2642 185.806 30.3769 186.197 30.6023C186.592 30.8277 186.896 31.1541 187.112 31.5817C187.331 32.0092 187.438 32.5279 187.435 33.1378V38H185.635V33.4162C185.635 32.9058 185.503 32.5064 185.238 32.218C184.976 31.9297 184.613 31.7855 184.149 31.7855C183.834 31.7855 183.554 31.8551 183.309 31.9943C183.067 32.1302 182.876 32.3274 182.737 32.5859C182.601 32.8445 182.533 33.1577 182.533 33.5256ZM192.098 38.1342C191.498 38.1342 190.962 37.9801 190.488 37.6719C190.014 37.3636 189.639 36.9162 189.364 36.3295C189.089 35.7429 188.951 35.0303 188.951 34.1918C188.951 33.3433 189.091 32.6274 189.369 32.044C189.651 31.4574 190.03 31.0149 190.507 30.7166C190.985 30.415 191.517 30.2642 192.103 30.2642C192.551 30.2642 192.919 30.3404 193.207 30.4929C193.495 30.642 193.724 30.8227 193.893 31.0348C194.062 31.2436 194.193 31.4408 194.286 31.6264H194.36V27.8182H196.165V38H194.395V36.7969H194.286C194.193 36.9825 194.059 37.1797 193.883 37.3885C193.708 37.594 193.475 37.7696 193.187 37.9155C192.899 38.0613 192.536 38.1342 192.098 38.1342ZM192.6 36.6577C192.982 36.6577 193.306 36.5549 193.575 36.3494C193.843 36.1406 194.047 35.8506 194.186 35.4794C194.326 35.1082 194.395 34.6757 194.395 34.1818C194.395 33.688 194.326 33.2588 194.186 32.8942C194.051 32.5296 193.848 32.2462 193.58 32.044C193.315 31.8419 192.988 31.7408 192.6 31.7408C192.199 31.7408 191.865 31.8452 191.596 32.054C191.328 32.2628 191.126 32.5511 190.99 32.919C190.854 33.2869 190.786 33.7079 190.786 34.1818C190.786 34.6591 190.854 35.085 190.99 35.4595C191.129 35.8307 191.333 36.1241 191.601 36.3395C191.873 36.5516 192.206 36.6577 192.6 36.6577ZM201.414 38.1491C200.668 38.1491 200.022 37.9851 199.475 37.657C198.928 37.3288 198.504 36.8698 198.202 36.2798C197.904 35.6899 197.755 35.0005 197.755 34.2116C197.755 33.4228 197.904 32.7318 198.202 32.1385C198.504 31.5452 198.928 31.0845 199.475 30.7564C200.022 30.4283 200.668 30.2642 201.414 30.2642C202.16 30.2642 202.806 30.4283 203.353 30.7564C203.9 31.0845 204.322 31.5452 204.621 32.1385C204.922 32.7318 205.073 33.4228 205.073 34.2116C205.073 35.0005 204.922 35.6899 204.621 36.2798C204.322 36.8698 203.9 37.3288 203.353 37.657C202.806 37.9851 202.16 38.1491 201.414 38.1491ZM201.424 36.7074C201.828 36.7074 202.166 36.5964 202.438 36.3743C202.71 36.1489 202.912 35.8473 203.045 35.4695C203.18 35.0916 203.248 34.6707 203.248 34.2067C203.248 33.7393 203.18 33.3168 203.045 32.9389C202.912 32.5578 202.71 32.2545 202.438 32.0291C202.166 31.8037 201.828 31.6911 201.424 31.6911C201.01 31.6911 200.665 31.8037 200.39 32.0291C200.118 32.2545 199.914 32.5578 199.778 32.9389C199.646 33.3168 199.579 33.7393 199.579 34.2067C199.579 34.6707 199.646 35.0916 199.778 35.4695C199.914 35.8473 200.118 36.1489 200.39 36.3743C200.665 36.5964 201.01 36.7074 201.424 36.7074ZM208.4 33.5256V38H206.6V30.3636H208.321V31.6612H208.41C208.586 31.2337 208.866 30.8939 209.25 30.642C209.638 30.3902 210.117 30.2642 210.687 30.2642C211.214 30.2642 211.673 30.3769 212.064 30.6023C212.459 30.8277 212.764 31.1541 212.979 31.5817C213.198 32.0092 213.306 32.5279 213.302 33.1378V38H211.502V33.4162C211.502 32.9058 211.37 32.5064 211.105 32.218C210.843 31.9297 210.48 31.7855 210.016 31.7855C209.701 31.7855 209.421 31.8551 209.176 31.9943C208.934 32.1302 208.743 32.3274 208.604 32.5859C208.468 32.8445 208.4 33.1577 208.4 33.5256ZM217.245 36.608L217.18 37.1548C217.134 37.5724 217.051 37.9967 216.931 38.4276C216.815 38.8617 216.693 39.2611 216.564 39.6257C216.434 39.9903 216.33 40.277 216.25 40.4858H215.037C215.084 40.2836 215.147 40.0085 215.226 39.6605C215.309 39.3125 215.389 38.9214 215.465 38.4872C215.541 38.053 215.592 37.6122 215.619 37.1648L215.654 36.608H217.245ZM228.917 27.8182H230.761V34.4702C230.761 35.1993 230.589 35.8407 230.244 36.3942C229.903 36.9477 229.422 37.3802 228.802 37.6918C228.183 38 227.458 38.1541 226.63 38.1541C225.798 38.1541 225.072 38 224.452 37.6918C223.832 37.3802 223.352 36.9477 223.01 36.3942C222.669 35.8407 222.498 35.1993 222.498 34.4702V27.8182H224.343V34.3161C224.343 34.7403 224.436 35.1181 224.621 35.4496C224.81 35.781 225.075 36.0412 225.417 36.2301C225.758 36.4157 226.162 36.5085 226.63 36.5085C227.097 36.5085 227.501 36.4157 227.843 36.2301C228.188 36.0412 228.453 35.781 228.638 35.4496C228.824 35.1181 228.917 34.7403 228.917 34.3161V27.8182ZM232.766 38V27.8182H234.61V32.4964H234.735L238.707 27.8182H240.959L237.022 32.3871L240.994 38H238.777L235.739 33.6349L234.61 34.9673V38H232.766ZM245.373 32.9091C245.373 34.1487 245.207 35.2905 244.876 36.3345C244.547 37.3752 244.057 38.3381 243.404 39.223H241.709C241.964 38.8949 242.199 38.4938 242.415 38.0199C242.633 37.5459 242.822 37.0256 242.981 36.4588C243.144 35.892 243.27 35.3054 243.359 34.6989C243.452 34.0923 243.498 33.4957 243.498 32.9091C243.498 32.1236 243.419 31.3281 243.26 30.5227C243.104 29.7173 242.89 28.9699 242.618 28.2805C242.35 27.5911 242.047 27.0277 241.709 26.5902H243.404C244.057 27.4751 244.547 28.4396 244.876 29.4837C245.207 30.5244 245.373 31.6662 245.373 32.9091Z" fill="#121212"/>
<circle cx="38.5" cy="56" r="2" fill="#008000" fill-opacity="0.3"/>
<path d="M46.3807 61V53.7273H48.8381C49.4063 53.7273 49.8726 53.8243 50.2372 54.0185C50.6018 54.2102 50.8717 54.4742 51.0469 54.8104C51.2221 55.1465 51.3097 55.5289 51.3097 55.9574C51.3097 56.3859 51.2221 56.7659 51.0469 57.0973C50.8717 57.4287 50.603 57.6892 50.2408 57.8786C49.8786 58.0656 49.4157 58.1591 48.8523 58.1591H46.8636V57.3636H48.8239C49.2121 57.3636 49.5246 57.3068 49.7614 57.1932C50.0005 57.0795 50.1733 56.9186 50.2798 56.7102C50.3887 56.4995 50.4432 56.2486 50.4432 55.9574C50.4432 55.6662 50.3887 55.4117 50.2798 55.1939C50.1709 54.9761 49.9969 54.808 49.7578 54.6896C49.5187 54.5689 49.2027 54.5085 48.8097 54.5085H47.2614V61H46.3807ZM49.804 57.733L51.5938 61H50.571L48.8097 57.733H49.804ZM54.8919 61.1136C54.3663 61.1136 53.9129 60.9976 53.5318 60.7656C53.153 60.5312 52.8606 60.2045 52.6547 59.7855C52.4511 59.3641 52.3493 58.8741 52.3493 58.3153C52.3493 57.7566 52.4511 57.2642 52.6547 56.8381C52.8606 56.4096 53.1471 56.0758 53.514 55.8366C53.8833 55.5952 54.3142 55.4744 54.8066 55.4744C55.0907 55.4744 55.3713 55.5218 55.6483 55.6165C55.9252 55.7112 56.1774 55.8651 56.4047 56.0781C56.6319 56.2888 56.813 56.5682 56.948 56.9162C57.0829 57.2642 57.1504 57.6927 57.1504 58.2017V58.5568H52.9458V57.8324H56.2981C56.2981 57.5246 56.2366 57.25 56.1135 57.0085C55.9927 56.767 55.8199 56.5765 55.595 56.4368C55.3725 56.2971 55.1097 56.2273 54.8066 56.2273C54.4728 56.2273 54.184 56.3101 53.9402 56.4759C53.6987 56.6392 53.5128 56.8523 53.3826 57.1151C53.2524 57.3778 53.1873 57.6596 53.1873 57.9602V58.4432C53.1873 58.8551 53.2583 59.2043 53.4004 59.4908C53.5448 59.7749 53.7449 59.9915 54.0005 60.1406C54.2562 60.2874 54.5533 60.3608 54.8919 60.3608C55.112 60.3608 55.3109 60.33 55.4885 60.2685C55.6684 60.2045 55.8234 60.1098 55.9537 59.9844C56.0839 59.8565 56.1845 59.6979 56.2555 59.5085L57.0652 59.7358C56.9799 60.0104 56.8367 60.2519 56.6355 60.4602C56.4342 60.6662 56.1857 60.8272 55.8897 60.9432C55.5938 61.0568 55.2612 61.1136 54.8919 61.1136ZM58.4252 61V55.5455H59.2349V56.3977H59.3059C59.4196 56.1065 59.603 55.8804 59.8564 55.7195C60.1097 55.5561 60.4139 55.4744 60.769 55.4744C61.1288 55.4744 61.4283 55.5561 61.6674 55.7195C61.9089 55.8804 62.0971 56.1065 62.2321 56.3977H62.2889C62.4286 56.116 62.6381 55.8923 62.9174 55.7266C63.1968 55.5585 63.5318 55.4744 63.9224 55.4744C64.4101 55.4744 64.809 55.6271 65.1191 55.9325C65.4293 56.2356 65.5843 56.7079 65.5843 57.3494V61H64.7463V57.3494C64.7463 56.947 64.6362 56.6593 64.416 56.4865C64.1958 56.3137 63.9366 56.2273 63.6383 56.2273C63.2548 56.2273 62.9577 56.3433 62.747 56.5753C62.5363 56.8049 62.4309 57.0961 62.4309 57.4489V61H61.5787V57.2642C61.5787 56.9541 61.478 56.7043 61.2768 56.5149C61.0756 56.3232 60.8163 56.2273 60.4991 56.2273C60.2813 56.2273 60.0777 56.2853 59.8883 56.4013C59.7013 56.5173 59.5498 56.6783 59.4338 56.8842C59.3201 57.0878 59.2633 57.3234 59.2633 57.5909V61H58.4252ZM69.3326 61.1136C68.8401 61.1136 68.4081 60.9964 68.0364 60.7621C67.6671 60.5277 67.3783 60.1998 67.1699 59.7784C66.964 59.357 66.861 58.8646 66.861 58.3011C66.861 57.733 66.964 57.237 67.1699 56.8132C67.3783 56.3894 67.6671 56.0604 68.0364 55.826C68.4081 55.5916 68.8401 55.4744 69.3326 55.4744C69.825 55.4744 70.2559 55.5916 70.6252 55.826C70.9969 56.0604 71.2857 56.3894 71.4917 56.8132C71.7 57.237 71.8042 57.733 71.8042 58.3011C71.8042 58.8646 71.7 59.357 71.4917 59.7784C71.2857 60.1998 70.9969 60.5277 70.6252 60.7621C70.2559 60.9964 69.825 61.1136 69.3326 61.1136ZM69.3326 60.3608C69.7066 60.3608 70.0144 60.2649 70.2559 60.0732C70.4973 59.8814 70.6761 59.6293 70.7921 59.3168C70.9081 59.0043 70.9661 58.6657 70.9661 58.3011C70.9661 57.9366 70.9081 57.5968 70.7921 57.282C70.6761 56.9671 70.4973 56.7126 70.2559 56.5185C70.0144 56.3243 69.7066 56.2273 69.3326 56.2273C68.9585 56.2273 68.6507 56.3243 68.4093 56.5185C68.1678 56.7126 67.9891 56.9671 67.873 57.282C67.757 57.5968 67.699 57.9366 67.699 58.3011C67.699 58.6657 67.757 59.0043 67.873 59.3168C67.9891 59.6293 68.1678 59.8814 68.4093 60.0732C68.6507 60.2649 68.9585 60.3608 69.3326 60.3608ZM75.4556 55.5455V56.2557H72.6289V55.5455H75.4556ZM73.4528 54.2386H74.2908V59.4375C74.2908 59.6742 74.3252 59.8518 74.3938 59.9702C74.4648 60.0862 74.5548 60.1643 74.6637 60.2045C74.775 60.2424 74.8922 60.2614 75.0153 60.2614C75.1076 60.2614 75.1834 60.2566 75.2425 60.2472C75.3017 60.2353 75.3491 60.2259 75.3846 60.2188L75.555 60.9716C75.4982 60.9929 75.4189 61.0142 75.3171 61.0355C75.2153 61.0592 75.0863 61.071 74.93 61.071C74.6933 61.071 74.4613 61.0201 74.234 60.9183C74.0091 60.8165 73.8221 60.6615 73.6729 60.4531C73.5262 60.2448 73.4528 59.982 73.4528 59.6648V54.2386ZM78.9446 61.1136C78.419 61.1136 77.9657 60.9976 77.5845 60.7656C77.2057 60.5312 76.9134 60.2045 76.7074 59.7855C76.5038 59.3641 76.402 58.8741 76.402 58.3153C76.402 57.7566 76.5038 57.2642 76.7074 56.8381C76.9134 56.4096 77.1998 56.0758 77.5668 55.8366C77.9361 55.5952 78.367 55.4744 78.8594 55.4744C79.1435 55.4744 79.424 55.5218 79.701 55.6165C79.978 55.7112 80.2301 55.8651 80.4574 56.0781C80.6847 56.2888 80.8658 56.5682 81.0007 56.9162C81.1357 57.2642 81.2031 57.6927 81.2031 58.2017V58.5568H76.9986V57.8324H80.3509C80.3509 57.5246 80.2893 57.25 80.1662 57.0085C80.0455 56.767 79.8726 56.5765 79.6477 56.4368C79.4252 56.2971 79.1624 56.2273 78.8594 56.2273C78.5256 56.2273 78.2367 56.3101 77.9929 56.4759C77.7514 56.6392 77.5656 56.8523 77.4354 57.1151C77.3052 57.3778 77.2401 57.6596 77.2401 57.9602V58.4432C77.2401 58.8551 77.3111 59.2043 77.4531 59.4908C77.5975 59.7749 77.7976 59.9915 78.0533 60.1406C78.3089 60.2874 78.6061 60.3608 78.9446 60.3608C79.1648 60.3608 79.3636 60.33 79.5412 60.2685C79.7211 60.2045 79.8762 60.1098 80.0064 59.9844C80.1366 59.8565 80.2372 59.6979 80.3082 59.5085L81.1179 59.7358C81.0327 60.0104 80.8894 60.2519 80.6882 60.4602C80.487 60.6662 80.2384 60.8272 79.9425 60.9432C79.6465 61.0568 79.3139 61.1136 78.9446 61.1136Z" fill="#818181"/>
<circle cx="94.5" cy="56" r="2" fill="#008000" fill-opacity="0.3"/>
<path d="M104.398 61.9091V52.8182H104.98V61.9091H104.398ZM106.358 55.5455C106.315 55.1856 106.143 54.9062 105.839 54.7074C105.536 54.5085 105.165 54.4091 104.724 54.4091C104.402 54.4091 104.121 54.4612 103.879 54.5653C103.64 54.6695 103.453 54.8127 103.318 54.995C103.186 55.1773 103.119 55.3845 103.119 55.6165C103.119 55.8106 103.165 55.9775 103.258 56.1172C103.353 56.2545 103.473 56.3693 103.62 56.4616C103.767 56.5516 103.921 56.6262 104.082 56.6854C104.243 56.7422 104.391 56.7884 104.526 56.8239L105.264 57.0227C105.454 57.0724 105.664 57.1411 105.896 57.2287C106.131 57.3163 106.354 57.4358 106.567 57.5874C106.783 57.7365 106.96 57.9283 107.1 58.1626C107.24 58.397 107.31 58.6847 107.31 59.0256C107.31 59.4186 107.207 59.7737 107.001 60.0909C106.797 60.4081 106.499 60.6603 106.106 60.8473C105.715 61.0343 105.241 61.1278 104.682 61.1278C104.161 61.1278 103.71 61.0438 103.329 60.8757C102.95 60.7076 102.652 60.4732 102.434 60.1726C102.219 59.8719 102.097 59.5227 102.068 59.125H102.977C103.001 59.3996 103.093 59.6269 103.254 59.8068C103.418 59.9844 103.624 60.117 103.872 60.2045C104.123 60.2898 104.393 60.3324 104.682 60.3324C105.018 60.3324 105.32 60.2779 105.587 60.169C105.855 60.0578 106.067 59.9039 106.223 59.7074C106.379 59.5085 106.457 59.2765 106.457 59.0114C106.457 58.7699 106.39 58.5734 106.255 58.4219C106.12 58.2704 105.942 58.1473 105.722 58.0526C105.502 57.9579 105.264 57.875 105.009 57.804L104.114 57.5483C103.545 57.3849 103.096 57.1518 102.764 56.8487C102.433 56.5457 102.267 56.1491 102.267 55.6591C102.267 55.2519 102.377 54.8968 102.597 54.5938C102.82 54.2884 103.118 54.0516 103.492 53.8835C103.869 53.7131 104.289 53.6278 104.753 53.6278C105.222 53.6278 105.638 53.7119 106.003 53.88C106.367 54.0457 106.656 54.273 106.869 54.5618C107.085 54.8506 107.198 55.1785 107.21 55.5455H106.358ZM108.63 61V60.3608L111.03 57.733C111.312 57.4252 111.544 57.1577 111.726 56.9304C111.909 56.7008 112.044 56.4853 112.131 56.2841C112.221 56.0805 112.266 55.8674 112.266 55.6449C112.266 55.3892 112.205 55.1679 112.081 54.9808C111.961 54.7938 111.795 54.6494 111.584 54.5476C111.374 54.4458 111.137 54.3949 110.874 54.3949C110.595 54.3949 110.351 54.4529 110.143 54.5689C109.937 54.6825 109.777 54.8423 109.663 55.0483C109.552 55.2543 109.496 55.4957 109.496 55.7727H108.658C108.658 55.3466 108.756 54.9725 108.953 54.6506C109.149 54.3286 109.417 54.0777 109.756 53.8977C110.096 53.7178 110.479 53.6278 110.903 53.6278C111.329 53.6278 111.706 53.7178 112.035 53.8977C112.364 54.0777 112.622 54.3203 112.809 54.6257C112.997 54.9311 113.09 55.2708 113.09 55.6449C113.09 55.9124 113.041 56.174 112.944 56.4297C112.85 56.683 112.684 56.9659 112.447 57.2784C112.213 57.5885 111.887 57.9673 111.471 58.4148L109.837 60.1619V60.2188H113.218V61H108.63ZM115.949 60.0057L115.892 60.3892C115.852 60.6591 115.79 60.9479 115.707 61.2557C115.627 61.5634 115.543 61.8535 115.455 62.1257C115.367 62.398 115.295 62.6146 115.238 62.7756H114.599C114.63 62.6241 114.67 62.424 114.72 62.1754C114.77 61.9268 114.819 61.6487 114.869 61.3409C114.921 61.0355 114.964 60.723 114.997 60.4034L115.04 60.0057H115.949ZM119.613 61.0994C119.197 61.0994 118.822 61.0166 118.488 60.8509C118.154 60.6851 117.886 60.4579 117.685 60.169C117.484 59.8802 117.374 59.5511 117.355 59.1818H118.207C118.24 59.5109 118.39 59.7831 118.655 59.9986C118.922 60.2116 119.242 60.3182 119.613 60.3182C119.912 60.3182 120.177 60.2483 120.409 60.1087C120.643 59.969 120.827 59.7772 120.959 59.5334C121.094 59.2872 121.162 59.009 121.162 58.6989C121.162 58.3816 121.092 58.0987 120.952 57.8501C120.815 57.5992 120.626 57.4015 120.384 57.2571C120.143 57.1127 119.867 57.0393 119.557 57.0369C119.334 57.0346 119.106 57.0689 118.871 57.1399C118.637 57.2086 118.444 57.2973 118.292 57.4062L117.469 57.3068L117.909 53.7273H121.687V54.5085H118.648L118.392 56.6534H118.434C118.584 56.535 118.771 56.4368 118.996 56.3587C119.22 56.2805 119.455 56.2415 119.699 56.2415C120.144 56.2415 120.54 56.348 120.888 56.5611C121.239 56.7718 121.513 57.0606 121.712 57.4276C121.913 57.7945 122.014 58.2135 122.014 58.6847C122.014 59.1487 121.91 59.563 121.702 59.9276C121.496 60.2898 121.211 60.5762 120.849 60.7869C120.487 60.9953 120.075 61.0994 119.613 61.0994ZM125.797 61.0994C125.262 61.0994 124.806 60.9538 124.43 60.6626C124.053 60.3691 123.766 59.9441 123.567 59.3878C123.368 58.8291 123.268 58.1544 123.268 57.3636C123.268 56.5777 123.368 55.9065 123.567 55.3501C123.768 54.7914 124.057 54.3653 124.433 54.0717C124.812 53.7758 125.267 53.6278 125.797 53.6278C126.327 53.6278 126.781 53.7758 127.157 54.0717C127.536 54.3653 127.825 54.7914 128.023 55.3501C128.225 55.9065 128.325 56.5777 128.325 57.3636C128.325 58.1544 128.226 58.8291 128.027 59.3878C127.828 59.9441 127.54 60.3691 127.164 60.6626C126.788 60.9538 126.332 61.0994 125.797 61.0994ZM125.797 60.3182C126.327 60.3182 126.739 60.0625 127.033 59.5511C127.326 59.0398 127.473 58.3106 127.473 57.3636C127.473 56.7339 127.406 56.1977 127.271 55.755C127.138 55.3123 126.946 54.9749 126.695 54.7429C126.447 54.5109 126.147 54.3949 125.797 54.3949C125.271 54.3949 124.861 54.6541 124.565 55.1726C124.269 55.6887 124.121 56.419 124.121 57.3636C124.121 57.9934 124.187 58.5284 124.32 58.9688C124.452 59.4091 124.643 59.7441 124.891 59.9737C125.142 60.2034 125.444 60.3182 125.797 60.3182ZM132.047 61.0994C131.512 61.0994 131.056 60.9538 130.68 60.6626C130.303 60.3691 130.016 59.9441 129.817 59.3878C129.618 58.8291 129.518 58.1544 129.518 57.3636C129.518 56.5777 129.618 55.9065 129.817 55.3501C130.018 54.7914 130.307 54.3653 130.683 54.0717C131.062 53.7758 131.517 53.6278 132.047 53.6278C132.577 53.6278 133.031 53.7758 133.407 54.0717C133.786 54.3653 134.075 54.7914 134.273 55.3501C134.475 55.9065 134.575 56.5777 134.575 57.3636C134.575 58.1544 134.476 58.8291 134.277 59.3878C134.078 59.9441 133.79 60.3691 133.414 60.6626C133.038 60.9538 132.582 61.0994 132.047 61.0994ZM132.047 60.3182C132.577 60.3182 132.989 60.0625 133.283 59.5511C133.576 59.0398 133.723 58.3106 133.723 57.3636C133.723 56.7339 133.656 56.1977 133.521 55.755C133.388 55.3123 133.196 54.9749 132.945 54.7429C132.697 54.5109 132.397 54.3949 132.047 54.3949C131.521 54.3949 131.111 54.6541 130.815 55.1726C130.519 55.6887 130.371 56.419 130.371 57.3636C130.371 57.9934 130.437 58.5284 130.57 58.9688C130.702 59.4091 130.893 59.7441 131.141 59.9737C131.392 60.2034 131.694 60.3182 132.047 60.3182Z" fill="#818181"/>
<circle cx="147.5" cy="56" r="2" fill="#008000" fill-opacity="0.3"/>
<path d="M155.381 53.7273H156.432L158.903 59.7642H158.989L161.46 53.7273H162.511V61H161.688V55.4744H161.616L159.344 61H158.548L156.276 55.4744H156.205V61H155.381V53.7273ZM164.164 61V55.5455H165.002V61H164.164ZM164.59 54.6364C164.426 54.6364 164.285 54.5807 164.167 54.4695C164.051 54.3582 163.993 54.2244 163.993 54.0682C163.993 53.9119 164.051 53.7782 164.167 53.6669C164.285 53.5556 164.426 53.5 164.59 53.5C164.753 53.5 164.893 53.5556 165.009 53.6669C165.127 53.7782 165.186 53.9119 165.186 54.0682C165.186 54.2244 165.127 54.3582 165.009 54.4695C164.893 54.5807 164.753 54.6364 164.59 54.6364ZM168.596 61.1136C168.142 61.1136 167.74 60.9988 167.392 60.7692C167.044 60.5372 166.772 60.2105 166.576 59.7891C166.379 59.3653 166.281 58.8646 166.281 58.2869C166.281 57.714 166.379 57.2169 166.576 56.7955C166.772 56.3741 167.046 56.0485 167.396 55.8189C167.746 55.5893 168.151 55.4744 168.61 55.4744C168.966 55.4744 169.246 55.5336 169.452 55.652C169.66 55.768 169.819 55.9006 169.928 56.0497C170.039 56.1965 170.126 56.3172 170.187 56.4119H170.258V53.7273H171.096V61H170.287V60.1619H170.187C170.126 60.2614 170.038 60.3868 169.924 60.5384C169.811 60.6875 169.649 60.8213 169.438 60.9396C169.227 61.0556 168.947 61.1136 168.596 61.1136ZM168.71 60.3608C169.046 60.3608 169.33 60.2732 169.562 60.098C169.794 59.9205 169.971 59.6754 170.091 59.3629C170.212 59.0481 170.272 58.6847 170.272 58.2727C170.272 57.8655 170.213 57.5092 170.095 57.2038C169.976 56.8961 169.801 56.657 169.569 56.4865C169.337 56.3137 169.051 56.2273 168.71 56.2273C168.355 56.2273 168.059 56.3184 167.822 56.5007C167.588 56.6806 167.411 56.9257 167.293 57.2358C167.177 57.5436 167.119 57.8892 167.119 58.2727C167.119 58.661 167.178 59.0137 167.297 59.331C167.417 59.6458 167.595 59.8968 167.829 60.0838C168.066 60.2685 168.359 60.3608 168.71 60.3608ZM175.873 57.4915V58.2727H172.691V57.4915H175.873ZM178.185 53.7273V61H177.347V53.7273H178.185ZM182.007 61.1136C181.482 61.1136 181.028 60.9976 180.647 60.7656C180.268 60.5312 179.976 60.2045 179.77 59.7855C179.566 59.3641 179.464 58.8741 179.464 58.3153C179.464 57.7566 179.566 57.2642 179.77 56.8381C179.976 56.4096 180.262 56.0758 180.629 55.8366C180.999 55.5952 181.429 55.4744 181.922 55.4744C182.206 55.4744 182.487 55.5218 182.763 55.6165C183.04 55.7112 183.293 55.8651 183.52 56.0781C183.747 56.2888 183.928 56.5682 184.063 56.9162C184.198 57.2642 184.266 57.6927 184.266 58.2017V58.5568H180.061V57.8324H183.413C183.413 57.5246 183.352 57.25 183.229 57.0085C183.108 56.767 182.935 56.5765 182.71 56.4368C182.488 56.2971 182.225 56.2273 181.922 56.2273C181.588 56.2273 181.299 56.3101 181.055 56.4759C180.814 56.6392 180.628 56.8523 180.498 57.1151C180.368 57.3778 180.303 57.6596 180.303 57.9602V58.4432C180.303 58.8551 180.374 59.2043 180.516 59.4908C180.66 59.7749 180.86 59.9915 181.116 60.1406C181.371 60.2874 181.669 60.3608 182.007 60.3608C182.227 60.3608 182.426 60.33 182.604 60.2685C182.784 60.2045 182.939 60.1098 183.069 59.9844C183.199 59.8565 183.3 59.6979 183.371 59.5085L184.18 59.7358C184.095 60.0104 183.952 60.2519 183.751 60.4602C183.549 60.6662 183.301 60.8272 183.005 60.9432C182.709 61.0568 182.376 61.1136 182.007 61.1136ZM189.835 55.5455L187.818 61H186.965L184.948 55.5455H185.857L187.363 59.892H187.42L188.926 55.5455H189.835ZM193.032 61.1136C192.507 61.1136 192.054 60.9976 191.672 60.7656C191.294 60.5312 191.001 60.2045 190.795 59.7855C190.592 59.3641 190.49 58.8741 190.49 58.3153C190.49 57.7566 190.592 57.2642 190.795 56.8381C191.001 56.4096 191.288 56.0758 191.655 55.8366C192.024 55.5952 192.455 55.4744 192.947 55.4744C193.231 55.4744 193.512 55.5218 193.789 55.6165C194.066 55.7112 194.318 55.8651 194.545 56.0781C194.773 56.2888 194.954 56.5682 195.089 56.9162C195.224 57.2642 195.291 57.6927 195.291 58.2017V58.5568H191.086V57.8324H194.439C194.439 57.5246 194.377 57.25 194.254 57.0085C194.133 56.767 193.961 56.5765 193.736 56.4368C193.513 56.2971 193.25 56.2273 192.947 56.2273C192.613 56.2273 192.325 56.3101 192.081 56.4759C191.839 56.6392 191.653 56.8523 191.523 57.1151C191.393 57.3778 191.328 57.6596 191.328 57.9602V58.4432C191.328 58.8551 191.399 59.2043 191.541 59.4908C191.685 59.7749 191.885 59.9915 192.141 60.1406C192.397 60.2874 192.694 60.3608 193.032 60.3608C193.253 60.3608 193.452 60.33 193.629 60.2685C193.809 60.2045 193.964 60.1098 194.094 59.9844C194.224 59.8565 194.325 59.6979 194.396 59.5085L195.206 59.7358C195.121 60.0104 194.977 60.2519 194.776 60.4602C194.575 60.6662 194.326 60.8272 194.03 60.9432C193.734 61.0568 193.402 61.1136 193.032 61.1136ZM197.404 53.7273V61H196.566V53.7273H197.404Z" fill="#818181"/>
</g>
<defs>
<filter id="filter0_d_290_3765" x="0" y="0" width="284" height="94" filterUnits="userSpaceOnUse" color-interpolation-filters="sRGB">
<feFlood flood-opacity="0" result="BackgroundImageFix"/>
<feColorMatrix in="SourceAlpha" type="matrix" values="0 0 0 0 0 0 0 0 0 0 0 0 0 0 0 0 0 0 127 0" result="hardAlpha"/>
<feOffset dy="3"/>
<feGaussianBlur stdDeviation="8"/>
<feComposite in2="hardAlpha" operator="out"/>
<feColorMatrix type="matrix" values="0 0 0 0 0 0 0 0 0 0 0 0 0 0 0 0 0 0 0.05 0"/>
<feBlend mode="normal" in2="BackgroundImageFix" result="effect1_dropShadow_290_3765"/>
<feBlend mode="normal" in="SourceGraphic" in2="effect1_dropShadow_290_3765" result="shape"/>
</filter>
</defs>
</svg>
