<svg width="296" height="94" viewBox="0 0 296 94" fill="none" xmlns="http://www.w3.org/2000/svg">
<g filter="url(#filter0_d_290_3778)">
<rect x="16" y="13" width="264" height="62" rx="8.1" fill="white"/>
<path d="M36.5376 30.6172C36.4912 30.183 36.2957 29.8449 35.951 29.603C35.6096 29.361 35.1655 29.2401 34.6186 29.2401C34.2341 29.2401 33.9044 29.2981 33.6293 29.4141C33.3542 29.5301 33.1437 29.6875 32.9979 29.8864C32.852 30.0852 32.7775 30.3123 32.7741 30.5675C32.7741 30.7796 32.8222 30.9635 32.9183 31.1193C33.0178 31.2751 33.152 31.4077 33.321 31.517C33.4901 31.6231 33.6773 31.7126 33.8828 31.7855C34.0883 31.8584 34.2955 31.9197 34.5043 31.9695L35.4588 32.2081C35.8433 32.2976 36.2128 32.4186 36.5675 32.571C36.9254 32.7235 37.2453 32.9157 37.527 33.1477C37.812 33.3797 38.0374 33.6598 38.2031 33.9879C38.3688 34.3161 38.4517 34.7005 38.4517 35.1413C38.4517 35.7379 38.2992 36.2633 37.9943 36.7173C37.6894 37.1681 37.2486 37.5211 36.6719 37.7763C36.0985 38.0282 35.4041 38.1541 34.5888 38.1541C33.7966 38.1541 33.1089 38.0315 32.5256 37.7862C31.9455 37.541 31.4915 37.183 31.1634 36.7124C30.8385 36.2417 30.6629 35.6683 30.6364 34.9922H32.451C32.4775 35.3468 32.5869 35.6418 32.7791 35.8771C32.9714 36.1125 33.2216 36.2881 33.5298 36.4041C33.8414 36.5201 34.1894 36.5781 34.5739 36.5781C34.9749 36.5781 35.3262 36.5185 35.6278 36.3991C35.9328 36.2765 36.1714 36.1075 36.3438 35.892C36.5161 35.6733 36.6039 35.4181 36.6072 35.1264C36.6039 34.8613 36.526 34.6425 36.3736 34.4702C36.2211 34.2945 36.0073 34.1487 35.7322 34.0327C35.4605 33.9134 35.1423 33.8073 34.7777 33.7145L33.6193 33.4162C32.7808 33.2008 32.1179 32.8743 31.6307 32.4368C31.1468 31.996 30.9048 31.411 30.9048 30.6818C30.9048 30.0819 31.0672 29.5566 31.392 29.1058C31.7202 28.6551 32.166 28.3054 32.7294 28.0568C33.2929 27.8049 33.9309 27.679 34.6435 27.679C35.366 27.679 35.9991 27.8049 36.5426 28.0568C37.0895 28.3054 37.5187 28.6518 37.8303 29.0959C38.1418 29.5367 38.3026 30.0438 38.3125 30.6172H36.5376ZM43.3475 38.1491C42.6017 38.1491 41.9554 37.9851 41.4086 37.657C40.8617 37.3288 40.4374 36.8698 40.1358 36.2798C39.8375 35.6899 39.6884 35.0005 39.6884 34.2116C39.6884 33.4228 39.8375 32.7318 40.1358 32.1385C40.4374 31.5452 40.8617 31.0845 41.4086 30.7564C41.9554 30.4283 42.6017 30.2642 43.3475 30.2642C44.0932 30.2642 44.7395 30.4283 45.2864 30.7564C45.8333 31.0845 46.2559 31.5452 46.5542 32.1385C46.8558 32.7318 47.0066 33.4228 47.0066 34.2116C47.0066 35.0005 46.8558 35.6899 46.5542 36.2798C46.2559 36.8698 45.8333 37.3288 45.2864 37.657C44.7395 37.9851 44.0932 38.1491 43.3475 38.1491ZM43.3574 36.7074C43.7618 36.7074 44.0998 36.5964 44.3716 36.3743C44.6434 36.1489 44.8456 35.8473 44.9782 35.4695C45.1141 35.0916 45.182 34.6707 45.182 34.2067C45.182 33.7393 45.1141 33.3168 44.9782 32.9389C44.8456 32.5578 44.6434 32.2545 44.3716 32.0291C44.0998 31.8037 43.7618 31.6911 43.3574 31.6911C42.9431 31.6911 42.5984 31.8037 42.3233 32.0291C42.0516 32.2545 41.8477 32.5578 41.7118 32.9389C41.5792 33.3168 41.513 33.7393 41.513 34.2067C41.513 34.6707 41.5792 35.0916 41.7118 35.4695C41.8477 35.8473 42.0516 36.1489 42.3233 36.3743C42.5984 36.5964 42.9431 36.7074 43.3574 36.7074ZM52.402 30.3636V31.7557H47.8878V30.3636H52.402ZM49.0163 38V29.6428C49.0163 29.129 49.1224 28.7015 49.3345 28.3601C49.55 28.0187 49.8383 27.7635 50.1996 27.5945C50.5608 27.4254 50.9619 27.3409 51.4027 27.3409C51.7143 27.3409 51.991 27.3658 52.233 27.4155C52.4749 27.4652 52.6539 27.5099 52.7699 27.5497L52.4119 28.9418C52.3357 28.9186 52.2396 28.8954 52.1236 28.8722C52.0076 28.8456 51.8783 28.8324 51.7358 28.8324C51.401 28.8324 51.1641 28.9136 51.0249 29.076C50.889 29.2351 50.821 29.4638 50.821 29.7621V38H49.0163ZM57.6246 30.3636V31.7557H53.2347V30.3636H57.6246ZM54.3185 28.5341H56.1183V35.7031C56.1183 35.9451 56.1547 36.1307 56.2276 36.2599C56.3039 36.3859 56.4033 36.4721 56.5259 36.5185C56.6486 36.5649 56.7844 36.5881 56.9336 36.5881C57.0463 36.5881 57.149 36.5798 57.2418 36.5632C57.3379 36.5466 57.4109 36.5317 57.4606 36.5185L57.7638 37.9254C57.6677 37.9586 57.5302 37.995 57.3512 38.0348C57.1755 38.0746 56.9601 38.0978 56.7049 38.1044C56.2541 38.1177 55.8481 38.0497 55.4869 37.9006C55.1256 37.7481 54.8389 37.5128 54.6268 37.1946C54.418 36.8764 54.3152 36.4787 54.3185 36.0014V28.5341ZM60.7058 38L58.5481 30.3636H60.3826L61.725 35.733H61.7946L63.1667 30.3636H64.9814L66.3535 35.7031H66.4281L67.7505 30.3636H69.59L67.4274 38H65.5531L64.1213 32.8395H64.0169L62.585 38H60.7058ZM73.044 38.1541C72.5601 38.1541 72.1243 38.0679 71.7365 37.8956C71.352 37.7199 71.0471 37.4614 70.8217 37.12C70.5997 36.7786 70.4886 36.3577 70.4886 35.8572C70.4886 35.4264 70.5682 35.0701 70.7273 34.7884C70.8864 34.5066 71.1035 34.2812 71.3786 34.1122C71.6536 33.9432 71.9635 33.8156 72.3082 33.7294C72.6563 33.6399 73.0159 33.5753 73.3871 33.5355C73.8345 33.4891 74.1974 33.4477 74.4759 33.4112C74.7543 33.3714 74.9564 33.3118 75.0824 33.2322C75.2116 33.1494 75.2763 33.0218 75.2763 32.8494V32.8196C75.2763 32.4451 75.1652 32.1551 74.9432 31.9496C74.7211 31.7441 74.4013 31.6413 73.9837 31.6413C73.5429 31.6413 73.1932 31.7375 72.9347 31.9297C72.6795 32.1219 72.5071 32.349 72.4176 32.6108L70.7372 32.3722C70.8698 31.9081 71.0885 31.5204 71.3935 31.2088C71.6984 30.8939 72.0713 30.6586 72.5121 30.5028C72.9529 30.3438 73.4401 30.2642 73.9737 30.2642C74.3416 30.2642 74.7079 30.3073 75.0724 30.3935C75.437 30.4796 75.7701 30.6222 76.0717 30.821C76.3733 31.0166 76.6153 31.2834 76.7976 31.6214C76.9832 31.9595 77.076 32.3821 77.076 32.8892V38H75.3459V36.951H75.2862C75.1768 37.1631 75.0227 37.362 74.8239 37.5476C74.6283 37.7299 74.3814 37.8774 74.0831 37.9901C73.7881 38.0994 73.4418 38.1541 73.044 38.1541ZM73.5114 36.8317C73.8726 36.8317 74.1858 36.7604 74.451 36.6179C74.7161 36.4721 74.92 36.2798 75.0625 36.0412C75.2083 35.8026 75.2812 35.5424 75.2812 35.2607V34.3608C75.2249 34.4072 75.1288 34.4503 74.9929 34.4901C74.8603 34.5298 74.7112 34.5646 74.5455 34.5945C74.3797 34.6243 74.2157 34.6508 74.0533 34.674C73.8909 34.6972 73.75 34.7171 73.6307 34.7337C73.3622 34.7701 73.1219 34.8298 72.9098 34.9126C72.6977 34.9955 72.5303 35.1115 72.4077 35.2607C72.285 35.4065 72.2237 35.5954 72.2237 35.8274C72.2237 36.1589 72.3447 36.4091 72.5866 36.5781C72.8286 36.7472 73.1368 36.8317 73.5114 36.8317ZM78.8857 38V30.3636H80.6307V31.6364H80.7102C80.8494 31.1955 81.0881 30.8558 81.4261 30.6172C81.7675 30.3752 82.157 30.2543 82.5945 30.2543C82.6939 30.2543 82.8049 30.2592 82.9276 30.2692C83.0535 30.2758 83.1579 30.2874 83.2408 30.304V31.9595C83.1645 31.933 83.0436 31.9098 82.8778 31.8899C82.7154 31.8667 82.558 31.8551 82.4055 31.8551C82.0774 31.8551 81.7824 31.9264 81.5206 32.0689C81.2621 32.2081 81.0582 32.402 80.9091 32.6506C80.7599 32.8991 80.6854 33.1858 80.6854 33.5107V38H78.8857ZM87.5027 38.1491C86.737 38.1491 86.0758 37.9901 85.519 37.6719C84.9655 37.3504 84.5396 36.8963 84.2413 36.3097C83.943 35.7197 83.7939 35.0253 83.7939 34.2266C83.7939 33.4411 83.943 32.7517 84.2413 32.1584C84.5429 31.5618 84.9638 31.0978 85.5041 30.7663C86.0443 30.4316 86.679 30.2642 87.4082 30.2642C87.8788 30.2642 88.323 30.3404 88.7406 30.4929C89.1615 30.642 89.5327 30.8741 89.8542 31.1889C90.179 31.5038 90.4342 31.9048 90.6199 32.392C90.8055 32.8759 90.8983 33.4527 90.8983 34.1222V34.674H84.639V33.4609H89.1731C89.1698 33.1162 89.0952 32.8097 88.9494 32.5412C88.8036 32.2694 88.5997 32.0556 88.3379 31.8999C88.0794 31.7441 87.7778 31.6662 87.4331 31.6662C87.0652 31.6662 86.742 31.7557 86.4636 31.9347C86.1852 32.1103 85.9681 32.3423 85.8123 32.6307C85.6599 32.9157 85.582 33.2289 85.5787 33.5703V34.6293C85.5787 35.0734 85.6599 35.4545 85.8223 35.7727C85.9847 36.0876 86.2117 36.3295 86.5034 36.4986C86.795 36.6643 87.1364 36.7472 87.5275 36.7472C87.7894 36.7472 88.0263 36.7107 88.2385 36.6378C88.4506 36.5616 88.6345 36.4505 88.7903 36.3047C88.9461 36.1589 89.0637 35.9782 89.1433 35.7628L90.8237 35.9517C90.7176 36.3958 90.5154 36.7836 90.2172 37.1151C89.9222 37.4432 89.5443 37.6984 89.0836 37.8807C88.6229 38.0597 88.0959 38.1491 87.5027 38.1491ZM99.4233 38H95.973V27.8182H99.4929C100.504 27.8182 101.372 28.022 102.098 28.4297C102.827 28.834 103.387 29.4157 103.778 30.1747C104.17 30.9337 104.365 31.8419 104.365 32.8991C104.365 33.9598 104.168 34.8712 103.773 35.6335C103.382 36.3958 102.817 36.9808 102.078 37.3885C101.342 37.7962 100.457 38 99.4233 38ZM97.8175 36.4041H99.3338C100.043 36.4041 100.635 36.2749 101.109 36.0163C101.583 35.7545 101.939 35.3651 102.178 34.848C102.416 34.3277 102.536 33.678 102.536 32.8991C102.536 32.1203 102.416 31.474 102.178 30.9602C101.939 30.4432 101.586 30.0571 101.119 29.8018C100.655 29.5433 100.078 29.4141 99.3885 29.4141H97.8175V36.4041ZM109.419 38.1491C108.653 38.1491 107.992 37.9901 107.435 37.6719C106.882 37.3504 106.456 36.8963 106.157 36.3097C105.859 35.7197 105.71 35.0253 105.71 34.2266C105.71 33.4411 105.859 32.7517 106.157 32.1584C106.459 31.5618 106.88 31.0978 107.42 30.7663C107.96 30.4316 108.595 30.2642 109.324 30.2642C109.795 30.2642 110.239 30.3404 110.657 30.4929C111.078 30.642 111.449 30.8741 111.77 31.1889C112.095 31.5038 112.35 31.9048 112.536 32.392C112.721 32.8759 112.814 33.4527 112.814 34.1222V34.674H106.555V33.4609H111.089C111.086 33.1162 111.011 32.8097 110.865 32.5412C110.72 32.2694 110.516 32.0556 110.254 31.8999C109.995 31.7441 109.694 31.6662 109.349 31.6662C108.981 31.6662 108.658 31.7557 108.38 31.9347C108.101 32.1103 107.884 32.3423 107.728 32.6307C107.576 32.9157 107.498 33.2289 107.495 33.5703V34.6293C107.495 35.0734 107.576 35.4545 107.738 35.7727C107.901 36.0876 108.128 36.3295 108.419 36.4986C108.711 36.6643 109.052 36.7472 109.444 36.7472C109.705 36.7472 109.942 36.7107 110.154 36.6378C110.367 36.5616 110.551 36.4505 110.706 36.3047C110.862 36.1589 110.98 35.9782 111.059 35.7628L112.74 35.9517C112.634 36.3958 112.431 36.7836 112.133 37.1151C111.838 37.4432 111.46 37.6984 111 37.8807C110.539 38.0597 110.012 38.1491 109.419 38.1491ZM120.939 30.3636L118.22 38H116.231L113.512 30.3636H115.431L117.186 36.0362H117.265L119.025 30.3636H120.939ZM125.305 38.1491C124.54 38.1491 123.879 37.9901 123.322 37.6719C122.768 37.3504 122.342 36.8963 122.044 36.3097C121.746 35.7197 121.597 35.0253 121.597 34.2266C121.597 33.4411 121.746 32.7517 122.044 32.1584C122.346 31.5618 122.767 31.0978 123.307 30.7663C123.847 30.4316 124.482 30.2642 125.211 30.2642C125.682 30.2642 126.126 30.3404 126.543 30.4929C126.964 30.642 127.335 30.8741 127.657 31.1889C127.982 31.5038 128.237 31.9048 128.423 32.392C128.608 32.8759 128.701 33.4527 128.701 34.1222V34.674H122.442V33.4609H126.976C126.973 33.1162 126.898 32.8097 126.752 32.5412C126.606 32.2694 126.402 32.0556 126.141 31.8999C125.882 31.7441 125.58 31.6662 125.236 31.6662C124.868 31.6662 124.545 31.7557 124.266 31.9347C123.988 32.1103 123.771 32.3423 123.615 32.6307C123.463 32.9157 123.385 33.2289 123.381 33.5703V34.6293C123.381 35.0734 123.463 35.4545 123.625 35.7727C123.787 36.0876 124.014 36.3295 124.306 36.4986C124.598 36.6643 124.939 36.7472 125.33 36.7472C125.592 36.7472 125.829 36.7107 126.041 36.6378C126.253 36.5616 126.437 36.4505 126.593 36.3047C126.749 36.1589 126.866 35.9782 126.946 35.7628L128.626 35.9517C128.52 36.3958 128.318 36.7836 128.02 37.1151C127.725 37.4432 127.347 37.6984 126.886 37.8807C126.426 38.0597 125.899 38.1491 125.305 38.1491ZM132.023 27.8182V38H130.224V27.8182H132.023ZM137.205 38.1491C136.459 38.1491 135.813 37.9851 135.266 37.657C134.719 37.3288 134.295 36.8698 133.993 36.2798C133.695 35.6899 133.546 35.0005 133.546 34.2116C133.546 33.4228 133.695 32.7318 133.993 32.1385C134.295 31.5452 134.719 31.0845 135.266 30.7564C135.813 30.4283 136.459 30.2642 137.205 30.2642C137.951 30.2642 138.597 30.4283 139.144 30.7564C139.691 31.0845 140.113 31.5452 140.412 32.1385C140.713 32.7318 140.864 33.4228 140.864 34.2116C140.864 35.0005 140.713 35.6899 140.412 36.2798C140.113 36.8698 139.691 37.3288 139.144 37.657C138.597 37.9851 137.951 38.1491 137.205 38.1491ZM137.215 36.7074C137.619 36.7074 137.957 36.5964 138.229 36.3743C138.501 36.1489 138.703 35.8473 138.836 35.4695C138.971 35.0916 139.039 34.6707 139.039 34.2067C139.039 33.7393 138.971 33.3168 138.836 32.9389C138.703 32.5578 138.501 32.2545 138.229 32.0291C137.957 31.8037 137.619 31.6911 137.215 31.6911C136.801 31.6911 136.456 31.8037 136.181 32.0291C135.909 32.2545 135.705 32.5578 135.569 32.9389C135.437 33.3168 135.37 33.7393 135.37 34.2067C135.37 34.6707 135.437 35.0916 135.569 35.4695C135.705 35.8473 135.909 36.1489 136.181 36.3743C136.456 36.5964 136.801 36.7074 137.215 36.7074ZM142.392 40.8636V30.3636H144.161V31.6264H144.266C144.359 31.4408 144.49 31.2436 144.659 31.0348C144.828 30.8227 145.056 30.642 145.345 30.4929C145.633 30.3404 146.001 30.2642 146.448 30.2642C147.038 30.2642 147.57 30.415 148.044 30.7166C148.521 31.0149 148.899 31.4574 149.178 32.044C149.459 32.6274 149.6 33.3433 149.6 34.1918C149.6 35.0303 149.463 35.7429 149.188 36.3295C148.913 36.9162 148.538 37.3636 148.064 37.6719C147.59 37.9801 147.053 38.1342 146.453 38.1342C146.016 38.1342 145.653 38.0613 145.365 37.9155C145.076 37.7696 144.844 37.594 144.669 37.3885C144.496 37.1797 144.362 36.9825 144.266 36.7969H144.191V40.8636H142.392ZM144.156 34.1818C144.156 34.6757 144.226 35.1082 144.365 35.4794C144.508 35.8506 144.712 36.1406 144.977 36.3494C145.245 36.5549 145.57 36.6577 145.951 36.6577C146.349 36.6577 146.682 36.5516 146.95 36.3395C147.219 36.1241 147.421 35.8307 147.557 35.4595C147.696 35.085 147.766 34.6591 147.766 34.1818C147.766 33.7079 147.698 33.2869 147.562 32.919C147.426 32.5511 147.224 32.2628 146.955 32.054C146.687 31.8452 146.352 31.7408 145.951 31.7408C145.567 31.7408 145.24 31.8419 144.972 32.044C144.703 32.2462 144.499 32.5296 144.36 32.8942C144.224 33.2588 144.156 33.688 144.156 34.1818ZM154.522 38.1491C153.757 38.1491 153.095 37.9901 152.539 37.6719C151.985 37.3504 151.559 36.8963 151.261 36.3097C150.963 35.7197 150.813 35.0253 150.813 34.2266C150.813 33.4411 150.963 32.7517 151.261 32.1584C151.562 31.5618 151.983 31.0978 152.524 30.7663C153.064 30.4316 153.699 30.2642 154.428 30.2642C154.898 30.2642 155.343 30.3404 155.76 30.4929C156.181 30.642 156.552 30.8741 156.874 31.1889C157.199 31.5038 157.454 31.9048 157.639 32.392C157.825 32.8759 157.918 33.4527 157.918 34.1222V34.674H151.659V33.4609H156.193C156.189 33.1162 156.115 32.8097 155.969 32.5412C155.823 32.2694 155.619 32.0556 155.357 31.8999C155.099 31.7441 154.797 31.6662 154.453 31.6662C154.085 31.6662 153.762 31.7557 153.483 31.9347C153.205 32.1103 152.988 32.3423 152.832 32.6307C152.679 32.9157 152.602 33.2289 152.598 33.5703V34.6293C152.598 35.0734 152.679 35.4545 152.842 35.7727C153.004 36.0876 153.231 36.3295 153.523 36.4986C153.815 36.6643 154.156 36.7472 154.547 36.7472C154.809 36.7472 155.046 36.7107 155.258 36.6378C155.47 36.5616 155.654 36.4505 155.81 36.3047C155.966 36.1589 156.083 35.9782 156.163 35.7628L157.843 35.9517C157.737 36.3958 157.535 36.7836 157.237 37.1151C156.942 37.4432 156.564 37.6984 156.103 37.8807C155.642 38.0597 155.115 38.1491 154.522 38.1491ZM159.44 38V30.3636H161.185V31.6364H161.265C161.404 31.1955 161.643 30.8558 161.981 30.6172C162.322 30.3752 162.712 30.2543 163.149 30.2543C163.249 30.2543 163.36 30.2592 163.482 30.2692C163.608 30.2758 163.713 30.2874 163.795 30.304V31.9595C163.719 31.933 163.598 31.9098 163.433 31.8899C163.27 31.8667 163.113 31.8551 162.96 31.8551C162.632 31.8551 162.337 31.9264 162.075 32.0689C161.817 32.2081 161.613 32.402 161.464 32.6506C161.315 32.8991 161.24 33.1858 161.24 33.5107V38H159.44ZM168.911 32.9091C168.911 31.6662 169.075 30.5244 169.403 29.4837C169.735 28.4396 170.227 27.4751 170.88 26.5902H172.575C172.323 26.9183 172.088 27.321 171.869 27.7983C171.651 28.2723 171.46 28.7926 171.298 29.3594C171.138 29.9228 171.013 30.5078 170.92 31.1143C170.83 31.7209 170.786 32.3191 170.786 32.9091C170.786 33.6946 170.863 34.4901 171.019 35.2955C171.178 36.1009 171.392 36.8482 171.661 37.5376C171.932 38.2237 172.237 38.7855 172.575 39.223H170.88C170.227 38.3381 169.735 37.3752 169.403 36.3345C169.075 35.2905 168.911 34.1487 168.911 32.9091ZM174.053 38V27.8182H177.871C178.653 27.8182 179.31 27.9541 179.84 28.2259C180.374 28.4976 180.776 28.8788 181.048 29.3693C181.323 29.8565 181.461 30.425 181.461 31.0746C181.461 31.7275 181.322 32.2943 181.043 32.7749C180.768 33.2521 180.362 33.6217 179.825 33.8835C179.288 34.142 178.629 34.2713 177.846 34.2713H175.127V32.7401H177.598C178.055 32.7401 178.43 32.6771 178.721 32.5511C179.013 32.4219 179.229 32.2346 179.368 31.9893C179.51 31.7408 179.581 31.4358 179.581 31.0746C179.581 30.7133 179.51 30.4051 179.368 30.1499C179.225 29.8913 179.008 29.6958 178.716 29.5632C178.425 29.4273 178.049 29.3594 177.588 29.3594H175.898V38H174.053ZM179.313 33.3864L181.834 38H179.775L177.3 33.3864H179.313ZM186.35 38.1491C185.585 38.1491 184.923 37.9901 184.367 37.6719C183.813 37.3504 183.387 36.8963 183.089 36.3097C182.791 35.7197 182.642 35.0253 182.642 34.2266C182.642 33.4411 182.791 32.7517 183.089 32.1584C183.391 31.5618 183.811 31.0978 184.352 30.7663C184.892 30.4316 185.527 30.2642 186.256 30.2642C186.727 30.2642 187.171 30.3404 187.588 30.4929C188.009 30.642 188.38 30.8741 188.702 31.1889C189.027 31.5038 189.282 31.9048 189.468 32.392C189.653 32.8759 189.746 33.4527 189.746 34.1222V34.674H183.487V33.4609H188.021C188.017 33.1162 187.943 32.8097 187.797 32.5412C187.651 32.2694 187.447 32.0556 187.186 31.8999C186.927 31.7441 186.625 31.6662 186.281 31.6662C185.913 31.6662 185.59 31.7557 185.311 31.9347C185.033 32.1103 184.816 32.3423 184.66 32.6307C184.508 32.9157 184.43 33.2289 184.426 33.5703V34.6293C184.426 35.0734 184.508 35.4545 184.67 35.7727C184.832 36.0876 185.059 36.3295 185.351 36.4986C185.643 36.6643 185.984 36.7472 186.375 36.7472C186.637 36.7472 186.874 36.7107 187.086 36.6378C187.298 36.5616 187.482 36.4505 187.638 36.3047C187.794 36.1589 187.911 35.9782 187.991 35.7628L189.671 35.9517C189.565 36.3958 189.363 36.7836 189.065 37.1151C188.77 37.4432 188.392 37.6984 187.931 37.8807C187.471 38.0597 186.944 38.1491 186.35 38.1491ZM191.268 38V30.3636H192.989V31.6612H193.078C193.237 31.2237 193.501 30.8823 193.869 30.6371C194.237 30.3885 194.676 30.2642 195.186 30.2642C195.703 30.2642 196.139 30.3902 196.494 30.642C196.852 30.8906 197.103 31.2304 197.249 31.6612H197.329C197.498 31.237 197.783 30.8989 198.184 30.647C198.588 30.3918 199.067 30.2642 199.621 30.2642C200.323 30.2642 200.897 30.4863 201.341 30.9304C201.785 31.3745 202.007 32.0225 202.007 32.8743V38H200.202V33.1527C200.202 32.6787 200.076 32.3324 199.825 32.1136C199.573 31.8916 199.264 31.7805 198.9 31.7805C198.466 31.7805 198.126 31.9164 197.881 32.1882C197.639 32.4567 197.518 32.8063 197.518 33.2372V38H195.753V33.0781C195.753 32.6837 195.634 32.3688 195.395 32.1335C195.16 31.8982 194.851 31.7805 194.47 31.7805C194.212 31.7805 193.976 31.8468 193.764 31.9794C193.552 32.1087 193.383 32.2926 193.257 32.5312C193.131 32.7666 193.068 33.0417 193.068 33.3565V38H191.268ZM207.164 38.1491C206.418 38.1491 205.772 37.9851 205.225 37.657C204.678 37.3288 204.254 36.8698 203.952 36.2798C203.654 35.6899 203.505 35.0005 203.505 34.2116C203.505 33.4228 203.654 32.7318 203.952 32.1385C204.254 31.5452 204.678 31.0845 205.225 30.7564C205.772 30.4283 206.418 30.2642 207.164 30.2642C207.91 30.2642 208.556 30.4283 209.103 30.7564C209.65 31.0845 210.072 31.5452 210.371 32.1385C210.672 32.7318 210.823 33.4228 210.823 34.2116C210.823 35.0005 210.672 35.6899 210.371 36.2798C210.072 36.8698 209.65 37.3288 209.103 37.657C208.556 37.9851 207.91 38.1491 207.164 38.1491ZM207.174 36.7074C207.578 36.7074 207.916 36.5964 208.188 36.3743C208.46 36.1489 208.662 35.8473 208.795 35.4695C208.93 35.0916 208.998 34.6707 208.998 34.2067C208.998 33.7393 208.93 33.3168 208.795 32.9389C208.662 32.5578 208.46 32.2545 208.188 32.0291C207.916 31.8037 207.578 31.6911 207.174 31.6911C206.76 31.6911 206.415 31.8037 206.14 32.0291C205.868 32.2545 205.664 32.5578 205.528 32.9389C205.396 33.3168 205.329 33.7393 205.329 34.2067C205.329 34.6707 205.396 35.0916 205.528 35.4695C205.664 35.8473 205.868 36.1489 206.14 36.3743C206.415 36.5964 206.76 36.7074 207.174 36.7074ZM216.164 30.3636V31.7557H211.774V30.3636H216.164ZM212.858 28.5341H214.657V35.7031C214.657 35.9451 214.694 36.1307 214.767 36.2599C214.843 36.3859 214.942 36.4721 215.065 36.5185C215.188 36.5649 215.324 36.5881 215.473 36.5881C215.585 36.5881 215.688 36.5798 215.781 36.5632C215.877 36.5466 215.95 36.5317 216 36.5185L216.303 37.9254C216.207 37.9586 216.069 37.995 215.89 38.0348C215.715 38.0746 215.499 38.0978 215.244 38.1044C214.793 38.1177 214.387 38.0497 214.026 37.9006C213.665 37.7481 213.378 37.5128 213.166 37.1946C212.957 36.8764 212.854 36.4787 212.858 36.0014V28.5341ZM220.968 38.1491C220.202 38.1491 219.541 37.9901 218.984 37.6719C218.43 37.3504 218.004 36.8963 217.706 36.3097C217.408 35.7197 217.259 35.0253 217.259 34.2266C217.259 33.4411 217.408 32.7517 217.706 32.1584C218.008 31.5618 218.429 31.0978 218.969 30.7663C219.509 30.4316 220.144 30.2642 220.873 30.2642C221.344 30.2642 221.788 30.3404 222.205 30.4929C222.626 30.642 222.998 30.8741 223.319 31.1889C223.644 31.5038 223.899 31.9048 224.085 32.392C224.27 32.8759 224.363 33.4527 224.363 34.1222V34.674H218.104V33.4609H222.638C222.635 33.1162 222.56 32.8097 222.414 32.5412C222.268 32.2694 222.065 32.0556 221.803 31.8999C221.544 31.7441 221.243 31.6662 220.898 31.6662C220.53 31.6662 220.207 31.7557 219.928 31.9347C219.65 32.1103 219.433 32.3423 219.277 32.6307C219.125 32.9157 219.047 33.2289 219.044 33.5703V34.6293C219.044 35.0734 219.125 35.4545 219.287 35.7727C219.45 36.0876 219.677 36.3295 219.968 36.4986C220.26 36.6643 220.601 36.7472 220.992 36.7472C221.254 36.7472 221.491 36.7107 221.703 36.6378C221.915 36.5616 222.099 36.4505 222.255 36.3047C222.411 36.1589 222.529 35.9782 222.608 35.7628L224.289 35.9517C224.182 36.3958 223.98 36.7836 223.682 37.1151C223.387 37.4432 223.009 37.6984 222.548 37.8807C222.088 38.0597 221.561 38.1491 220.968 38.1491ZM238.536 32.9091C238.536 34.0062 238.33 34.9458 237.919 35.728C237.512 36.5069 236.955 37.1035 236.249 37.5178C235.546 37.9321 234.749 38.1392 233.858 38.1392C232.966 38.1392 232.167 37.9321 231.461 37.5178C230.759 37.1001 230.202 36.5019 229.791 35.723C229.383 34.9408 229.179 34.0028 229.179 32.9091C229.179 31.812 229.383 30.8741 229.791 30.0952C230.202 29.313 230.759 28.7147 231.461 28.3004C232.167 27.8861 232.966 27.679 233.858 27.679C234.749 27.679 235.546 27.8861 236.249 28.3004C236.955 28.7147 237.512 29.313 237.919 30.0952C238.33 30.8741 238.536 31.812 238.536 32.9091ZM236.681 32.9091C236.681 32.1368 236.56 31.4856 236.319 30.9553C236.08 30.4216 235.748 30.0189 235.324 29.7472C234.9 29.4721 234.411 29.3345 233.858 29.3345C233.304 29.3345 232.815 29.4721 232.391 29.7472C231.967 30.0189 231.634 30.4216 231.392 30.9553C231.153 31.4856 231.034 32.1368 231.034 32.9091C231.034 33.6813 231.153 34.3343 231.392 34.8679C231.634 35.3982 231.967 35.8009 232.391 36.076C232.815 36.3478 233.304 36.4837 233.858 36.4837C234.411 36.4837 234.9 36.3478 235.324 36.076C235.748 35.8009 236.08 35.3982 236.319 34.8679C236.56 34.3343 236.681 33.6813 236.681 32.9091ZM242 33.5256V38H240.2V30.3636H241.92V31.6612H242.01C242.185 31.2337 242.465 30.8939 242.85 30.642C243.238 30.3902 243.717 30.2642 244.287 30.2642C244.814 30.2642 245.273 30.3769 245.664 30.6023C246.058 30.8277 246.363 31.1541 246.579 31.5817C246.797 32.0092 246.905 32.5279 246.902 33.1378V38H245.102V33.4162C245.102 32.9058 244.97 32.5064 244.704 32.218C244.443 31.9297 244.08 31.7855 243.616 31.7855C243.301 31.7855 243.021 31.8551 242.775 31.9943C242.533 32.1302 242.343 32.3274 242.204 32.5859C242.068 32.8445 242 33.1577 242 33.5256ZM250.531 27.8182V38H248.731V27.8182H250.531ZM253.5 40.8636C253.255 40.8636 253.028 40.8438 252.819 40.804C252.614 40.7675 252.45 40.7244 252.327 40.6747L252.745 39.2727C253.007 39.349 253.24 39.3854 253.446 39.3821C253.651 39.3788 253.832 39.3142 253.988 39.1882C254.147 39.0656 254.281 38.8601 254.39 38.5717L254.544 38.1591L251.775 30.3636H253.684L255.444 36.1307H255.524L257.289 30.3636H259.203L256.145 38.9247C256.003 39.3291 255.814 39.6754 255.578 39.9638C255.343 40.2554 255.055 40.4775 254.713 40.63C254.375 40.7857 253.971 40.8636 253.5 40.8636ZM263.66 33.8487C263.66 35.0883 263.494 36.2301 263.163 37.2741C262.835 38.3149 262.344 39.2777 261.691 40.1626H259.996C260.251 39.8345 260.486 39.4335 260.702 38.9595C260.92 38.4856 261.109 37.9652 261.268 37.3984C261.431 36.8317 261.557 36.245 261.646 35.6385C261.739 35.032 261.786 34.4354 261.786 33.8487C261.786 33.0632 261.706 32.2678 261.547 31.4624C261.391 30.657 261.177 29.9096 260.906 29.2202C260.637 28.5308 260.334 27.9673 259.996 27.5298H261.691C262.344 28.4148 262.835 29.3793 263.163 30.4233C263.494 31.464 263.66 32.6058 263.66 33.8487Z" fill="#121212"/>
<circle cx="32" cy="56" r="2" fill="#008000" fill-opacity="0.3"/>
<path d="M39.8807 61V53.7273H42.3381C42.9063 53.7273 43.3726 53.8243 43.7372 54.0185C44.1018 54.2102 44.3717 54.4742 44.5469 54.8104C44.7221 55.1465 44.8097 55.5289 44.8097 55.9574C44.8097 56.3859 44.7221 56.7659 44.5469 57.0973C44.3717 57.4287 44.103 57.6892 43.7408 57.8786C43.3786 58.0656 42.9157 58.1591 42.3523 58.1591H40.3636V57.3636H42.3239C42.7121 57.3636 43.0246 57.3068 43.2614 57.1932C43.5005 57.0795 43.6733 56.9186 43.7798 56.7102C43.8887 56.4995 43.9432 56.2486 43.9432 55.9574C43.9432 55.6662 43.8887 55.4117 43.7798 55.1939C43.6709 54.9761 43.4969 54.808 43.2578 54.6896C43.0187 54.5689 42.7027 54.5085 42.3097 54.5085H40.7614V61H39.8807ZM43.304 57.733L45.0938 61H44.071L42.3097 57.733H43.304ZM48.3919 61.1136C47.8663 61.1136 47.4129 60.9976 47.0318 60.7656C46.653 60.5312 46.3606 60.2045 46.1547 59.7855C45.9511 59.3641 45.8493 58.8741 45.8493 58.3153C45.8493 57.7566 45.9511 57.2642 46.1547 56.8381C46.3606 56.4096 46.6471 56.0758 47.014 55.8366C47.3833 55.5952 47.8142 55.4744 48.3066 55.4744C48.5907 55.4744 48.8713 55.5218 49.1483 55.6165C49.4252 55.7112 49.6774 55.8651 49.9047 56.0781C50.1319 56.2888 50.313 56.5682 50.448 56.9162C50.5829 57.2642 50.6504 57.6927 50.6504 58.2017V58.5568H46.4458V57.8324H49.7981C49.7981 57.5246 49.7366 57.25 49.6135 57.0085C49.4927 56.767 49.3199 56.5765 49.095 56.4368C48.8725 56.2971 48.6097 56.2273 48.3066 56.2273C47.9728 56.2273 47.684 56.3101 47.4402 56.4759C47.1987 56.6392 47.0128 56.8523 46.8826 57.1151C46.7524 57.3778 46.6873 57.6596 46.6873 57.9602V58.4432C46.6873 58.8551 46.7583 59.2043 46.9004 59.4908C47.0448 59.7749 47.2449 59.9915 47.5005 60.1406C47.7562 60.2874 48.0533 60.3608 48.3919 60.3608C48.612 60.3608 48.8109 60.33 48.9885 60.2685C49.1684 60.2045 49.3234 60.1098 49.4537 59.9844C49.5839 59.8565 49.6845 59.6979 49.7555 59.5085L50.5652 59.7358C50.4799 60.0104 50.3367 60.2519 50.1355 60.4602C49.9342 60.6662 49.6857 60.8272 49.3897 60.9432C49.0938 61.0568 48.7612 61.1136 48.3919 61.1136ZM51.9252 61V55.5455H52.7349V56.3977H52.8059C52.9196 56.1065 53.103 55.8804 53.3564 55.7195C53.6097 55.5561 53.9139 55.4744 54.269 55.4744C54.6288 55.4744 54.9283 55.5561 55.1674 55.7195C55.4089 55.8804 55.5971 56.1065 55.7321 56.3977H55.7889C55.9286 56.116 56.1381 55.8923 56.4174 55.7266C56.6968 55.5585 57.0318 55.4744 57.4224 55.4744C57.9101 55.4744 58.309 55.6271 58.6191 55.9325C58.9293 56.2356 59.0843 56.7079 59.0843 57.3494V61H58.2463V57.3494C58.2463 56.947 58.1362 56.6593 57.916 56.4865C57.6958 56.3137 57.4366 56.2273 57.1383 56.2273C56.7548 56.2273 56.4577 56.3433 56.247 56.5753C56.0363 56.8049 55.9309 57.0961 55.9309 57.4489V61H55.0787V57.2642C55.0787 56.9541 54.978 56.7043 54.7768 56.5149C54.5756 56.3232 54.3163 56.2273 53.9991 56.2273C53.7813 56.2273 53.5777 56.2853 53.3883 56.4013C53.2013 56.5173 53.0498 56.6783 52.9338 56.8842C52.8201 57.0878 52.7633 57.3234 52.7633 57.5909V61H51.9252ZM62.8326 61.1136C62.3401 61.1136 61.9081 60.9964 61.5364 60.7621C61.1671 60.5277 60.8783 60.1998 60.6699 59.7784C60.464 59.357 60.361 58.8646 60.361 58.3011C60.361 57.733 60.464 57.237 60.6699 56.8132C60.8783 56.3894 61.1671 56.0604 61.5364 55.826C61.9081 55.5916 62.3401 55.4744 62.8326 55.4744C63.325 55.4744 63.7559 55.5916 64.1252 55.826C64.4969 56.0604 64.7857 56.3894 64.9917 56.8132C65.2 57.237 65.3042 57.733 65.3042 58.3011C65.3042 58.8646 65.2 59.357 64.9917 59.7784C64.7857 60.1998 64.4969 60.5277 64.1252 60.7621C63.7559 60.9964 63.325 61.1136 62.8326 61.1136ZM62.8326 60.3608C63.2066 60.3608 63.5144 60.2649 63.7559 60.0732C63.9973 59.8814 64.1761 59.6293 64.2921 59.3168C64.4081 59.0043 64.4661 58.6657 64.4661 58.3011C64.4661 57.9366 64.4081 57.5968 64.2921 57.282C64.1761 56.9671 63.9973 56.7126 63.7559 56.5185C63.5144 56.3243 63.2066 56.2273 62.8326 56.2273C62.4585 56.2273 62.1507 56.3243 61.9093 56.5185C61.6678 56.7126 61.4891 56.9671 61.373 57.282C61.257 57.5968 61.199 57.9366 61.199 58.3011C61.199 58.6657 61.257 59.0043 61.373 59.3168C61.4891 59.6293 61.6678 59.8814 61.9093 60.0732C62.1507 60.2649 62.4585 60.3608 62.8326 60.3608ZM68.9556 55.5455V56.2557H66.1289V55.5455H68.9556ZM66.9528 54.2386H67.7908V59.4375C67.7908 59.6742 67.8252 59.8518 67.8938 59.9702C67.9648 60.0862 68.0548 60.1643 68.1637 60.2045C68.275 60.2424 68.3922 60.2614 68.5153 60.2614C68.6076 60.2614 68.6834 60.2566 68.7425 60.2472C68.8017 60.2353 68.8491 60.2259 68.8846 60.2188L69.055 60.9716C68.9982 60.9929 68.9189 61.0142 68.8171 61.0355C68.7153 61.0592 68.5863 61.071 68.43 61.071C68.1933 61.071 67.9613 61.0201 67.734 60.9183C67.5091 60.8165 67.3221 60.6615 67.1729 60.4531C67.0262 60.2448 66.9528 59.982 66.9528 59.6648V54.2386ZM72.4446 61.1136C71.919 61.1136 71.4657 60.9976 71.0845 60.7656C70.7057 60.5312 70.4134 60.2045 70.2074 59.7855C70.0038 59.3641 69.902 58.8741 69.902 58.3153C69.902 57.7566 70.0038 57.2642 70.2074 56.8381C70.4134 56.4096 70.6998 56.0758 71.0668 55.8366C71.4361 55.5952 71.867 55.4744 72.3594 55.4744C72.6435 55.4744 72.924 55.5218 73.201 55.6165C73.478 55.7112 73.7301 55.8651 73.9574 56.0781C74.1847 56.2888 74.3658 56.5682 74.5007 56.9162C74.6357 57.2642 74.7031 57.6927 74.7031 58.2017V58.5568H70.4986V57.8324H73.8509C73.8509 57.5246 73.7893 57.25 73.6662 57.0085C73.5455 56.767 73.3726 56.5765 73.1477 56.4368C72.9252 56.2971 72.6624 56.2273 72.3594 56.2273C72.0256 56.2273 71.7367 56.3101 71.4929 56.4759C71.2514 56.6392 71.0656 56.8523 70.9354 57.1151C70.8052 57.3778 70.7401 57.6596 70.7401 57.9602V58.4432C70.7401 58.8551 70.8111 59.2043 70.9531 59.4908C71.0975 59.7749 71.2976 59.9915 71.5533 60.1406C71.8089 60.2874 72.1061 60.3608 72.4446 60.3608C72.6648 60.3608 72.8636 60.33 73.0412 60.2685C73.2211 60.2045 73.3762 60.1098 73.5064 59.9844C73.6366 59.8565 73.7372 59.6979 73.8082 59.5085L74.6179 59.7358C74.5327 60.0104 74.3894 60.2519 74.1882 60.4602C73.987 60.6662 73.7384 60.8272 73.4425 60.9432C73.1465 61.0568 72.8139 61.1136 72.4446 61.1136Z" fill="#818181"/>
<circle cx="88" cy="56" r="2" fill="#008000" fill-opacity="0.3"/>
<path d="M97.8977 61.9091V52.8182H98.4801V61.9091H97.8977ZM99.858 55.5455C99.8153 55.1856 99.6425 54.9062 99.3395 54.7074C99.0365 54.5085 98.6648 54.4091 98.2244 54.4091C97.9025 54.4091 97.6207 54.4612 97.3793 54.5653C97.1402 54.6695 96.9531 54.8127 96.8182 54.995C96.6856 55.1773 96.6193 55.3845 96.6193 55.6165C96.6193 55.8106 96.6655 55.9775 96.7578 56.1172C96.8525 56.2545 96.9732 56.3693 97.12 56.4616C97.2668 56.5516 97.4207 56.6262 97.5817 56.6854C97.7427 56.7422 97.8906 56.7884 98.0256 56.8239L98.7642 57.0227C98.9536 57.0724 99.1643 57.1411 99.3963 57.2287C99.6307 57.3163 99.8544 57.4358 100.067 57.5874C100.283 57.7365 100.46 57.9283 100.6 58.1626C100.74 58.397 100.81 58.6847 100.81 59.0256C100.81 59.4186 100.707 59.7737 100.501 60.0909C100.297 60.4081 99.9988 60.6603 99.6058 60.8473C99.2152 61.0343 98.7405 61.1278 98.1818 61.1278C97.661 61.1278 97.21 61.0438 96.8288 60.8757C96.45 60.7076 96.1518 60.4732 95.9339 60.1726C95.7185 59.8719 95.5966 59.5227 95.5682 59.125H96.4773C96.5009 59.3996 96.5933 59.6269 96.7543 59.8068C96.9176 59.9844 97.1236 60.117 97.3722 60.2045C97.6231 60.2898 97.893 60.3324 98.1818 60.3324C98.518 60.3324 98.8198 60.2779 99.0874 60.169C99.3549 60.0578 99.5668 59.9039 99.723 59.7074C99.8793 59.5085 99.9574 59.2765 99.9574 59.0114C99.9574 58.7699 99.8899 58.5734 99.755 58.4219C99.62 58.2704 99.4425 58.1473 99.2223 58.0526C99.0021 57.9579 98.7642 57.875 98.5085 57.804L97.6136 57.5483C97.0455 57.3849 96.5956 57.1518 96.2642 56.8487C95.9328 56.5457 95.767 56.1491 95.767 55.6591C95.767 55.2519 95.8771 54.8968 96.0973 54.5938C96.3198 54.2884 96.6181 54.0516 96.9922 53.8835C97.3686 53.7131 97.7888 53.6278 98.2528 53.6278C98.7216 53.6278 99.1383 53.7119 99.5028 53.88C99.8674 54.0457 100.156 54.273 100.369 54.5618C100.585 54.8506 100.698 55.1785 100.71 55.5455H99.858ZM102.13 61V60.3608L104.53 57.733C104.812 57.4252 105.044 57.1577 105.226 56.9304C105.409 56.7008 105.544 56.4853 105.631 56.2841C105.721 56.0805 105.766 55.8674 105.766 55.6449C105.766 55.3892 105.705 55.1679 105.581 54.9808C105.461 54.7938 105.295 54.6494 105.084 54.5476C104.874 54.4458 104.637 54.3949 104.374 54.3949C104.095 54.3949 103.851 54.4529 103.643 54.5689C103.437 54.6825 103.277 54.8423 103.163 55.0483C103.052 55.2543 102.996 55.4957 102.996 55.7727H102.158C102.158 55.3466 102.256 54.9725 102.453 54.6506C102.649 54.3286 102.917 54.0777 103.256 53.8977C103.596 53.7178 103.979 53.6278 104.403 53.6278C104.829 53.6278 105.206 53.7178 105.535 53.8977C105.864 54.0777 106.122 54.3203 106.309 54.6257C106.497 54.9311 106.59 55.2708 106.59 55.6449C106.59 55.9124 106.541 56.174 106.444 56.4297C106.35 56.683 106.184 56.9659 105.947 57.2784C105.713 57.5885 105.387 57.9673 104.971 58.4148L103.337 60.1619V60.2188H106.718V61H102.13ZM109.449 60.0057L109.392 60.3892C109.352 60.6591 109.29 60.9479 109.207 61.2557C109.127 61.5634 109.043 61.8535 108.955 62.1257C108.867 62.398 108.795 62.6146 108.738 62.7756H108.099C108.13 62.6241 108.17 62.424 108.22 62.1754C108.27 61.9268 108.319 61.6487 108.369 61.3409C108.421 61.0355 108.464 60.723 108.497 60.4034L108.54 60.0057H109.449ZM113.113 61.0994C112.697 61.0994 112.322 61.0166 111.988 60.8509C111.654 60.6851 111.386 60.4579 111.185 60.169C110.984 59.8802 110.874 59.5511 110.855 59.1818H111.707C111.74 59.5109 111.89 59.7831 112.155 59.9986C112.422 60.2116 112.742 60.3182 113.113 60.3182C113.412 60.3182 113.677 60.2483 113.909 60.1087C114.143 59.969 114.327 59.7772 114.459 59.5334C114.594 59.2872 114.662 59.009 114.662 58.6989C114.662 58.3816 114.592 58.0987 114.452 57.8501C114.315 57.5992 114.126 57.4015 113.884 57.2571C113.643 57.1127 113.367 57.0393 113.057 57.0369C112.834 57.0346 112.606 57.0689 112.371 57.1399C112.137 57.2086 111.944 57.2973 111.792 57.4062L110.969 57.3068L111.409 53.7273H115.187V54.5085H112.148L111.892 56.6534H111.934C112.084 56.535 112.271 56.4368 112.496 56.3587C112.72 56.2805 112.955 56.2415 113.199 56.2415C113.644 56.2415 114.04 56.348 114.388 56.5611C114.739 56.7718 115.013 57.0606 115.212 57.4276C115.413 57.7945 115.514 58.2135 115.514 58.6847C115.514 59.1487 115.41 59.563 115.202 59.9276C114.996 60.2898 114.711 60.5762 114.349 60.7869C113.987 60.9953 113.575 61.0994 113.113 61.0994ZM119.297 61.0994C118.762 61.0994 118.306 60.9538 117.93 60.6626C117.553 60.3691 117.266 59.9441 117.067 59.3878C116.868 58.8291 116.768 58.1544 116.768 57.3636C116.768 56.5777 116.868 55.9065 117.067 55.3501C117.268 54.7914 117.557 54.3653 117.933 54.0717C118.312 53.7758 118.767 53.6278 119.297 53.6278C119.827 53.6278 120.281 53.7758 120.657 54.0717C121.036 54.3653 121.325 54.7914 121.523 55.3501C121.725 55.9065 121.825 56.5777 121.825 57.3636C121.825 58.1544 121.726 58.8291 121.527 59.3878C121.328 59.9441 121.04 60.3691 120.664 60.6626C120.288 60.9538 119.832 61.0994 119.297 61.0994ZM119.297 60.3182C119.827 60.3182 120.239 60.0625 120.533 59.5511C120.826 59.0398 120.973 58.3106 120.973 57.3636C120.973 56.7339 120.906 56.1977 120.771 55.755C120.638 55.3123 120.446 54.9749 120.195 54.7429C119.947 54.5109 119.647 54.3949 119.297 54.3949C118.771 54.3949 118.361 54.6541 118.065 55.1726C117.769 55.6887 117.621 56.419 117.621 57.3636C117.621 57.9934 117.687 58.5284 117.82 58.9688C117.952 59.4091 118.143 59.7441 118.391 59.9737C118.642 60.2034 118.944 60.3182 119.297 60.3182ZM125.547 61.0994C125.012 61.0994 124.556 60.9538 124.18 60.6626C123.803 60.3691 123.516 59.9441 123.317 59.3878C123.118 58.8291 123.018 58.1544 123.018 57.3636C123.018 56.5777 123.118 55.9065 123.317 55.3501C123.518 54.7914 123.807 54.3653 124.183 54.0717C124.562 53.7758 125.017 53.6278 125.547 53.6278C126.077 53.6278 126.531 53.7758 126.907 54.0717C127.286 54.3653 127.575 54.7914 127.773 55.3501C127.975 55.9065 128.075 56.5777 128.075 57.3636C128.075 58.1544 127.976 58.8291 127.777 59.3878C127.578 59.9441 127.29 60.3691 126.914 60.6626C126.538 60.9538 126.082 61.0994 125.547 61.0994ZM125.547 60.3182C126.077 60.3182 126.489 60.0625 126.783 59.5511C127.076 59.0398 127.223 58.3106 127.223 57.3636C127.223 56.7339 127.156 56.1977 127.021 55.755C126.888 55.3123 126.696 54.9749 126.445 54.7429C126.197 54.5109 125.897 54.3949 125.547 54.3949C125.021 54.3949 124.611 54.6541 124.315 55.1726C124.019 55.6887 123.871 56.419 123.871 57.3636C123.871 57.9934 123.937 58.5284 124.07 58.9688C124.202 59.4091 124.393 59.7441 124.641 59.9737C124.892 60.2034 125.194 60.3182 125.547 60.3182Z" fill="#818181"/>
<circle cx="141" cy="56" r="2" fill="#008000" fill-opacity="0.3"/>
<path d="M148.881 53.7273H149.932L152.403 59.7642H152.489L154.96 53.7273H156.011V61H155.188V55.4744H155.116L152.844 61H152.048L149.776 55.4744H149.705V61H148.881V53.7273ZM157.664 61V55.5455H158.502V61H157.664ZM158.09 54.6364C157.926 54.6364 157.785 54.5807 157.667 54.4695C157.551 54.3582 157.493 54.2244 157.493 54.0682C157.493 53.9119 157.551 53.7782 157.667 53.6669C157.785 53.5556 157.926 53.5 158.09 53.5C158.253 53.5 158.393 53.5556 158.509 53.6669C158.627 53.7782 158.686 53.9119 158.686 54.0682C158.686 54.2244 158.627 54.3582 158.509 54.4695C158.393 54.5807 158.253 54.6364 158.09 54.6364ZM162.096 61.1136C161.642 61.1136 161.24 60.9988 160.892 60.7692C160.544 60.5372 160.272 60.2105 160.076 59.7891C159.879 59.3653 159.781 58.8646 159.781 58.2869C159.781 57.714 159.879 57.2169 160.076 56.7955C160.272 56.3741 160.546 56.0485 160.896 55.8189C161.246 55.5893 161.651 55.4744 162.11 55.4744C162.466 55.4744 162.746 55.5336 162.952 55.652C163.16 55.768 163.319 55.9006 163.428 56.0497C163.539 56.1965 163.626 56.3172 163.687 56.4119H163.758V53.7273H164.596V61H163.787V60.1619H163.687C163.626 60.2614 163.538 60.3868 163.424 60.5384C163.311 60.6875 163.149 60.8213 162.938 60.9396C162.727 61.0556 162.447 61.1136 162.096 61.1136ZM162.21 60.3608C162.546 60.3608 162.83 60.2732 163.062 60.098C163.294 59.9205 163.471 59.6754 163.591 59.3629C163.712 59.0481 163.772 58.6847 163.772 58.2727C163.772 57.8655 163.713 57.5092 163.595 57.2038C163.476 56.8961 163.301 56.657 163.069 56.4865C162.837 56.3137 162.551 56.2273 162.21 56.2273C161.855 56.2273 161.559 56.3184 161.322 56.5007C161.088 56.6806 160.911 56.9257 160.793 57.2358C160.677 57.5436 160.619 57.8892 160.619 58.2727C160.619 58.661 160.678 59.0137 160.797 59.331C160.917 59.6458 161.095 59.8968 161.329 60.0838C161.566 60.2685 161.859 60.3608 162.21 60.3608ZM169.373 57.4915V58.2727H166.191V57.4915H169.373ZM171.685 53.7273V61H170.847V53.7273H171.685ZM175.507 61.1136C174.982 61.1136 174.528 60.9976 174.147 60.7656C173.768 60.5312 173.476 60.2045 173.27 59.7855C173.066 59.3641 172.964 58.8741 172.964 58.3153C172.964 57.7566 173.066 57.2642 173.27 56.8381C173.476 56.4096 173.762 56.0758 174.129 55.8366C174.499 55.5952 174.929 55.4744 175.422 55.4744C175.706 55.4744 175.987 55.5218 176.263 55.6165C176.54 55.7112 176.793 55.8651 177.02 56.0781C177.247 56.2888 177.428 56.5682 177.563 56.9162C177.698 57.2642 177.766 57.6927 177.766 58.2017V58.5568H173.561V57.8324H176.913C176.913 57.5246 176.852 57.25 176.729 57.0085C176.608 56.767 176.435 56.5765 176.21 56.4368C175.988 56.2971 175.725 56.2273 175.422 56.2273C175.088 56.2273 174.799 56.3101 174.555 56.4759C174.314 56.6392 174.128 56.8523 173.998 57.1151C173.868 57.3778 173.803 57.6596 173.803 57.9602V58.4432C173.803 58.8551 173.874 59.2043 174.016 59.4908C174.16 59.7749 174.36 59.9915 174.616 60.1406C174.871 60.2874 175.169 60.3608 175.507 60.3608C175.727 60.3608 175.926 60.33 176.104 60.2685C176.284 60.2045 176.439 60.1098 176.569 59.9844C176.699 59.8565 176.8 59.6979 176.871 59.5085L177.68 59.7358C177.595 60.0104 177.452 60.2519 177.251 60.4602C177.049 60.6662 176.801 60.8272 176.505 60.9432C176.209 61.0568 175.876 61.1136 175.507 61.1136ZM183.335 55.5455L181.318 61H180.465L178.448 55.5455H179.357L180.863 59.892H180.92L182.426 55.5455H183.335ZM186.532 61.1136C186.007 61.1136 185.554 60.9976 185.172 60.7656C184.794 60.5312 184.501 60.2045 184.295 59.7855C184.092 59.3641 183.99 58.8741 183.99 58.3153C183.99 57.7566 184.092 57.2642 184.295 56.8381C184.501 56.4096 184.788 56.0758 185.155 55.8366C185.524 55.5952 185.955 55.4744 186.447 55.4744C186.731 55.4744 187.012 55.5218 187.289 55.6165C187.566 55.7112 187.818 55.8651 188.045 56.0781C188.273 56.2888 188.454 56.5682 188.589 56.9162C188.724 57.2642 188.791 57.6927 188.791 58.2017V58.5568H184.586V57.8324H187.939C187.939 57.5246 187.877 57.25 187.754 57.0085C187.633 56.767 187.461 56.5765 187.236 56.4368C187.013 56.2971 186.75 56.2273 186.447 56.2273C186.113 56.2273 185.825 56.3101 185.581 56.4759C185.339 56.6392 185.153 56.8523 185.023 57.1151C184.893 57.3778 184.828 57.6596 184.828 57.9602V58.4432C184.828 58.8551 184.899 59.2043 185.041 59.4908C185.185 59.7749 185.385 59.9915 185.641 60.1406C185.897 60.2874 186.194 60.3608 186.532 60.3608C186.753 60.3608 186.952 60.33 187.129 60.2685C187.309 60.2045 187.464 60.1098 187.594 59.9844C187.724 59.8565 187.825 59.6979 187.896 59.5085L188.706 59.7358C188.621 60.0104 188.477 60.2519 188.276 60.4602C188.075 60.6662 187.826 60.8272 187.53 60.9432C187.234 61.0568 186.902 61.1136 186.532 61.1136ZM190.904 53.7273V61H190.066V53.7273H190.904Z" fill="#818181"/>
</g>
<defs>
<filter id="filter0_d_290_3778" x="0" y="0" width="296" height="94" filterUnits="userSpaceOnUse" color-interpolation-filters="sRGB">
<feFlood flood-opacity="0" result="BackgroundImageFix"/>
<feColorMatrix in="SourceAlpha" type="matrix" values="0 0 0 0 0 0 0 0 0 0 0 0 0 0 0 0 0 0 127 0" result="hardAlpha"/>
<feOffset dy="3"/>
<feGaussianBlur stdDeviation="8"/>
<feComposite in2="hardAlpha" operator="out"/>
<feColorMatrix type="matrix" values="0 0 0 0 0 0 0 0 0 0 0 0 0 0 0 0 0 0 0.05 0"/>
<feBlend mode="normal" in2="BackgroundImageFix" result="effect1_dropShadow_290_3778"/>
<feBlend mode="normal" in="SourceGraphic" in2="effect1_dropShadow_290_3778" result="shape"/>
</filter>
</defs>
</svg>
